<svg xmlns="http://www.w3.org/2000/svg" width="95.813" height="95.813" viewBox="0 0 95.813 95.813">
    <g>
        <g>
            <path fill="#46465a" d="M229.454 689.993h19.726a8.454 8.454 0 0 1 8.455 8.454v5.637a8.454 8.454 0 0 1-8.455 8.454h-19.726a8.454 8.454 0 0 1-8.454-8.455v-5.637a8.454 8.454 0 0 1 8.454-8.453zm0 5.636a2.818 2.818 0 0 0-2.818 2.818v5.637a2.818 2.818 0 0 0 2.818 2.818h19.726a2.818 2.818 0 0 0 2.82-2.819v-5.637a2.818 2.818 0 0 0-2.818-2.818zm0 67.633h19.726a8.455 8.455 0 0 1 8.455 8.455v5.636a8.455 8.455 0 0 1-8.455 8.455h-19.726a8.455 8.455 0 0 1-8.454-8.456v-5.636a8.455 8.455 0 0 1 8.454-8.455zm0 5.637a2.818 2.818 0 0 0-2.818 2.818v5.636a2.818 2.818 0 0 0 2.818 2.818h19.726a2.817 2.817 0 0 0 2.82-2.819v-5.636a2.817 2.817 0 0 0-2.818-2.818zm0-42.271h19.726a8.455 8.455 0 0 1 8.455 8.455v5.636a8.455 8.455 0 0 1-8.455 8.455h-19.726a8.455 8.455 0 0 1-8.454-8.456v-5.636a8.455 8.455 0 0 1 8.454-8.455zm0 5.636a2.818 2.818 0 0 0-2.818 2.819v5.636a2.818 2.818 0 0 0 2.818 2.818h19.726a2.818 2.818 0 0 0 2.82-2.819v-5.636a2.818 2.818 0 0 0-2.818-2.819zm-22.574 44.32a21.138 21.138 0 0 1 5.665-41.5h1.409a2.818 2.818 0 0 1 0 5.636h-1.409a15.5 15.5 0 0 0-3.857 30.516l-1.377-2.295a2.818 2.818 0 0 1 4.833-2.9l4.227 7.045a2.819 2.819 0 0 1-.656 3.651l-7.045 5.636a2.818 2.818 0 1 1-3.521-4.4l1.731-1.385zm64.873-36.634l1.731 1.385a2.818 2.818 0 0 1-3.521 4.4l-7.045-5.636a2.818 2.818 0 0 1-.655-3.651l4.226-7.045a2.818 2.818 0 0 1 4.834 2.9l-1.377 2.295a15.5 15.5 0 0 0-3.858-30.516h-1.408a2.818 2.818 0 0 1 0-5.637h1.408a21.139 21.139 0 0 1 5.665 41.5z" transform="translate(-191.41 -689.993) translate(191.41 689.993) translate(-191.41 -689.993)"/>
        </g>
    </g>
</svg>
