<svg xmlns="http://www.w3.org/2000/svg" width="27.222" height="20.94" viewBox="0 0 27.222 20.94">
    <defs>
        <style>
            .cls-1{fill:#3f9edd}
        </style>
    </defs>
    <g id="Group_1034" transform="translate(-9.375 -18.75)">
        <path id="Path_557" d="M29.188 45.842a2.094 2.094 0 0 1-2.094 2.094A2.094 2.094 0 0 1 25 45.842a2.094 2.094 0 1 1 4.188 0z" class="cls-1" transform="translate(-10.39 -16.622)"/>
        <path id="Path_558" d="M47.938 45.842a2.094 2.094 0 0 1-2.094 2.094 2.094 2.094 0 0 1-2.094-2.094 2.094 2.094 0 1 1 4.188 0z" class="cls-1" transform="translate(-22.858 -16.622)"/>
        <path id="Path_559" d="M66.688 45.842a2.094 2.094 0 0 1-2.094 2.094 2.094 2.094 0 0 1-2.094-2.094 2.094 2.094 0 0 1 4.188 0z" class="cls-1" transform="translate(-35.326 -16.622)"/>
        <path id="Path_560" d="M22.985 18.75a15.891 15.891 0 0 0-9.512 2.969 9.486 9.486 0 0 0-4.1 7.5 9.486 9.486 0 0 0 4.1 7.5 15.891 15.891 0 0 0 9.512 2.969h12.564a1.047 1.047 0 0 0 .74-1.787l-2.409-2.415a8.778 8.778 0 0 0 2.72-6.266 9.488 9.488 0 0 0-4.1-7.5 15.886 15.886 0 0 0-9.515-2.97zm8.255 4.644a7.349 7.349 0 0 1 3.26 5.826c0 2.147-.935 3.788-2.82 5.474a1.047 1.047 0 0 0-.041 1.521l1.38 1.38H22.985a13.877 13.877 0 0 1-8.257-2.552 7.343 7.343 0 0 1-3.26-5.824 7.346 7.346 0 0 1 3.26-5.826 13.877 13.877 0 0 1 8.257-2.55 13.871 13.871 0 0 1 8.255 2.55z" class="cls-1"/>
    </g>
</svg>
