<svg xmlns="http://www.w3.org/2000/svg" width="16" height="15.979" viewBox="0 0 16 15.979">
    <g>
        <path fill="#fff" d="M28.479 19.691v6.125a2.663 2.663 0 0 1-2.663 2.663H15.163a2.663 2.663 0 0 1-2.663-2.663V15.163a2.663 2.663 0 0 1 2.663-2.663h6.125a.666.666 0 1 1 0 1.332h-6.125a1.332 1.332 0 0 0-1.332 1.332v10.652a1.332 1.332 0 0 0 1.332 1.332h10.653a1.332 1.332 0 0 0 1.332-1.332v-6.125a.666.666 0 1 1 1.332 0zm-9.987-.891l5.786-5.779a1.8 1.8 0 0 1 2.5 0l1.205 1.205a1.758 1.758 0 0 1 .011 2.486l-.011.011-1.005 1.012-4.794 4.754a2.663 2.663 0 0 1-1.884.779h-.053l-1.858-.04a.666.666 0 0 1-.666-.666L17.68 20.7a2.7 2.7 0 0 1 .812-1.9zm6.165-4.3l1.285 1.285a.759.759 0 0 0 1.073.005l.005-.005a.446.446 0 0 0 0-.619l-1.205-1.205a.446.446 0 0 0-.619 0zm-5.633 6.212v1.218h1.218a1.391 1.391 0 0 0 .965-.393l3.362-3.329a1.332 1.332 0 0 0 0-1.883l-.852-.879-4.3 4.294a1.331 1.331 0 0 0-.392.969z" transform="translate(-12.5 -12.5)"/>
    </g>
</svg>
