<svg xmlns="http://www.w3.org/2000/svg" width="30.849" height="30.854" viewBox="0 0 30.849 30.854">
    <defs>
        <style>
            .cls-1{fill:#323245;fill-rule:evenodd}
        </style>
    </defs>
    <g id="Group_864" transform="translate(-41.723 -.722)">
        <path id="Path_489" d="M38.233 35.508l.011-.011 11.741 11.1-4.433 4.69-11.693-11.055-.011.011-8.312-7.857 4.431-4.69zm-9.413-3.215l4.936 4.664L35 35.646l-4.94-4.665q-.618.657-1.239 1.312z" class="cls-1" transform="translate(22.587 -19.708)"/>
        <path id="Path_490" d="M57.086 12.688l-4.754 5.029 2.028 1.917 4.754-5.034z" class="cls-1" transform="translate(6.171 -10.513)"/>
        <path id="Path_491" d="M18.958 53.768L14.2 58.8l2.028 1.917 4.754-5.029z" class="cls-1" transform="translate(29.53 -35.681)"/>
        <path id="Path_492" d="M16.954 16.25l-5.029-4.75-1.917 2.027 5.029 4.754z" class="cls-1" transform="translate(32.1 -9.783)"/>
        <path id="Path_493" d="M13.775 40.1l-4.763.4.167 1.979 4.761-.4z" class="cls-1" transform="translate(32.711 -27.307)"/>
        <path id="Path_494" d="M38.772 13.7l.328-4.764 1.982.136-.327 4.767z" class="cls-1" transform="translate(14.478 -8.214)"/>
        <path id="Path_495" d="M39.9 63.616l.011 4.78h-1.986l-.012-4.78z" class="cls-1" transform="translate(15.005 -41.714)"/>
        <path id="Path_496" d="M62.607 38.386l4.777-.141-.059-1.985-4.777.139z" class="cls-1" transform="translate(-.088 -24.955)"/>
    </g>
</svg>
