<svg xmlns="http://www.w3.org/2000/svg" id="Group_836" width="420.423" height="277.42" viewBox="0 0 420.423 277.42">
    <defs>
        <style>
            .cls-4{fill:#647883}
        </style>
    </defs>
    <g id="Group_814">
        <path id="Path_331" fill="#f5f6fa" d="M778.587 631.2L988.8 509.821v-34.668L778.587 596.53z" transform="translate(-568.376 -353.777)"/>
        <path id="Path_332" fill="#dfdfea" d="M877.364 631.2L667.152 509.821v-34.668L877.364 596.53z" transform="translate(-667.152 -353.777)"/>
        <path id="Path_333" fill="#fff" d="M877.364 653.563l210.212-121.376-210.212-121.376-210.212 121.376z" transform="translate(-667.152 -410.811)"/>
    </g>
    <g id="Group_826" transform="translate(-1225.742 38.044)">
        <path id="Path_361" d="M1506.314 125.246a2.717 2.717 0 0 0 .191-.287l.1-.187v-.715l-14.931-30.438 37.737-21.788a2.615 2.615 0 0 0 .875-.73.843.843 0 0 0 .187-1.261l-15.311-31.166a3.839 3.839 0 0 0-2.245-1.387l-54.748-9.282-1.485-.05a4.062 4.062 0 0 0-2.213.608l-38.316 22.121-51.556-8.9-1.477-.055a4.052 4.052 0 0 0-2.234.608l-39.344 22.715c-.963.556-1.292 1.221-.976 2.108l14.894 32.057 1 .575a4.322 4.322 0 0 0 1.853.6l52.746 8.134 14.277 30.859 1 .577a4.353 4.353 0 0 0 1.855.6l54.54 8.551a5.945 5.945 0 0 0 3.78-.541l39.806-22.979zm-177.665-57.93l33.409-19.287 14.453 25.717-35.425 20.454zm97.177 18.043l-32.964 19.031-46.562-7.182 34.98-20.2zm-3.438-31.9l33.394-19.281L1470.1 59.8l-35.007 20.212zm4.758 27.215l-43.03-8.052-14.61-25.371 45.705 7.748zm68.7 44.773l-33.26 19.2-46.563-7.181L1451.3 117.1zm-18.44-66.767l-14.342-25.38 45.449 7.748 12.744 25.992zm9.194 31.85l-32.83-5.113-13.484-2.211 35.03-20.225 44.679 8.268zm-88.368 16.956l33.402-19.286 14.453 25.717-35.423 20.451zm53.39-17.94l32.752 5.371 13.016 26-44.127-8.214-13.963-25.024z" class="cls-4"/>
        <path id="Path_362" d="M1363.464 51.938l-.409-.235-31.489-5.193a6 6 0 0 0-3.006.189 3.092 3.092 0 0 0-1.716 1.25c-.416.722-.019 1.622.963 2.188a4.309 4.309 0 0 0 1.836.6l30.788 5.077a6.668 6.668 0 0 0 2.706-.019 3.015 3.015 0 0 0 2.021-1.255c.606-1.064-.108-2.124-1.694-2.602z" class="cls-4" transform="translate(6.837 20.255)"/>
        <path id="Path_363" d="M1406.825 44.966l-30.967-5.1c-1.937-.376-4.053.273-4.723 1.443l-.109.187v.2a2.056 2.056 0 0 0 1.072 1.8 4.294 4.294 0 0 0 1.829.6l30.792 5.077a5.977 5.977 0 0 0 3.006-.189 3.077 3.077 0 0 0 1.718-1.253c.643-1.124-.492-2.347-2.618-2.765z" class="cls-4" transform="translate(55.53 12.957)"/>
        <path id="Path_364" d="M1397.71 71.7a4.482 4.482 0 0 0-2.186-1l-30.91-5.207c-1.892-.367-3.963.245-4.679 1.368-.56.745-.216 1.6.923 2.26a4.339 4.339 0 0 0 1.821.6l30.652 5.161a6 6 0 0 0 2.753-.107 3.267 3.267 0 0 0 1.974-1.334 1.362 1.362 0 0 0-.348-1.741z" class="cls-4" transform="translate(43.062 41.099)"/>
        <path id="Path_365" d="M1392.933 49l8.8 17.8c.128.539.693.864 1.045 1.068a5.99 5.99 0 0 0 3.783.558c2.029-.386 3.149-1.609 2.53-2.673l-8.9-17.988c-.691-1.166-2.814-1.827-4.9-1.425-2.028.501-2.968 1.565-2.358 2.66z" class="cls-4" transform="translate(79.381 20.059)"/>
        <path id="Path_366" d="M1348.363 55.338l.1.4.1.059a1.046 1.046 0 0 0 .075.1l8.749 17.684c.151.545.78.908 1.036 1.057a6.1 6.1 0 0 0 5.344.01c1.158-.667 1.506-1.592.921-2.388l-9-17.81c-.663-1.143-2.285-1.754-4.23-1.6l-.365.05c-1.966.384-3.015 1.316-2.73 2.438z" class="cls-4" transform="translate(30.594 27.318)"/>
        <path id="Path_367" d="M1381.408 74.662l8.822 17.833c.151.545.781.908 1.037 1.057a6.106 6.106 0 0 0 3.951.52c2.058-.508 3.1-1.66 2.5-2.748l-9.034-17.875c-.688-1.169-2.814-1.829-4.748-1.46-2.036.388-3.149 1.611-2.528 2.673z" class="cls-4" transform="translate(66.74 48.236)"/>
    </g>
</svg>
