<svg xmlns="http://www.w3.org/2000/svg" width="281" height="185.42" viewBox="0 0 281 185.42">
    <defs>
        <style>
            .cls-4{fill:#46465a}
        </style>
    </defs>
    <g id="Group_839" transform="translate(-667.152 -410.811)">
        <g id="Group_814" transform="translate(667.152 410.811)">
            <path id="Path_331" fill="#f5f6fa" d="M778.587 579.449l140.5-81.125v-23.171l-140.5 81.125z" transform="translate(-638.087 -394.029)"/>
            <path id="Path_332" fill="#dfdfea" d="M807.652 579.449l-140.5-81.125v-23.171l140.5 81.125z" transform="translate(-667.152 -394.029)"/>
            <path id="Path_333" fill="#fff" d="M807.652 573.06l140.5-81.125-140.5-81.125-140.5 81.125z" transform="translate(-667.152 -410.811)"/>
        </g>
        <g id="Group_831" transform="translate(-850.963 406.223)">
            <path id="Path_400" d="M1683.62 67.87a13.332 13.332 0 0 0-12.045-.024c-3.308 1.91-3.289 5.029.043 6.954a13.332 13.332 0 0 0 12.045.025c3.309-1.911 3.288-5.031-.043-6.955zm-4.585 4.283a3.031 3.031 0 0 1-2.82-.006c-.808-.466-.812-1.166-.01-1.628a3.025 3.025 0 0 1 2.821.006c.805.465.81 1.165.008 1.627z" class="cls-4" transform="translate(23.663 5.805)"/>
            <path id="Path_401" d="M1737.019 90.41a2.157 2.157 0 0 0-1.521-1.4l-16.915-5.694c4.875-4.614 3.69-10.611-2.916-14.424l-.083-.048c-6.534-3.772-16.948-4.445-25-1.662l-9.832-9.76a2.426 2.426 0 0 0-1.2-.714l-35.376-11.868a5.313 5.313 0 0 0-3.962.284l-59.252 34.209a1.434 1.434 0 0 0-.813 1.553 2.173 2.173 0 0 0 1.52 1.382l34.652 11.624 20.135 20.009a2.589 2.589 0 0 0 .5.375 3.777 3.777 0 0 0 .657.294l35.375 11.874a5.344 5.344 0 0 0 3.933-.267l59.245-34.2a1.453 1.453 0 0 0 .853-1.567zm-26.306-7.39a24.272 24.272 0 0 1-4.893 1.9q-10.9 2.244-21.846 4.461l-6.008 1.223q1.9-3.1 3.785-6.2c2.007-3.3 4.014-6.6 6.037-9.853a13.639 13.639 0 0 1 3.294-2.846c6.743-3.633 15.29-2.814 19.91-.2 5.422 3.131 5.297 8.295-.278 11.515zm17.875 7.98l-54.533 31.486-29.527-9.908 29.872-17.242q7.6-1.578 15.243-3.1c6.171-1.243 12.554-2.528 18.829-3.852a31.2 31.2 0 0 0 5.869-2.169zm-58.823 1.661l-29.865 17.247-17.162-17.048 54.533-31.484 8.292 8.228a16.7 16.7 0 0 0-3.774 3.415q-4.3 6.982-8.572 13.993zm2.875-33.961l-54.531 31.483-29.529-9.908 54.532-31.483z" class="cls-4"/>
        </g>
    </g>
</svg>
