<svg xmlns="http://www.w3.org/2000/svg" width="281" height="185.42" viewBox="0 0 281 185.42">
    <defs>
        <style>
            .cls-4{fill:#46465a}
        </style>
    </defs>
    <g id="Group_837" transform="translate(-667.152 -410.811)">
        <g id="Group_814" transform="translate(667.152 410.811)">
            <path id="Path_331" fill="#f5f6fa" d="M778.587 579.449l140.5-81.125v-23.171l-140.5 81.125z" transform="translate(-638.087 -394.029)"/>
            <path id="Path_332" fill="#dfdfea" d="M807.652 579.449l-140.5-81.125v-23.171l140.5 81.125z" transform="translate(-667.152 -394.029)"/>
            <path id="Path_333" fill="#fff" d="M807.652 573.06l140.5-81.125-140.5-81.125-140.5 81.125z" transform="translate(-667.152 -410.811)"/>
        </g>
        <g id="Group_830" transform="translate(-991.021 540.372)">
            <path id="Path_387" d="M1810.612-4.162l-5.868-3.387 47.925-27.67a1.207 1.207 0 0 0-.014-2.284l-9.01-5.2 4.266-2.463a1.206 1.206 0 0 0-.014-2.284l-6.282-3.627a4.38 4.38 0 0 0-3.957-.009l-4.266 2.464-7.023-4.055 17.044-9.841c.97-.538 1.131-1.4.4-2.043l-28.343-27.167-1.482-.87-.193-.016a4.224 4.224 0 0 0-2.372.452l-76.615 44.234-5.869-3.387a4.377 4.377 0 0 0-3.956-.009 1.206 1.206 0 0 0 .017 2.284l81.672 47.153a4.378 4.378 0 0 0 3.956.009 1.206 1.206 0 0 0-.016-2.284zM1787.2-45.535l-23.814 13.749-14.878-8.588 23.814-13.749zm5.927-1.129l-18.848-10.882a4.379 4.379 0 0 0-3.955-.008l-25.785 14.887-5.453-3.149 73.596-42.484 25.2 24.39-65.069 37.568-5.453-3.149 25.784-14.887a1.206 1.206 0 0 0-.012-2.285zm44.232.331l2.3-1.326 2.311 1.335-2.3 1.325zm-60.891 22.46l45.96-26.527 24.3 14.03-45.953 26.528z" class="cls-4"/>
            <path id="Path_388" d="M1801.319-74.919l-6.282-3.628a4.382 4.382 0 0 0-3.956-.008 1.206 1.206 0 0 0 .014 2.284l6.282 3.627a4.374 4.374 0 0 0 3.956.008 1.206 1.206 0 0 0-.014-2.283z" class="cls-4" transform="translate(11.053 2.276)"/>
            <path id="Path_389" d="M1802.128-69.9l6.283 3.628a4.384 4.384 0 0 0 3.957.008 1.207 1.207 0 0 0-.015-2.284l-6.283-3.628a4.379 4.379 0 0 0-3.955-.008 1.206 1.206 0 0 0 .013 2.284z" class="cls-4" transform="translate(12.898 3.341)"/>
            <path id="Path_390" d="M1791.968-69.521l-6.282-3.627a4.378 4.378 0 0 0-3.956-.008 1.206 1.206 0 0 0 .014 2.284l6.282 3.627a4.377 4.377 0 0 0 3.956.008 1.206 1.206 0 0 0-.014-2.284z" class="cls-4" transform="translate(9.489 3.178)"/>
            <path id="Path_391" d="M1792.777-64.5l6.283 3.628a4.38 4.38 0 0 0 3.957.007 1.206 1.206 0 0 0-.017-2.285l-6.283-3.628a4.379 4.379 0 0 0-3.955-.008 1.206 1.206 0 0 0 .015 2.286z" class="cls-4" transform="translate(11.335 4.244)"/>
            <path id="Path_392" d="M1782.617-64.122l-6.282-3.627a4.374 4.374 0 0 0-3.956-.008 1.206 1.206 0 0 0 .014 2.283l6.282 3.628a4.381 4.381 0 0 0 3.956.008 1.206 1.206 0 0 0-.014-2.284z" class="cls-4" transform="translate(7.926 4.081)"/>
            <path id="Path_393" d="M1793.651-57.751l-6.282-3.628a4.38 4.38 0 0 0-3.957-.008 1.206 1.206 0 0 0 .015 2.284l6.283 3.627a4.372 4.372 0 0 0 3.955.008 1.205 1.205 0 0 0-.014-2.283z" class="cls-4" transform="translate(9.771 5.147)"/>
            <path id="Path_394" d="M1810.746-46.956l-5.34-3.084a4.376 4.376 0 0 0-3.957-.008 1.206 1.206 0 0 0 .015 2.284l5.34 3.083a4.374 4.374 0 0 0 3.956.008 1.206 1.206 0 0 0-.014-2.283z" class="cls-4" transform="translate(12.787 7.043)"/>
            <path id="Path_395" d="M1819.627-41.829l-5.34-3.083a4.38 4.38 0 0 0-3.957-.009 1.206 1.206 0 0 0 .015 2.284l5.34 3.084a4.381 4.381 0 0 0 3.956.008 1.206 1.206 0 0 0-.014-2.284z" class="cls-4" transform="translate(14.272 7.9)"/>
            <path id="Path_396" d="M1800.059-40.786l-5.34-3.084a4.378 4.378 0 0 0-3.956-.008 1.206 1.206 0 0 0 .015 2.284l5.34 3.083a4.375 4.375 0 0 0 3.955.008 1.206 1.206 0 0 0-.014-2.283z" class="cls-4" transform="translate(11 8.075)"/>
            <path id="Path_397" d="M1808.94-35.659l-5.34-3.083a4.38 4.38 0 0 0-3.957-.009 1.207 1.207 0 0 0 .015 2.284l5.34 3.083a4.378 4.378 0 0 0 3.956.009 1.207 1.207 0 0 0-.014-2.284z" class="cls-4" transform="translate(12.485 8.932)"/>
            <path id="Path_398" d="M1789.372-34.616l-5.34-3.084a4.38 4.38 0 0 0-3.957-.008 1.206 1.206 0 0 0 .015 2.284l5.34 3.083a4.374 4.374 0 0 0 3.956.008 1.206 1.206 0 0 0-.014-2.283z" class="cls-4" transform="translate(9.213 9.106)"/>
            <path id="Path_399" d="M1798.253-29.489l-5.34-3.083a4.376 4.376 0 0 0-3.957-.008 1.206 1.206 0 0 0 .015 2.283l5.34 3.084a4.381 4.381 0 0 0 3.956.008 1.206 1.206 0 0 0-.014-2.284z" class="cls-4" transform="translate(10.698 9.964)"/>
        </g>
    </g>
</svg>
