<svg xmlns="http://www.w3.org/2000/svg" id="Group_836" width="420.423" height="277.42" viewBox="0 0 420.423 277.42">
    <defs>
        <style>
            .cls-4{fill:#46465a}
        </style>
    </defs>
    <g id="Group_814">
        <path id="Path_331" fill="#f5f6fa" d="M778.587 631.2L988.8 509.821v-34.668L778.587 596.53z" transform="translate(-568.376 -353.777)"/>
        <path id="Path_332" fill="#dfdfea" d="M877.364 631.2L667.152 509.821v-34.668L877.364 596.53z" transform="translate(-667.152 -353.777)"/>
        <path id="Path_333" fill="#fff" d="M877.364 653.563l210.212-121.376-210.212-121.376-210.212 121.376z" transform="translate(-667.152 -410.811)"/>
    </g>
    <g id="Group_1042" transform="translate(-328.18 -469.246)">
        <path id="Path_561" d="M563.513 581.41c1.147-.662 1.532-1.637.991-2.561l-15.895-22a3.354 3.354 0 0 0-2.241-1.306l-38.175-9.191a6.65 6.65 0 0 0-4.4.579c-1.147.662-1.53 1.637-.991 2.563l6.113 8.438-14.652-3.535a6.659 6.659 0 0 0-4.4.579c-1.147.663-1.53 1.637-.991 2.563l6.111 8.438-14.65-3.535a6.658 6.658 0 0 0-4.4.579c-1.149.662-1.532 1.637-.991 2.563l15.9 22a2.264 2.264 0 0 0 .875.721 3.666 3.666 0 0 0 1.216.5l38.175 9.191a6.661 6.661 0 0 0 4.4-.579c1.149-.663 1.532-1.637.991-2.563l-6.111-8.438 14.65 3.535a6.667 6.667 0 0 0 4.4-.579c1.149-.662 1.532-1.637.991-2.563l-6.111-8.44 14.623 3.532a6.867 6.867 0 0 0 4.572-.491zm-37.984-12.639l-11.437-15.893 27.531 6.6 11.437 15.9zm-13.786 7.96l-11.432-15.891 12.927 3.131 5.307 7.435a2.264 2.264 0 0 0 .875.721 3.693 3.693 0 0 0 1.217.5l12.911 3.073 5.7 7.63zm-12.291-4.8l5.307 7.435a2.271 2.271 0 0 0 .875.722 3.709 3.709 0 0 0 1.217.5l12.913 3.073 5.7 7.63-27.507-6.6-11.432-15.891z" class="cls-4" transform="translate(22.998 13.383)"/>
        <path id="Path_562" d="M532.729 549.228l-9.8 5.658c-1.539.888-1.529 2.453.021 3.348a6.625 6.625 0 0 0 5.8.012l9.8-5.656c6.2 2 13.615 1.45 18.574-1.412 6.007-3.468 5.971-9.133-.08-12.627s-15.861-3.515-21.868-.046c-4.876 2.818-5.861 7.195-2.447 10.723zm8.271-7.361a11.361 11.361 0 0 1 10.263.021c2.842 1.64 2.857 4.3.038 5.928a11.532 11.532 0 0 1-10.264-.022c-2.842-1.64-2.858-4.294-.037-5.927z" class="cls-4" transform="translate(56.523 6.053)"/>
        <path id="Path_563" d="M496.328 542.628a20.216 20.216 0 0 0 7 2.273l.05 8a2.224 2.224 0 0 0 1.205 1.678 6.5 6.5 0 0 0 2.905.7c2.373.005 4.09-.986 4.083-2.356l-.053-8.006a19.034 19.034 0 0 0 6.974-2.244c6.007-3.468 5.971-9.133-.081-12.625s-15.861-3.514-21.868-.046c-6.087 3.517-6.185 9.18-.215 12.626zm5.743-9.265a11.533 11.533 0 0 1 10.264.022c2.84 1.64 2.857 4.3.038 5.927a11.536 11.536 0 0 1-10.266-.022c-2.792-1.611-2.807-4.326-.036-5.926z" class="cls-4" transform="translate(35.259)"/>
        <path id="Path_564" d="M479.924 552.476l9.869 5.7a6.621 6.621 0 0 0 5.8.012c1.541-.89 1.53-2.455-.019-3.35l-9.869-5.7c3.427-3.564 2.412-7.851-2.582-10.733-6.052-3.494-15.864-3.515-21.871-.046s-5.971 9.133.08 12.627c4.916 2.836 12.507 3.435 18.592 1.49zm-2.544-4.807a11.363 11.363 0 0 1-10.266-.022c-2.84-1.64-2.857-4.3-.038-5.927a11.532 11.532 0 0 1 10.264.022c2.793 1.611 2.812 4.327.041 5.927z" class="cls-4" transform="translate(10.241 5.948)"/>
        <path id="Path_565" d="M486.58 562.666l-13.906-.031a8.849 8.849 0 0 0-3.937-4.042c-6.052-3.494-15.861-3.513-21.868-.045s-5.973 9.131.079 12.625 15.861 3.513 21.868.045a9 9 0 0 0 3.886-4.025l13.866.029a5.978 5.978 0 0 0 2.934-.663 1.985 1.985 0 0 0 1.145-1.72c-.186-1.139-1.937-2.076-4.067-2.173zm-23.753 5.288a9.312 9.312 0 0 1-4.817 1.241 10.886 10.886 0 0 1-5.43-1.274c-2.842-1.64-2.857-4.3-.038-5.927a11.36 11.36 0 0 1 10.265.022c2.793 1.612 2.811 4.327.021 5.938z" class="cls-4" transform="translate(0 20.321)"/>
        <path id="Path_566" d="M485.905 582.986l9.8-5.656c1.541-.888 1.53-2.455-.021-3.35a6.624 6.624 0 0 0-5.8-.01l-9.8 5.654c-6.2-2-13.616-1.448-18.574 1.414-6.007 3.468-5.973 9.131.079 12.625s15.862 3.515 21.869.046c4.878-2.818 5.859-7.195 2.447-10.723zm-8.272 7.361a11.032 11.032 0 0 1-10.265-.021c-2.842-1.64-2.855-4.3-.036-5.927a11.356 11.356 0 0 1 10.263.02c2.841 1.641 2.858 4.3.038 5.928z" class="cls-4" transform="translate(10.422 32.669)"/>
        <path id="Path_567" d="M518.663 591.614a20.172 20.172 0 0 0-7-2.273l-.05-8.006c-.01-1.371-1.739-2.369-4.112-2.373a5.969 5.969 0 0 0-2.934.661 1.988 1.988 0 0 0-1.147 1.695l.051 8a19.1 19.1 0 0 0-6.974 2.244c-6.007 3.468-5.971 9.133.079 12.627s15.862 3.514 21.863.051c3.052-1.679 4.754-3.908 4.79-6.277s-1.589-4.631-4.566-6.349zm-5.743 9.263a11.538 11.538 0 0 1-10.264-.021c-2.842-1.64-2.857-4.3-.038-5.926a11.36 11.36 0 0 1 10.265.021c2.841 1.639 2.856 4.298.037 5.926z" class="cls-4" transform="translate(35.33 36.695)"/>
        <path id="Path_568" d="M557.363 581.266c-4.915-2.837-12.505-3.436-18.595-1.491l-9.866-5.7a6.628 6.628 0 0 0-5.8-.014c-1.539.89-1.529 2.455.022 3.35l9.866 5.7c-3.424 3.566-2.409 7.851 2.585 10.735 6.052 3.492 15.861 3.513 21.869.044s5.969-9.13-.081-12.624zm-5.743 9.265a11.363 11.363 0 0 1-10.266-.022c-2.84-1.64-2.857-4.3-.038-5.927a11.533 11.533 0 0 1 10.264.022c2.842 1.64 2.859 4.296.039 5.927z" class="cls-4" transform="translate(56.642 32.738)"/>
        <path id="Path_569" d="M532.693 566.715a6.48 6.48 0 0 0 2.9.7l13.866.029a8.822 8.822 0 0 0 3.937 4.042c6.052 3.494 15.861 3.514 21.868.046s5.973-9.133-.079-12.625-15.862-3.514-21.869-.046a9.014 9.014 0 0 0-3.886 4.026l-13.865-.029a5.966 5.966 0 0 0-2.936.663 1.969 1.969 0 0 0-1.135 1.753 2.633 2.633 0 0 0 1.199 1.441zm26.6-4.583a11.365 11.365 0 0 1 10.265.021c2.84 1.64 2.857 4.3.038 5.927a11.536 11.536 0 0 1-10.266-.021c-2.84-1.64-2.857-4.298-.036-5.926z" class="cls-4" transform="translate(63.44 20.54)"/>
    </g>
</svg>
