<svg xmlns="http://www.w3.org/2000/svg" width="281" height="185.42" viewBox="0 0 281 185.42">
    <defs>
        <clipPath id="clip-path">
            <path id="Rectangle_264" d="M0 0H151.508V69.656H0z" class="cls-1"/>
        </clipPath>
        <style>
            .cls-1{fill:#46465a}
        </style>
    </defs>
    <g id="Group_835" transform="translate(-667.152 -410.811)">
        <g id="Group_814" transform="translate(667.152 410.811)">
            <path id="Path_331" fill="#f5f6fa" d="M778.587 579.449l140.5-81.125v-23.171l-140.5 81.125z" transform="translate(-638.087 -394.029)"/>
            <path id="Path_332" fill="#dfdfea" d="M807.652 579.449l-140.5-81.125v-23.171l140.5 81.125z" transform="translate(-667.152 -394.029)"/>
            <path id="Path_333" fill="#fff" d="M807.652 573.06l140.5-81.125-140.5-81.125-140.5 81.125z" transform="translate(-667.152 -410.811)"/>
        </g>
        <g id="Group_1047" transform="translate(732.152 455.785)">
            <g id="Group_1046" clip-path="url(#clip-path)">
                <path id="Path_579" d="M114.865 2.01l19.517 11.269c4.62 2.668 4.646 6.977.057 9.627L128.9 26.1c-4.589 2.649-12.054 2.635-16.673-.032L92.707 14.8c-4.62-2.668-4.645-6.978-.056-9.627l5.539-3.2c4.589-2.649 12.054-2.635 16.674.033m-5.539 3.2a6.148 6.148 0 0 0-5.559-.011l-5.539 3.2c-1.529.885-1.521 2.32.019 3.21l19.52 11.269a6.145 6.145 0 0 0 5.558.011l5.539-3.2c1.529-.883 1.521-2.32-.019-3.21zM42.854 43.584l19.519 11.269c4.621 2.667 4.646 6.978.057 9.627l-5.539 3.2c-4.589 2.648-12.055 2.634-16.674-.034L20.7 56.376c-4.621-2.667-4.646-6.978-.057-9.627l5.539-3.2c4.589-2.649 12.054-2.635 16.673.033m-5.539 3.2a6.139 6.139 0 0 0-5.558-.012l-5.538 3.2c-1.53.882-1.522 2.32.019 3.209l19.516 11.268a6.142 6.142 0 0 0 5.558.011l5.54-3.2c1.529-.882 1.521-2.32-.02-3.207zM78.86 22.8l19.519 11.265c4.62 2.669 4.645 6.978.056 9.627L92.9 46.89c-4.589 2.649-12.054 2.636-16.674-.032L56.7 35.589c-4.62-2.667-4.645-6.977-.056-9.627l5.539-3.2c4.589-2.649 12.054-2.635 16.675.033m-5.54 3.2a6.142 6.142 0 0 0-5.558-.01l-5.539 3.2c-1.529.882-1.521 2.32.019 3.209L81.76 43.66a6.141 6.141 0 0 0 5.559.011l5.539-3.2c1.529-.883 1.521-2.32-.019-3.21zM7.425 38.249c-6.434-6.538-4.774-14.919 4.711-20.4 11.472-6.623 30.135-6.587 41.684.081l1.395.8c1.54.89 1.549 2.326.02 3.21a6.144 6.144 0 0 1-5.559-.011l-1.394-.8c-8.47-4.89-22.156-4.916-30.568-.06-7.061 4.077-8.208 10.35-3.24 15.171l.893-2.089c.519-1.214 2.648-1.95 4.756-1.642s3.394 1.548 2.877 2.762l-2.741 6.413c-.471 1.1-2.281 1.825-4.236 1.7L3.51 42.553c-2.158-.142-3.719-1.266-3.487-2.512s2.17-2.139 4.328-2zM107.62 54.522l.351 1.775c.247 1.246-1.3 2.365-3.457 2.5s-4.1-.766-4.351-2.013l-1.432-7.222c-.224-1.129 1.031-2.175 2.938-2.447l11.107-1.583c2.1-.3 4.242.443 4.775 1.661s-.739 2.447-2.843 2.747l-3.617.515c8.353 2.869 19.22 2.2 26.276-1.87 8.413-4.857 8.367-12.759-.1-17.649l-1.394-.8c-1.54-.89-1.549-2.326-.019-3.21a6.145 6.145 0 0 1 5.558.011l1.394.8c11.55 6.669 11.614 17.444.141 24.068-9.481 5.474-24 6.436-35.325 2.719" class="cls-1"/>
            </g>
        </g>
    </g>
</svg>
