<svg xmlns="http://www.w3.org/2000/svg" id="Group_836" width="420.423" height="277.42" viewBox="0 0 420.423 277.42">
    <defs>
        <style>
            .cls-4{fill:#3f9edd}
        </style>
    </defs>
    <g id="Group_814">
        <path id="Path_331" fill="#f5f6fa" d="M778.587 631.2L988.8 509.821v-34.668L778.587 596.53z" transform="translate(-568.376 -353.777)"/>
        <path id="Path_332" fill="#dfdfea" d="M877.364 631.2L667.152 509.821v-34.668L877.364 596.53z" transform="translate(-667.152 -353.777)"/>
        <path id="Path_333" fill="#fff" d="M877.364 653.563l210.212-121.376-210.212-121.376-210.212 121.376z" transform="translate(-667.152 -410.811)"/>
    </g>
    <g id="Group_827" transform="translate(-1352.794 156.813)">
        <path id="Path_368" d="M1488.168-84.953h.008-.008m-3.89 2.166c6.447 4.48 13.125 9.083 20.251 13.96-.308.227-.644.462-.99.706-.383.269-.8.56-1.225.87-5.649-1.837-11.343-3.665-16.883-5.444l-7.869-2.527q-1.363-.439-2.718-.885l-.12-.038a78.448 78.448 0 0 1 9.553-6.641m1.8-5.467a2.7 2.7 0 0 0-2.972.092 85.778 85.778 0 0 0-18.019 12.519c-.592.537-.635.924-.062 1.253a4.01 4.01 0 0 0 .791.321c2.739.84 5.42 1.747 8.131 2.619 9.434 3.036 18.889 6.051 28.286 9.124 1.708.558 2.656.477 3.757-.494 1.46-1.289 3.258-2.45 4.588-3.43a23.5 23.5 0 0 1 2.29-1.3c1.55-.661 1.458-1.251.236-2.087q-13.391-9.15-26.64-18.369c-.132-.092-.261-.175-.387-.246z" class="cls-4" transform="translate(8.098 8.142)"/>
        <path id="Path_369" d="M1503.19-58.371h.006-.006m-3.889.535c.489.614.99 1.212 1.486 1.8-1.649.652-3.222 1.274-4.8 1.894q-3.641 1.43-7.287 2.859c-4.583 1.8-9.282 3.637-13.99 5.5a53.589 53.589 0 0 1-6.175-7.926c9.372-1.227 19.344-2.566 30.767-4.129m4.565-4.55a4.006 4.006 0 0 0-2.568-.175q-19.86 2.729-39.775 5.328c-2.232.289-2.474.772-1.833 1.931A58.386 58.386 0 0 0 1471-40.874a3.827 3.827 0 0 0 .708.541c.834.481 1.644.361 2.918-.148 8.5-3.393 17.063-6.725 25.6-10.082 3.026-1.189 6.041-2.386 9.573-3.785a3.239 3.239 0 0 0-.423-1.285c-1.537-1.982-3.37-3.9-4.694-5.921a2.482 2.482 0 0 0-.82-.834z" class="cls-4" transform="translate(2.135 37.721)"/>
        <path id="Path_370" d="M1507.351-53.352h.008-.008m1.978 4.413h.006-.006m-3.144-1.74c-6.5 5.484-12.22 10.33-17.61 14.929l-3.724-1.826-2.484-1.217-2.194-1.473-2.249-1.507c8.8-3.449 17.508-6.872 25.971-10.214l.1.06q1.081.625 2.189 1.249m8.385-1.322l-.119-.066q-2.623-1.43-5.177-2.9-1.523-.879-3.021-1.775l-.073-.043a3.154 3.154 0 0 0-3.09-.135q-17.1 6.764-34.269 13.475c-1.514.592-1.618 1.15-.408 1.937 2.876 1.875 5.683 3.785 8.681 5.788 3.626 1.779 7.437 3.639 11.23 5.512a2.5 2.5 0 0 0 3.137-.254q11.6-9.92 23.33-19.789c.823-.693.778-1.17-.22-1.747z" class="cls-4" transform="translate(11.472 43.876)"/>
        <path id="Path_371" d="M1499.25-65.764q-.5.885-1 1.753c-7.578-.592-15.209-1.206-22.629-1.8l-8.654-.695a42.6 42.6 0 0 1 4.606-8.176q11.184 3.618 22.383 7.219l5.3 1.7m8.513-2.166c-.565-.2-.77-.276-.984-.344q-18.419-5.937-36.83-11.88c-1.514-.492-2.147-.152-2.795.6a46.4 46.4 0 0 0-8.8 15.485c-.165.483-.135.832.258 1.058a3.227 3.227 0 0 0 1.29.3c13.988 1.11 27.966 2.262 41.958 3.34a2.972 2.972 0 0 0 1.989-.763c1.424-2.243 2.684-4.522 3.928-6.8.184-.336 0-.742-.01-.99z" class="cls-4" transform="translate(.854 17.56)"/>
        <path id="Path_372" d="M1557.816-80.1h.009-.009m-4.227-2.119q-3.611 2.075-7.206 4.159l-3.684 2.132q-1.988 1.148-3.984 2.292c-2.459 1.413-4.98 2.861-7.5 4.334-.864-.359-1.723-.7-2.564-1.035 4.227-5.536 8.5-11.155 12.733-16.766a121.219 121.219 0 0 1 12.2 4.884m9.451-.956c-.049-.03-.1-.058-.154-.086a130.82 130.82 0 0 0-23.285-9.365c-1.283-.393-2.025-.282-2.639.53q-8.41 11.168-16.935 22.306c-.475.62-.391 1.007.227 1.362a4.927 4.927 0 0 0 .774.346c3.015 1.125 6.008 2.288 8.813 3.577a3.729 3.729 0 0 0 4.075-.184c4.634-2.76 9.389-5.455 14.1-8.172 4.937-2.852 9.857-5.715 14.829-8.549 1.095-.624 1.341-1.105.2-1.766z" class="cls-4" transform="translate(70.815 3.374)"/>
        <path id="Path_373" d="M1516.468-46.469h.006-.006m-4.652-1.127q-1.774 4.426-3.564 8.848l-1.283 3.175q-.519 1.283-1.045 2.566c-.441 1.076-.888 2.168-1.328 3.269-4.83-.973-9.31-2.085-13.522-3.359q7.287-6.164 14.559-12.335l3.376-2.863 1.187.3c.537.135 1.075.269 1.621.4m8.176-2.609a2.767 2.767 0 0 0-.768-.272c-3.857-.9-7.643-1.9-11.495-2.814a8.009 8.009 0 0 0-1.839-.028c-.385.3-.487.37-.579.447q-11.934 10.119-23.877 20.232c-.644.543-.629.909-.045 1.244a4.47 4.47 0 0 0 .748.327 157.445 157.445 0 0 0 25.783 6.477c1.629.278 2.346.086 2.714-.9 1.133-3.032 2.41-6.045 3.628-9.066 1.92-4.76 3.851-9.517 5.75-14.281.186-.47.65-.977-.019-1.362z" class="cls-4" transform="translate(26.684 48.317)"/>
        <path id="Path_374" d="M1570.195-50.285a57.34 57.34 0 0 1-7.045 7.392c-6.652-3.192-13.336-6.385-20.108-9.62l-4.443-2.121c.475-.483.958-.99 1.458-1.529 10.272 2.014 20.368 3.983 30.138 5.878m9.153-2.639a4.269 4.269 0 0 0-1.225-.378q-20.017-3.868-40-7.8c-1.356-.265-2.025-.077-2.677.663-1.657 1.882-3.385 3.748-5.3 5.542-.819.765-.926 1.319-.212 1.732a2.957 2.957 0 0 0 .547.237c11.033 5.273 21.773 10.392 32.473 15.538a2.388 2.388 0 0 0 2.944-.225 62.69 62.69 0 0 0 13.559-14.14c.385-.556.346-.913-.1-1.174z" class="cls-4" transform="translate(81.89 39.382)"/>
        <path id="Path_375" d="M1559.394-80.622a76.11 76.11 0 0 1 8.134 6.889c-9.746 2.455-19.411 4.92-28.845 7.353-.513-.447-1.054-.9-1.623-1.36 2.641-1.507 5.26-3.026 7.813-4.507q1.966-1.139 3.932-2.275 2.011-1.164 4.032-2.32c2.153-1.234 4.356-2.5 6.556-3.78m2.022-5.311a3.251 3.251 0 0 0-3.823.16c-4.616 2.775-9.393 5.461-14.1 8.183-4.828 2.788-9.62 5.6-14.507 8.348-1.39.783-1.422 1.375-.227 2.269a56.338 56.338 0 0 1 5.673 4.785 4 4 0 0 0 .8.639 3.512 3.512 0 0 0 2.816.086q18.705-4.843 37.511-9.558c1.91-.481 2.177-.994 1.219-2.018a82.534 82.534 0 0 0-14.918-12.618c-.152-.1-.3-.192-.441-.276z" class="cls-4" transform="translate(80.12 10.623)"/>
        <path id="Path_376" d="M1522.69-91.488h.006-.006m-6 .107q-.433 5.526-.845 11.055l-.286 3.812-.147 2.01-.09 1.234c-.971.062-1.952.126-2.938.195-3.659-6.259-6.919-11.818-10.176-17.3 4.494-.511 9.293-.842 14.482-1m7.36-4.187a3.067 3.067 0 0 0-1.486-.244 188.091 188.091 0 0 0-27.8 1.989c-1.542.242-2.175.556-1.572 1.569 4.549 7.625 9.021 15.265 13.484 22.9a1.716 1.716 0 0 0 .627.661 3.178 3.178 0 0 0 1.877.227c3.855-.336 7.742-.547 11.617-.81.475-.034.945-.077 1.552-.126a8 8 0 0 0 .259-1.116c.158-1.927.289-3.853.434-5.78.457-6.062.907-12.124 1.394-18.183.039-.479.013-.86-.385-1.09z" class="cls-4" transform="translate(40.358)"/>
        <path id="Path_377" d="M1505.282-89.831h.008-.008m-5.4 1.306c3.162 5.4 6.49 11.063 10.086 17.153q-1.3.4-2.577.8l-4.755-3.282c-5.044-3.481-10.227-7.06-15.5-10.674a132.93 132.93 0 0 1 12.746-4m4.573-5.26a2.657 2.657 0 0 0-1.924-.081 142.318 142.318 0 0 0-24.579 7.725c-1.375.584-1.424 1.039-.295 1.809 8.563 5.848 17.058 11.73 24.777 17.054 1.007.676 1.7 1.142 2.233 1.448a2.556 2.556 0 0 0 2.719.2c3.355-1.054 6.7-2.119 10.109-3.113 1.2-.349 1.484-.733 1.063-1.448q-6.777-11.463-13.486-22.941a1.748 1.748 0 0 0-.618-.652z" class="cls-4" transform="translate(22.034 2.067)"/>
        <path id="Path_378" d="M1499.874-62.679h.009-.009m-3.9-.3c.051.6.124 1.189.205 1.773q-15.213 2.024-30.414 4.069a32.865 32.865 0 0 1-.751-8.33c1 .079 2 .156 2.993.237q4.747.382 9.492.77c6.047.494 12.262 1 18.474 1.482m6.765-3.556a4.913 4.913 0 0 0-1.984-.436c-10.6-.8-21.177-1.689-31.765-2.542-3.541-.284-7.086-.55-10.98-.853a36.085 36.085 0 0 0 1.364 17.518 1.016 1.016 0 0 0 .462.594 3.186 3.186 0 0 0 1.9.1q20.334-2.729 40.677-5.44c1.409-.188 1.768-.577 1.633-1.39a35.215 35.215 0 0 1-.673-6.192 1.349 1.349 0 0 0-.633-1.364z" class="cls-4" transform="translate(0 28.963)"/>
        <path id="Path_379" d="M1579.888-63.223h.008-.008m-6.094.145a35.342 35.342 0 0 1-1.845 8.247l-3.064-.6q-2.463-.488-4.931-.971l-5.324-1.041c-5.435-1.063-11.02-2.157-16.622-3.233.143-.562.267-1.118.378-1.668 10.493-.229 21.068-.481 31.408-.731m7.356-4.238a3.334 3.334 0 0 0-1.623-.227q-21.017.5-42.035.975c-1.649.034-1.959.47-2.1 1.3a36.257 36.257 0 0 1-1.456 6.141c-.242.667-.135 1.069.357 1.353a5.131 5.131 0 0 0 1.512.455c8.617 1.638 17.2 3.331 25.8 5.01 4.492.877 8.97 1.777 13.469 2.639a18.238 18.238 0 0 0 2.151.152c.267-.419.432-.635.543-.86a38.529 38.529 0 0 0 3.774-16.176.765.765 0 0 0-.387-.761z" class="cls-4" transform="translate(86.848 32.173)"/>
        <path id="Path_380" d="M1536.52-52.5h.009-.009m25.851 15.553h.008-.008m-4.706-2.247l-.466.269a5.569 5.569 0 0 0-1.2.9l-2.091.894-7.368 3.154c-4.963-5.168-10.1-10.488-15.325-15.87q1.042-.494 2.087-1.009c7.494 3.6 15.393 7.379 24.359 11.658m9.785-.9c-.1-.058-.212-.115-.336-.175q-16.2-7.726-32.351-15.483a3.2 3.2 0 0 0-3.331.064c-2.568 1.362-5.245 2.668-8.031 3.881-1.422.618-1.551 1.135-.714 1.995q10.215 10.51 20.322 21.053a2.848 2.848 0 0 0 .629.511 2.579 2.579 0 0 0 2.448-.111q8.387-3.618 16.811-7.206c-.126-.1-.255-.19-.381-.287 1.61-.93 3.207-1.867 4.834-2.786.954-.541.915-.986.1-1.456z" class="cls-4" transform="translate(73.596 45.093)"/>
        <path id="Path_381" d="M1537.974-87.9h.006-.006m-5.084-1.035c-4.125 5.378-8.354 10.954-12.624 16.642-.883-.139-1.766-.274-2.641-.406q.045-.718.1-1.441.221-2.976.449-5.953c.269-3.532.547-7.159.8-10.8 4.913.5 9.522 1.142 13.922 1.954m9.079-2.553a5.251 5.251 0 0 0-1.4-.458 183.519 183.519 0 0 0-26.127-3.708c-2.1-.156-2.671.224-2.745 1.394-.417 6.637-.962 13.268-1.452 19.9-.124 1.683-.207 3.368-.306 4.967 4.2.646 8.171 1.176 12.051 1.884 1.875.34 2.763.152 3.545-.894q8.137-10.87 16.46-21.688c.526-.682.516-1.09-.021-1.4z" class="cls-4" transform="translate(59.674 .145)"/>
        <path id="Path_382" d="M1575.265-73.52h.007-.007m-5.145 1.324a40.658 40.658 0 0 1 3.325 8.134l-8.237.188q-11.462.263-22.926.539c-.218-.55-.444-1.084-.669-1.6 9.609-2.427 19.16-4.86 28.506-7.263m4.484-5.256a3.209 3.209 0 0 0-2.44-.017q-18.705 4.827-37.485 9.553c-1.542.389-1.792.851-1.368 1.743a49.262 49.262 0 0 1 2.495 6.04 1.539 1.539 0 0 0 .674.949 3.515 3.515 0 0 0 1.8.276c13.757-.346 27.519-.646 41.278-.971.622-.015 1.236-.12 2.553-.257a12.175 12.175 0 0 1-.536-1.542 43.483 43.483 0 0 0-6.187-14.959 2.375 2.375 0 0 0-.787-.817z" class="cls-4" transform="translate(86.073 20.624)"/>
        <path id="Path_383" d="M1521.1-46.818h.006-.006m-4.544-.019c1.482 6.025 2.972 11.993 4.411 17.732-5.025.086-9.727-.017-14.183-.306l1.441-3.573 1.864-4.623 1.27-3.13c.819-2.012 1.66-4.078 2.476-6.152.915.026 1.822.041 2.72.051m6.218-4.024a3.659 3.659 0 0 0-1.747-.28c-3.5 0-7.017-.013-10.5-.214-2.012-.115-2.754.265-3.16 1.33-1.463 3.81-3.04 7.608-4.573 11.409l-5.063 12.553a6.667 6.667 0 0 0 .949.3 183.682 183.682 0 0 0 29.255.774c1.42-.064 1.49-.509 1.328-1.159q-3-11.97-5.955-23.948a1.116 1.116 0 0 0-.537-.761z" class="cls-4" transform="translate(45.791 50.578)"/>
        <path id="Path_384" d="M1527.009-48.455h.006-.006m-4.15.917q7.111 7.406 14.272 14.8l.772.8c-3.866.932-7.993 1.728-12.434 2.393l-1.3-5.189-.947-3.8c-.7-2.829-1.424-5.737-2.181-8.63q.921-.176 1.816-.366m3.766-4.837a3.159 3.159 0 0 0-2.376-.111c-2.878.646-5.771 1.324-8.765 1.732-2.341.319-2.707.956-2.377 2.183 1.289 4.8 2.448 9.611 3.654 14.418.8 3.212 1.6 6.423 2.459 9.842a157.379 157.379 0 0 0 27.653-5.26c1.381-.411.956-.951.4-1.531-6.7-6.93-13.411-13.856-20.061-20.8a2.811 2.811 0 0 0-.583-.47z" class="cls-4" transform="translate(63.166 49.123)"/>
    </g>
</svg>
