<svg xmlns="http://www.w3.org/2000/svg" id="Group_836" width="420.423" height="277.42" viewBox="0 0 420.423 277.42">
    <defs>
        <style>
            .cls-4{fill:#613970}
        </style>
    </defs>
    <g id="Group_814">
        <path id="Path_331" fill="#f5f6fa" d="M778.587 631.2L988.8 509.821v-34.668L778.587 596.53z" transform="translate(-568.376 -353.777)"/>
        <path id="Path_332" fill="#dfdfea" d="M877.364 631.2L667.152 509.821v-34.668L877.364 596.53z" transform="translate(-667.152 -353.777)"/>
        <path id="Path_333" fill="#fff" d="M877.364 653.563l210.212-121.376-210.212-121.376-210.212 121.376z" transform="translate(-667.152 -410.811)"/>
    </g>
    <g id="Group_817" transform="translate(-160.53 -379.437)">
        <path id="Path_334" d="M455.143 518.339a2.572 2.572 0 0 0-1.52-2.145 8.029 8.029 0 0 0-7.271-.013 2.511 2.511 0 0 0-1.49 2.135l.1 16.112-29.595-17.085c-16.842-9.725-41.535-12.333-62.456-7.8 7.851-12.077 3.333-26.335-13.509-36.059L309.811 456.4l27.9.058c2.839.03 5.167-1.276 5.194-2.916s-2.25-2.993-5.089-3.019h-.142l-40.317-.084c-2.839-.007-5.132 1.318-5.121 2.957l.146 23.276c-.03 1.64 2.25 2.993 5.089 3.019s5.167-1.276 5.192-2.916v-.082l-.1-16.11 29.595 17.085c18.9 10.911 19.009 28.67.247 39.5l-37.689 21.759a4.339 4.339 0 0 0-.659.453 2.918 2.918 0 0 0-.487.518 2.118 2.118 0 0 0-.3.567 1.828 1.828 0 0 0-.075.294 1.562 1.562 0 0 0-.024.3 1.978 1.978 0 0 0 .028.3 2.094 2.094 0 0 0 .386.861 3 3 0 0 0 .5.52 5.3 5.3 0 0 0 1.918.973 7.88 7.88 0 0 0 1.46.283c.167.017.339.028.509.036a8.509 8.509 0 0 0 1.026-.015c.172-.011.341-.03.505-.05a7.385 7.385 0 0 0 1.855-.489 5.24 5.24 0 0 0 .657-.328l37.685-21.768c18.762-10.831 49.521-10.767 68.42.144l29.593 17.086-27.9-.058c-2.839-.028-5.167 1.276-5.194 2.916s2.25 2.993 5.089 3.019h.142l40.317.084c2.839.006 5.132-1.318 5.121-2.957z" class="cls-4"/>
        <path id="Path_335" d="M361.888 470.848c7.494 4.325 19.752 4.351 27.192.056s7.406-11.368-.1-15.7-19.764-4.346-27.192-.056-7.395 11.373.1 15.7zm19.85-11.461c3.554 2.051 3.556 5.278.045 7.3a13.8 13.8 0 0 1-12.652-.026c-3.56-2.057-3.58-5.263-.045-7.3a13.848 13.848 0 0 1 12.652.025z" class="cls-4" transform="translate(55.777 1.312)"/>
        <path id="Path_336" d="M328.128 474.113c2.506.782 5.62.249 6.958-1.192.03-.032.06-.066.088-.1a22.36 22.36 0 0 1 5.6-4.419c8.276-4.78 20.033-6.262 30.548-4.522.8 3.013 3.219 5.927 7.23 8.242a35.243 35.243 0 0 0 14.274 4.174c3.015 6.069.445 12.859-7.831 17.636a35.28 35.28 0 0 1-7.655 3.232c-2.545.717-3.586 2.493-2.328 3.968s4.346 2.089 6.889 1.372c.058-.017.114-.032.172-.051a47.2 47.2 0 0 0 10.219-4.308c11.982-6.915 15.023-17.1 9.073-25.723a3.544 3.544 0 0 0-1.119-.992 7.429 7.429 0 0 0-3.655-.895 22.2 22.2 0 0 1-10.8-2.6c-2.985-1.724-4.467-3.966-4.5-6.232-.015-1.215-1.308-2.306-3.268-2.757-14.929-3.436-32.574-1.679-44.554 5.237a29.811 29.811 0 0 0-7.46 5.9c-1.336 1.446-.387 3.25 2.119 4.03z" class="cls-4" transform="translate(28.905 5.934)"/>
    </g>
</svg>
