
<svg xmlns="http://www.w3.org/2000/svg" id="Group_836" width="420.423" height="277.42" viewBox="0 0 420.423 277.42">
    <defs>
        <style>
            .cls-4{fill:#3e81a8}
        </style>
    </defs>
    <g id="Group_814">
        <path id="Path_331" fill="#f5f6fa" d="M778.587 631.2L988.8 509.821v-34.668L778.587 596.53z" transform="translate(-568.376 -353.777)"/>
        <path id="Path_332" fill="#dfdfea" d="M877.364 631.2L667.152 509.821v-34.668L877.364 596.53z" transform="translate(-667.152 -353.777)"/>
        <path id="Path_333" fill="#fff" d="M877.364 653.563l210.212-121.376-210.212-121.376-210.212 121.376z" transform="translate(-667.152 -410.811)"/>
    </g>
    <g id="Group_825" transform="translate(113.709 61.343)">
        <path id="Path_358" d="M542.707 450.808a17.92 17.92 0 0 0 1.871 2.632c.17.293.171.487-.164.877l-8.728 6.211c-1.344.971-1.165 2.433.358 3.312l8.462 4.885a6.925 6.925 0 0 0 5.734.207l10.76-5.04a2.582 2.582 0 0 1 1.517-.094 38.429 38.429 0 0 0 4.56 1.08c.5.1.844.293.848.683l1.568 8.084c.177 1.266 2.207 2.244 4.4 2.346l12.141.025c2.36.005 4.041-.966 4.37-2.327l1.467-8.078a1.122 1.122 0 0 1 .838-.68c1.515-.288 3.2-.674 4.546-1.061a2.79 2.79 0 0 1 1.518.1l10.824 5.086a6.907 6.907 0 0 0 5.731-.184l8.4-4.85c1.511-.874 1.672-2.334.316-3.31l-9.145-6.25a.613.613 0 0 1-.175-.876 12.431 12.431 0 0 0 1.84-2.625c.166-.291.5-.486 1.177-.484l13.989-.847c2.191-.092 3.87-1.257 4.031-2.523l-.044-7.009c-.009-1.363-1.7-2.341-4.062-2.54l-14-.906c-.507-.1-1.013-.2-1.183-.489a18.063 18.063 0 0 0-1.871-2.632c-.171-.293-.171-.487.162-.876l8.73-6.213c1.342-.971 1.165-2.431-.358-3.31l-8.462-4.887a6.926 6.926 0 0 0-5.734-.207l-10.759 5.235a2.6 2.6 0 0 1-1.518.1 38.5 38.5 0 0 0-4.558-1.08c-.507-.1-.846-.295-.847-.683l-1.569-8.084c-.177-1.266-2.205-2.244-4.4-2.346l-12.141-.025c-2.362-.005-4.041.964-4.369 2.327l-1.467 8.077a1.125 1.125 0 0 1-.839.68c-1.517.289-3.2.674-4.546 1.061a2.774 2.774 0 0 1-1.518-.1l-10.824-5.084a6.911 6.911 0 0 0-5.732.184l-8.4 4.85c-1.513.872-1.672 2.332-.318 3.308l8.808 6.25a.614.614 0 0 1 .175.876 12.359 12.359 0 0 0-1.838 2.625c-.168.291-.5.485-1.178.484l-13.991.847c-2.191.094-3.87 1.257-4.03 2.523l.044 7.011c.009 1.363 1.7 2.339 4.062 2.539l14 .906q1.264-.149 1.521.289zm51.5-15.663c8.123 4.691 8.17 12.284.106 16.939s-21.217 4.629-29.34-.062-8.172-12.282-.108-16.939 21.217-4.627 29.341.062z" class="cls-4" transform="translate(-483.274 -387.97)"/>
        <path id="Path_359" d="M536.769 418.95c32.929-19.012 86.552-18.9 119.721.251l1.185.683-9.779-.019c-3.374-.007-5.893 1.448-5.881 3.395a2.853 2.853 0 0 0 1.7 2.339 7.568 7.568 0 0 0 4.053.983l23.945.049c3.372.007 5.893-1.448 5.881-3.395l-.088-13.825c-.011-1.945-2.549-3.413-5.923-3.42s-5.891 1.449-5.879 3.395l.035 5.648-1.017-.586c-37.738-21.789-98.779-21.918-136.247-.286C506.8 426.675 496.8 444.566 501.8 462a3.1 3.1 0 0 0 1.529 1.854 8.379 8.379 0 0 0 5.065.983c3.2-.286 5.385-1.935 4.866-3.787-4.146-15.386 4.524-31.139 23.509-42.1z" class="cls-4" transform="translate(-500.532 -398.022)"/>
        <path id="Path_360" d="M658.542 473.873c21.672-12.513 31.677-30.406 26.677-47.841-.517-1.852-3.391-3.123-6.594-2.837s-5.383 1.935-4.866 3.785c4.144 15.391-4.525 31.144-23.51 42.105-32.931 19.012-86.552 18.9-119.723-.251l-1.185-.685 9.78.021c3.372.007 5.893-1.448 5.881-3.395s-2.551-3.413-5.925-3.42l-23.943-.051c-3.374-.007-5.893 1.448-5.881 3.395l.086 13.825a2.853 2.853 0 0 0 1.7 2.339 7.572 7.572 0 0 0 4.053.983c3.372.007 5.893-1.449 5.881-3.395l-.035-5.648 1.354.782c37.742 21.791 98.784 21.915 136.25.288z" class="cls-4" transform="translate(-493.856 -378.784)"/>
    </g>
</svg>
