<svg width="40" height="40" viewBox="0 0 40 40" fill="none" xmlns="http://www.w3.org/2000/svg">
<circle cx="20" cy="20" r="20" fill="#485CD5"/>
<g clip-path="url(#clip0_937_2103)">
<path d="M23 11.6933L28.3058 17C28.5402 17.2344 28.6718 17.5523 28.6718 17.8838C28.6718 18.2152 28.5402 18.5331 28.3058 18.7675L18.5833 28.4867C18.496 28.5743 18.3846 28.634 18.2633 28.6582C18.142 28.6824 18.0162 28.6701 17.9019 28.6228C17.7876 28.5755 17.6899 28.4954 17.6212 28.3925C17.5524 28.2897 17.5158 28.1687 17.5158 28.045L17.2575 22.7417L11.9542 22.4825C11.8306 22.4824 11.7099 22.4457 11.6072 22.377C11.5045 22.3083 11.4245 22.2108 11.3773 22.0966C11.33 21.9825 11.3176 21.8569 11.3417 21.7357C11.3658 21.6146 11.4252 21.5033 11.5125 21.4158L21.235 11.6933C21.4693 11.4598 21.7867 11.3286 22.1175 11.3286C22.4483 11.3286 22.7657 11.4598 23 11.6933Z" stroke="white" stroke-width="1.5" stroke-linecap="round" stroke-linejoin="round"/>
</g>
<defs>
<clipPath id="clip0_937_2103">
<rect width="20" height="20" fill="white" transform="translate(10 10)"/>
</clipPath>
</defs>
</svg>
