<svg width="40" height="40" viewBox="0 0 40 40" fill="none" xmlns="http://www.w3.org/2000/svg">
<circle cx="20" cy="20" r="20" fill="#485CD5"/>
<g clip-path="url(#clip0_937_2322)">
<path d="M17.8034 25.4167L17.0267 26.1933C16.3234 26.8966 15.3696 27.2917 14.375 27.2917C13.3805 27.2917 12.4266 26.8966 11.7234 26.1933C11.0201 25.4901 10.625 24.5362 10.625 23.5417C10.625 22.5471 11.0201 21.5933 11.7234 20.89L15.7009 16.9117C16.3677 16.2433 17.2621 15.8511 18.2055 15.8133C19.1489 15.7755 20.0718 16.095 20.7899 16.7079C21.5081 17.3209 21.9686 18.1821 22.0795 19.1197C22.1905 20.0573 21.9436 21.0022 21.3884 21.7658" stroke="white" stroke-width="1.5" stroke-linecap="round" stroke-linejoin="round"/>
<path d="M22.3484 14.6391L22.9734 14.0141C23.6766 13.3109 24.6305 12.9158 25.625 12.9158C26.6196 12.9158 27.5734 13.3109 28.2767 14.0141C28.98 14.7174 29.3751 15.6712 29.3751 16.6658C29.3751 17.6604 28.98 18.6142 28.2767 19.3175L24.2992 23.295C23.6322 23.963 22.7378 24.355 21.7945 24.3925C20.8512 24.43 19.9285 24.1104 19.2105 23.4975C18.4925 22.8845 18.0322 22.0233 17.9213 21.0858C17.8105 20.1483 18.0573 19.2035 18.6125 18.44" stroke="white" stroke-width="1.5" stroke-linecap="round" stroke-linejoin="round"/>
</g>
<defs>
<clipPath id="clip0_937_2322">
<rect width="20" height="20" fill="white" transform="translate(10 10)"/>
</clipPath>
</defs>
</svg>
