<?xml version="1.0" encoding="UTF-8"?><svg id="Layer_1" xmlns="http://www.w3.org/2000/svg" viewBox="0 0 577.94 259.5"><defs><style>.cls-1{fill:#ffa600;}.cls-2{fill:#b0ef00;}</style></defs><path class="cls-1" d="M66.46,88.02h-12.33v-8.62c-5.03,6.35-12.57,10.42-22.63,10.42C12.69,89.81,0,75.44,0,56.88S12.57,23.71,31.49,23.71c10.06,0,17.48,4.07,22.51,10.42V0h12.45V88.02Zm-32.81-9.58c12.21,0,20.84-9.1,20.84-21.55s-8.62-21.91-20.84-21.91-20.84,9.46-20.84,21.91,8.14,21.55,20.84,21.55Z"/><path class="cls-1" d="M96.4,25.75v62.27h-12.45V25.75h12.45Z"/><path class="cls-1" d="M174.35,25.75v60.71c0,17.84-12.69,29.1-32.93,29.1-15.93,0-26.58-6.23-31.37-18.08l10.66-7.19c3.11,9.58,10.18,14.61,20.84,14.61,12.57,0,20.36-7.42,20.36-19.28v-8.5c-4.91,5.87-12.21,9.7-21.43,9.7-18.8,0-30.9-13.77-30.9-31.37s12.1-31.73,30.9-31.73c9.22,0,16.53,3.83,21.43,9.7v-7.66h12.45Zm-31.73,49.82c11.98,0,19.76-8.74,19.76-20.12,0-11.97-7.78-20.48-19.76-20.48s-20.24,8.74-20.24,20.48,7.78,20.12,20.24,20.12Z"/><path class="cls-2" d="M203.68,25.75v62.27h-12.45V25.75h12.45Z"/><path class="cls-1" d="M287.38,52.93c18.8-3.23,21.43-3.95,21.43-9.94,0-6.59-6.11-9.34-13.77-9.34-8.98,0-15.69,5.03-15.69,14.37l-11.26-4.31c1.68-11.86,12.69-20,26.94-20,16.05,0,25.99,7.42,25.99,21.2v31.13l2.04,11.98h-10.9l-2.75-7.9c-4.67,6.59-12.81,9.7-21.43,9.7-12.45,0-21.08-7.07-21.08-17.96s8.14-16.64,20.48-18.92Zm3.35,27.18c11.74,0,18.08-7.42,18.08-17.12v-5.99c-1.92,1.68-5.63,2.28-17.96,4.55-6.23,1.32-10.78,3.71-10.78,9.7,0,5.03,3.83,8.86,10.66,8.86Z"/><path class="cls-1" d="M350.85,0V88.02h-12.45V0h12.45Z"/><path class="cls-1" d="M79.56,222.38c18.8-3.23,21.43-3.95,21.43-9.94,0-6.59-6.11-9.34-13.77-9.34-8.98,0-15.69,5.03-15.69,14.37l-11.26-4.31c1.68-11.86,12.69-20,26.94-20,16.05,0,25.99,7.42,25.99,21.2v31.13l2.04,11.98h-10.9l-2.75-7.9c-4.67,6.59-12.81,9.7-21.43,9.7-12.45,0-21.08-7.07-21.08-17.96s8.14-16.64,20.48-18.92Zm3.35,27.18c11.74,0,18.08-7.42,18.08-17.12v-5.99c-1.92,1.68-5.63,2.28-17.96,4.55-6.23,1.32-10.78,3.71-10.78,9.7,0,5.03,3.83,8.86,10.66,8.86Z"/><path class="cls-1" d="M143.02,169.45v88.02h-12.45v-88.02h12.45Z"/><path class="cls-1" d="M173.56,169.45v88.02h-12.45v-88.02h12.45Z"/><path class="cls-2" d="M203.49,195.2v62.27h-12.45v-62.27h12.45Z"/><path class="cls-1" d="M238.1,222.38c18.8-3.23,21.43-3.95,21.43-9.94,0-6.59-6.11-9.34-13.77-9.34-8.98,0-15.69,5.03-15.69,14.37l-11.26-4.31c1.68-11.86,12.69-20,26.94-20,16.05,0,25.99,7.42,25.99,21.2v31.13l2.04,11.98h-10.9l-2.75-7.9c-4.67,6.59-12.81,9.7-21.43,9.7-12.45,0-21.08-7.07-21.08-17.96s8.14-16.64,20.48-18.92Zm3.35,27.18c11.74,0,18.08-7.42,18.08-17.12v-5.99c-1.92,1.68-5.63,2.28-17.96,4.55-6.23,1.32-10.78,3.71-10.78,9.7,0,5.03,3.83,8.86,10.66,8.86Z"/><path class="cls-1" d="M300.96,195.2v8.62c4.19-7.07,10.9-10.66,20.24-10.66,15.09,0,23.47,9.7,23.47,26.46v37.84h-12.45v-36.04c0-11.38-4.67-16.88-14.25-16.88-10.66,0-17,7.19-17,19.52v33.41h-12.45v-62.27h12.45Z"/><path class="cls-1" d="M418.55,210.16l-10.9,6.59c-2.04-7.78-9.34-12.21-17.36-12.21-12.1,0-20.36,8.38-20.36,21.67s7.9,21.55,20.36,21.55c8.38,0,15.57-5.15,17.48-11.97l10.78,6.47c-4.19,9.82-15.21,17-28.26,17-19.64,0-33.17-13.29-33.17-33.05s14.01-33.05,33.17-33.05c13.17,0,24.31,7.19,28.26,17Z"/><path class="cls-1" d="M256.49,25.75v10.9h-17.72v32.09c0,8.02,3.11,9.46,9.58,9.46,1.92,0,5.15-.36,7.07-.84v11.02c-1.92,.72-6.95,1.2-8.86,1.2-13.17,0-20.24-5.39-20.24-19.16V36.64h-11.14v-10.9h41.31Z"/><path class="cls-1" d="M577.94,109.45v10.9h-17.72v32.09c0,8.02,3.11,9.46,9.58,9.46,1.92,0,5.15-.36,7.07-.84v11.02c-1.92,.72-6.95,1.2-8.86,1.2-13.17,0-20.24-5.39-20.24-19.16v-33.77h-11.14v-10.9h41.31Z"/><path class="cls-2" d="M203.68,110.11v62.27h-12.45v-62.27h12.45Z"/><path class="cls-1" d="M233.02,110.11v8.5c4.07-7.66,11.02-10.54,18.2-10.54,8.86,0,15.21,4.31,18.8,11.14,3.59-6.59,10.66-11.14,20.24-11.14,13.41,0,22.03,8.38,22.03,24.19v40.12h-12.45v-37.84c0-10.3-4.55-15.09-12.81-15.09-9.46,0-14.37,6.59-14.37,17.84v35.09h-12.45v-37.72c0-10.42-4.67-15.21-12.57-15.21-9.58,0-14.37,7.42-14.61,19.04v33.89h-12.45v-62.27h12.45Z"/><path class="cls-1" d="M341.03,163.88v19.64h-12.45V110.11h12.45v8.26c5.03-6.23,12.57-10.3,22.63-10.3,18.8,0,31.49,14.49,31.49,33.17s-12.69,32.93-31.61,32.93c-10.3,0-17.6-4.07-22.51-10.3Zm20.48-1.08c12.69,0,20.72-9.22,20.72-21.55s-8.02-21.91-20.72-21.91-20.84,9.34-20.84,21.91,8.5,21.55,20.84,21.55Z"/><path class="cls-1" d="M425.93,137.29c18.8-3.23,21.43-3.95,21.43-9.94,0-6.59-6.11-9.34-13.77-9.34-8.98,0-15.69,5.03-15.69,14.37l-11.26-4.31c1.68-11.86,12.69-20,26.94-20,16.05,0,25.99,7.42,25.99,21.2v31.13l2.04,11.98h-10.9l-2.75-7.9c-4.67,6.59-12.81,9.7-21.43,9.7-12.45,0-21.08-7.07-21.08-17.96s8.14-16.64,20.48-18.92Zm3.35,27.18c11.74,0,18.08-7.42,18.08-17.12v-5.99c-1.92,1.68-5.63,2.28-17.96,4.55-6.23,1.32-10.78,3.71-10.78,9.7,0,5.03,3.83,8.86,10.66,8.86Z"/><path class="cls-1" d="M534.06,125.08l-10.9,6.59c-2.04-7.78-9.34-12.21-17.36-12.21-12.1,0-20.36,8.38-20.36,21.67s7.9,21.55,20.36,21.55c8.38,0,15.57-5.15,17.48-11.97l10.78,6.47c-4.19,9.82-15.21,17-28.26,17-19.64,0-33.17-13.29-33.17-33.05s14.01-33.05,33.17-33.05c13.17,0,24.31,7.19,28.26,17Z"/><path class="cls-1" d="M488.36,225.49c0,1.56,0,3.11-.24,5.03h-47.54c1.32,12.45,9.1,18.32,19.04,18.32,9.22,0,15.21-3.71,18.68-11.62l9.22,8.02c-5.87,9.82-16.76,14.25-28.14,14.25-19.4,0-31.85-13.53-31.85-32.81s13.05-33.29,31.01-33.29,29.82,13.05,29.82,32.09Zm-13.41-4.31c0-10.42-6.35-17.12-16.65-17.12-8.74,0-15.93,5.63-17.6,17.12h34.25Z"/></svg>