<svg width="108" height="48" viewBox="0 0 108 48" fill="none" xmlns="http://www.w3.org/2000/svg">
<g clip-path="url(#clip0_1000_4234)">
<path d="M12.4187 16.2807H10.1134V14.6854C9.17298 15.8588 7.76322 16.612 5.8841 16.612C2.37262 16.612 0 13.9544 0 10.5213C0 7.08821 2.35019 4.38615 5.88583 4.38615C7.76494 4.38615 9.15228 5.13938 10.0927 6.31278V0H12.4205V16.2807H12.4187ZM6.28788 14.5078C8.57077 14.5078 10.1824 12.8237 10.1824 10.5213C10.1824 8.21891 8.57077 6.46821 6.28788 6.46821C4.00498 6.46821 2.39333 8.21891 2.39333 10.5213C2.39333 12.8237 3.91526 14.5078 6.28788 14.5078Z" fill="#2E3192"/>
<path d="M18.0129 4.76196V16.2807H15.6852V4.76196H18.0129Z" fill="#2E3192"/>
<path d="M32.58 4.76187V15.992C32.58 19.2918 30.2074 21.3739 26.4267 21.3739C23.4502 21.3739 21.4589 20.2227 20.5633 18.0296L22.5546 16.7008C23.1361 18.4737 24.4562 19.4029 26.4492 19.4029C28.7994 19.4029 30.254 18.0296 30.254 15.8366V14.2635C29.336 15.3498 27.9711 16.0569 26.249 16.0569C22.7358 16.0569 20.4753 13.5103 20.4753 10.2531C20.4753 6.99593 22.7358 4.38269 26.249 4.38269C27.9728 4.38269 29.3377 5.09151 30.254 6.17609V4.75845H32.5817L32.58 4.76187ZM26.6493 13.9765C28.8874 13.9765 30.342 12.3591 30.342 10.2548C30.342 8.03952 28.8874 6.46645 26.6493 6.46645C24.4113 6.46645 22.8669 8.08393 22.8669 10.2548C22.8669 12.4257 24.3216 13.9765 26.6493 13.9765Z" fill="#2E3192"/>
<path d="M53.7041 9.79023C57.2173 9.19243 57.7091 9.0592 57.7091 7.95242C57.7091 6.73461 56.5685 6.22392 55.1363 6.22392C53.4573 6.22392 52.2046 7.15478 52.2046 8.88157L50.1012 8.08393C50.4152 5.89086 52.4738 4.3844 55.1363 4.3844C58.1353 4.3844 59.992 5.75763 59.992 8.30427V14.0637L60.3716 16.2789H58.3354L57.8212 14.8169C56.9481 16.0347 55.4262 16.6103 53.8162 16.6103C51.4885 16.6103 49.8768 15.3037 49.8768 13.2882C49.8768 11.2728 51.3988 10.2087 53.7041 9.78852V9.79023ZM54.3305 14.8186C56.5236 14.8186 57.7091 13.4454 57.7091 11.652V10.5452C57.3519 10.856 56.6582 10.9653 54.3529 11.3872C53.1899 11.6315 52.3392 12.0738 52.3392 13.1806C52.3392 14.1115 53.0553 14.8203 54.3305 14.8203V14.8186Z" fill="#2E3192"/>
<path d="M65.562 0V16.2807H63.2343V0H65.562Z" fill="#2E3192"/>
<path d="M14.8673 41.1339C18.3805 40.5361 18.8723 40.4028 18.8723 39.296C18.8723 38.0782 17.7317 37.5675 16.2995 37.5675C14.6205 37.5675 13.3678 38.4984 13.3678 40.2252L11.2644 39.4276C11.5784 37.2345 13.637 35.728 16.2995 35.728C19.2985 35.728 21.1552 37.1013 21.1552 39.6479V45.4073L21.5348 47.6226H19.4987L18.9844 46.1605C18.1113 47.3783 16.5894 47.9539 14.9795 47.9539C12.6517 47.9539 11.04 46.6473 11.04 44.6318C11.04 42.6164 12.562 41.5523 14.8673 41.1322V41.1339ZM15.4937 46.1622C17.6868 46.1622 18.8723 44.789 18.8723 42.9956V41.8888C18.5151 42.1997 17.8214 42.309 15.5161 42.7308C14.3531 42.9751 13.5024 43.4175 13.5024 44.5242C13.5024 45.4551 14.2185 46.1639 15.4937 46.1639V46.1622Z" fill="#2E3192"/>
<path d="M26.7269 31.3435V47.6242H24.3992V31.3435H26.7269Z" fill="#2E3192"/>
<path d="M32.4333 31.3435V47.6242H30.1056V31.3435H32.4333Z" fill="#2E3192"/>
<path d="M44.4931 41.1339C48.0064 40.5361 48.4981 40.4028 48.4981 39.296C48.4981 38.0782 47.3575 37.5675 45.9253 37.5675C44.2464 37.5675 42.9937 38.4984 42.9937 40.2252L40.8902 39.4276C41.2043 37.2345 43.2628 35.728 45.9253 35.728C48.9243 35.728 50.781 37.1013 50.781 39.6479V45.4073L51.1606 47.6226H49.1245L48.6103 46.1605C47.7372 47.3783 46.2152 47.9539 44.6053 47.9539C42.2776 47.9539 40.6659 46.6473 40.6659 44.6318C40.6659 42.6164 42.1878 41.5523 44.4931 41.1322V41.1339ZM45.1195 46.1622C47.3127 46.1622 48.4981 44.789 48.4981 42.9956V41.8888C48.1409 42.1997 47.4473 42.309 45.1419 42.7308C43.9789 42.9751 43.1282 43.4175 43.1282 44.5242C43.1282 45.4551 43.8443 46.1639 45.1195 46.1639V46.1622Z" fill="#2E3192"/>
<path d="M56.2406 36.1055V37.7008C57.024 36.3941 58.2767 35.7297 60.023 35.7297C62.8425 35.7297 64.4093 37.5231 64.4093 40.6249V47.6243H62.0816V40.9562C62.0816 38.852 61.2084 37.8323 59.419 37.8323C57.4278 37.8323 56.2406 39.1611 56.2406 41.443V47.6226H53.9128V36.1038H56.2406V36.1055Z" fill="#2E3192"/>
<path d="M78.2154 38.8742L76.1792 40.092C75.7996 38.6521 74.433 37.8323 72.9352 37.8323C70.6748 37.8323 69.1304 39.3832 69.1304 41.841C69.1304 44.2988 70.6075 45.8274 72.9352 45.8274C74.502 45.8274 75.8445 44.8744 76.2017 43.6122L78.2154 44.8078C77.432 46.6234 75.3734 47.9539 72.9335 47.9539C69.2633 47.9539 66.7354 45.4961 66.7354 41.841C66.7354 38.1858 69.353 35.728 72.9335 35.728C75.3941 35.728 77.4769 37.0569 78.2154 38.8742Z" fill="#2E3192"/>
<path d="M47.9304 4.76196V6.77741H44.6191V12.7144C44.6191 14.1987 45.2006 14.4651 46.4102 14.4651C46.7674 14.4651 47.3731 14.3985 47.7302 14.3097V16.3473C47.3713 16.4806 46.4326 16.5694 46.0737 16.5694C43.6114 16.5694 42.2913 15.5719 42.2913 13.0253V6.77741H40.2103V4.76196H47.9304Z" fill="#2E3192"/>
<path d="M108 20.245V22.2604H104.689V28.1975C104.689 29.6817 105.27 29.9482 106.48 29.9482C106.837 29.9482 107.443 29.8815 107.8 29.7927V31.8304C107.441 31.9636 106.502 32.0524 106.143 32.0524C103.681 32.0524 102.361 31.0549 102.361 28.5083V22.2621H100.28V20.2467H108V20.245Z" fill="#2E3192"/>
<path d="M43.5441 20.3679V21.941C44.305 20.5234 45.6027 19.9922 46.9451 19.9922C48.6016 19.9922 49.7871 20.7898 50.4583 22.052C51.1296 20.8342 52.4496 19.9922 54.2407 19.9922C56.7462 19.9922 58.3579 21.5431 58.3579 24.4672V31.8867H56.0301V24.8873C56.0301 22.9829 55.1794 22.0964 53.6351 22.0964C51.8664 22.0964 50.9501 23.3143 50.9501 25.3963V31.8867H48.6224V24.9095C48.6224 22.9829 47.7492 22.0964 46.2722 22.0964C44.4811 22.0964 43.5872 23.4697 43.5424 25.6183V31.8867H41.2146V20.3679H43.5424H43.5441Z" fill="#2E3192"/>
<path d="M63.7278 30.3119V33.9449H61.4V20.3679H63.7278V21.8966C64.6682 20.7454 66.078 19.9922 67.9571 19.9922C71.4703 19.9922 73.8429 22.672 73.8429 26.1273C73.8429 29.5826 71.4703 32.2181 67.9347 32.2181C66.0107 32.2181 64.6458 31.4648 63.7278 30.3136V30.3119ZM67.555 30.1121C69.9277 30.1121 71.4272 28.4058 71.4272 26.1256C71.4272 23.8454 69.9277 22.0725 67.555 22.0725C65.1824 22.0725 63.6605 23.801 63.6605 26.1256C63.6605 28.4502 65.2497 30.1121 67.555 30.1121Z" fill="#2E3192"/>
<path d="M79.5924 25.3946C83.1056 24.7968 83.5974 24.6636 83.5974 23.5568C83.5974 22.339 82.4568 21.8283 81.0246 21.8283C79.3456 21.8283 78.0929 22.7592 78.0929 24.4859L75.9895 23.6883C76.3035 21.4952 78.3621 19.9888 81.0246 19.9888C84.0236 19.9888 85.8803 21.362 85.8803 23.9086V29.668L86.2599 31.8833H84.2238L83.7095 30.4213C82.8364 31.6391 81.3145 32.2147 79.7046 32.2147C77.3768 32.2147 75.7651 30.908 75.7651 28.8926C75.7651 26.8771 77.2871 25.8131 79.5924 25.3929V25.3946ZM80.2188 30.423C82.4119 30.423 83.5974 29.0497 83.5974 27.2563V26.1495C83.2402 26.4604 82.5465 26.5697 80.2412 26.9916C79.0782 27.2358 78.2275 27.6782 78.2275 28.785C78.2275 29.7158 78.9436 30.4247 80.2188 30.4247V30.423Z" fill="#2E3192"/>
<path d="M99.7985 23.1366L97.7624 24.3544C97.3828 22.9146 96.0161 22.0947 94.5184 22.0947C92.2579 22.0947 90.7135 23.6456 90.7135 26.1034C90.7135 28.5612 92.1906 30.0899 94.5184 30.0899C96.0852 30.0899 97.4276 29.1368 97.7848 27.8746L99.7985 29.0702C99.0151 30.8858 96.9566 32.2164 94.5166 32.2164C90.8464 32.2164 88.3185 29.7585 88.3185 26.1034C88.3185 22.4483 90.9361 19.9905 94.5166 19.9905C96.9773 19.9905 99.06 21.3193 99.7985 23.1366Z" fill="#2E3192"/>
<path d="M91.2605 41.7095C91.2605 41.9981 91.2605 42.2851 91.2156 42.6403H82.3325C82.5793 44.9444 84.0339 46.029 85.8906 46.029C87.6144 46.029 88.7325 45.3424 89.3813 43.8804L91.1052 45.3646C90.0094 47.1802 87.9716 48.0001 85.8457 48.0001C82.2203 48.0001 79.8926 45.4978 79.8926 41.9315C79.8926 38.3652 82.3325 35.7742 85.6887 35.7742C89.0449 35.7742 91.2605 38.1893 91.2605 41.7112V41.7095ZM88.755 40.9118C88.755 38.9852 87.5695 37.7452 85.6438 37.7452C84.0097 37.7452 82.6672 38.7854 82.3549 40.9118H88.755Z" fill="#2E3192"/>
<path d="M38.0615 4.76184V16.2806H35.7338V4.76184H38.0615Z" fill="#FF8700"/>
<path d="M38.0254 36.1057V47.6245H35.6976V36.1057H38.0254Z" fill="#FF8700"/>
<path d="M38.0615 20.3677V31.8864H35.7338V20.3677H38.0615Z" fill="#FF8700"/>
</g>
<defs>
<clipPath id="clip0_1000_4234">
<rect width="108" height="48" fill="white"/>
</clipPath>
</defs>
</svg>
