<?xml version="1.0" encoding="UTF-8" standalone="no"?>
<!-- Created with Inkscape (http://www.inkscape.org/) -->

<svg
   width="51.940224mm"
   height="18.520834mm"
   viewBox="0 0 51.940224 18.520834"
   version="1.1"
   id="svg1"
   xmlns:inkscape="http://www.inkscape.org/namespaces/inkscape"
   xmlns:sodipodi="http://sodipodi.sourceforge.net/DTD/sodipodi-0.dtd"
   xmlns="http://www.w3.org/2000/svg"
   xmlns:svg="http://www.w3.org/2000/svg">
  <sodipodi:namedview
     id="namedview1"
     pagecolor="#ffffff"
     bordercolor="#000000"
     borderopacity="0.25"
     inkscape:showpageshadow="2"
     inkscape:pageopacity="0.0"
     inkscape:pagecheckerboard="0"
     inkscape:deskcolor="#d1d1d1"
     inkscape:document-units="mm" />
  <defs
     id="defs1">
    <clipPath
       id="clip0_937_1898">
      <rect
         width="105"
         height="30"
         fill="#ffffff"
         id="rect25"
         x="0"
         y="0" />
    </clipPath>
  </defs>
  <g
     inkscape:label="Layer 1"
     inkscape:groupmode="layer"
     id="layer1"
     transform="translate(-30.427083,-141.81666)">
    <g
       id="g2"
       transform="matrix(0.32664609,0,0,0.32664609,63.846472,141.81667)">&#10;    <path
   class="st0"
   d="M 28.3,56.7 C 12.7,56.7 0,44 0,28.3 0,12.6 12.7,0 28.3,0 44,0 56.7,12.7 56.7,28.3 56.7,43.9 44,56.7 28.3,56.7 Z M 28.2,17.2 c 0,0 2.3,2.4 2.3,4.4 0,2.1 -1.6,2.6 -2.2,2.6 h -0.2 c -0.6,0 -2.2,-0.5 -2.2,-2.6 0,-2 2.3,-4.4 2.3,-4.4 z M 6.9,29.9 h 2.6 v -4.8 h 4.3 v -2 H 9.5 V 20.4 H 14 v -2 H 6.9 Z M 30.6,17.5 h 2.7 L 30.1,6.1 h -3.5 l -3.3,11.4 h 2.5 l 0.7,-2.6 h 3.3 z M 29.4,13 H 27 l 1.1,-5 h 0.2 z m 12,11.2 c 0,3.4 1.6,5.9 4.8,5.9 3.3,0 4.9,-2.6 4.9,-5.9 0,-3.4 -1.6,-5.9 -4.9,-5.9 -3.2,0 -4.8,2.6 -4.8,5.9 z m 2.8,0 c 0,-2.2 0.5,-4 2.1,-4 1.6,0 2.1,1.8 2.1,4 0,2.2 -0.6,4 -2.1,4 -1.6,0 -2.1,-1.8 -2.1,-4 z M 27.1,53.5 c 0.2,-1.1 0.3,-2.9 0.3,-5 v -0.3 c 0,-2.9 -0.1,-3.9 -2.1,-4.6 -3,-1 -4.3,-4.4 -3.6,-8.6 L 11.7,9.4 C 6.5,14 3.1,20.8 3.1,28.3 c 0,13.5 10.7,24.6 24,25.2 z m 1.2,-16.3 c -4,-0.9 -5.5,-4.6 -5.5,-7.8 L 14,7.6 c -0.6,0.4 -1.1,0.8 -1.7,1.3 2,4.6 10.7,25.3 10.7,25.3 1.5,3.7 4.4,2.5 5,5.6 0.2,0.7 0.2,1.1 0.2,1.1 h 0.3 c 0,0 0,-0.3 0.2,-1.1 0.7,-3.1 3.5,-1.8 5,-5.6 0,0 8.7,-20.7 10.7,-25.3 C 43.9,8.5 43.3,8 42.7,7.6 l -8.8,21.7 c 0,3.3 -1.5,6.9 -5.6,7.9 z m 0,-6.6 C 26.6,30.2 24.5,28.5 24.2,26.4 24.1,25.6 24,25.3 24.1,23.7 L 16.4,6.1 c -0.6,0.3 -1.2,0.7 -1.8,1.1 2.3,5.2 9.4,21.1 9.4,21.1 1.1,2.4 3.1,2.4 3.8,3.8 0.4,0.8 0.4,1.6 0.5,1.6 h 0.3 c 0,-0.1 0,-0.8 0.5,-1.6 0.7,-1.4 2.6,-1.5 3.8,-3.8 0,0 7.1,-15.9 9.4,-21.1 C 41.7,6.8 41.1,6.4 40.5,6.1 l -7.7,17.5 c 0.1,1.6 0,1.9 -0.1,2.7 -0.5,2.2 -2.6,3.9 -4.4,4.3 z m 0.1,-3 0.1,-1 c 0.5,-2.2 2.1,-1.9 3.2,-4.1 0,-0.1 5.5,-11.8 7.8,-16.7 -3.4,-1.7 -7.2,-2.7 -11.2,-2.7 -4,0 -7.9,1 -11.2,2.7 2.3,4.9 7.8,16.7 7.8,16.7 1.1,2.2 2.7,1.9 3.2,4.1 l 0.1,1 z m 25.2,0.7 C 53.6,20.8 50.3,14 45,9.4 L 34.9,35.1 c 0.7,4.2 -0.6,7.6 -3.6,8.6 -2,0.6 -2.1,1.6 -2.1,4.6 v 0.3 c 0,2.1 0.2,3.9 0.3,5 13.4,-0.7 24.1,-11.8 24.1,-25.3 z m -42.5,7.5 0.7,1.4 c 0.3,0.6 0.7,1.2 0.7,1.2 l -0.7,0.4 c 0,0 -0.5,-0.8 -1,-1.8 -0.1,0.1 -0.9,0.5 -1.1,0.5 0.1,0.1 0.9,1.7 0.9,1.7 L 10,39.6 C 10,39.6 9.2,38 9.1,37.9 9,38 7.2,38.9 7.2,38.9 L 6.8,38 Z m 2.7,4.3 0.6,0.7 -3.7,3.1 -0.6,-0.7 z m 3.4,3.2 0.7,0.5 -0.9,5.1 -0.8,-0.5 c 0,0 0.2,-1 0.2,-1.1 0,0 -0.5,-0.3 -1,-0.7 -0.5,-0.3 -0.9,-0.7 -1,-0.8 -0.1,0.1 -1,0.6 -1,0.6 L 12.7,45.8 Z M 15,45.5 c 0.1,0.1 0.4,0.3 0.7,0.6 0.3,0.2 0.7,0.4 0.8,0.5 0,-0.2 0.4,-1.9 0.5,-2.2 -0.3,0.1 -1.8,1 -2,1.1 z m 5.2,-0.3 c 0,0 0.8,0.4 1.9,0.8 0.8,0.3 1.4,0.5 2,0.6 l -0.2,0.7 c 0,0 -0.6,-0.1 -1.6,-0.4 -0.1,0.2 -1.3,3.8 -1.3,3.8 l -0.9,-0.3 c 0,0 1.3,-3.6 1.3,-3.8 -0.9,-0.3 -1.5,-0.7 -1.5,-0.7 z m 15.2,1 c 0.3,0.2 0.5,0.5 0.7,0.9 0.1,0.2 0.1,0.3 0.1,0.5 0,0.7 -0.5,1.2 -1.3,1.5 0,0 -0.4,0.1 -0.6,0.2 0,0.2 0.6,1.8 0.6,1.8 L 34,51.2 32.6,46.6 33.9,46.2 C 34.5,46 35,46 35.4,46.2 Z M 33.6,47 c 0,0.1 0.4,1.3 0.4,1.4 0.2,-0.1 0.6,-0.2 0.6,-0.2 0.1,0 0.4,-0.2 0.6,-0.4 0,-0.1 0.1,-0.2 0.1,-0.3 V 47.3 C 35.2,47.1 35.1,47 35,46.9 c -0.3,-0.1 -0.6,-0.1 -0.8,0 -0.1,0 -0.5,0.1 -0.6,0.1 z m 4.6,-2.8 4.2,3 -0.7,0.5 c 0,0 -0.8,-0.6 -0.9,-0.7 0,0 -0.5,0.3 -0.9,0.6 -0.4,0.3 -0.9,0.5 -1,0.5 0,0.1 0.2,1.1 0.2,1.1 l -0.8,0.4 -0.7,-5.1 z m 0.5,3.2 c 0.1,-0.1 0.4,-0.2 0.8,-0.4 0.3,-0.2 0.5,-0.3 0.6,-0.4 -0.2,-0.1 -1.5,-1.1 -1.7,-1.3 0,0.3 0.3,1.9 0.3,2.1 z M 43,40 46.6,43.2 46,44 c 0,0 -3.4,-1 -3.9,-1.1 0.4,0.4 2.5,2.6 2.5,2.6 l -0.7,0.5 -3.4,-3.5 0.8,-0.7 c 0,0 3.3,1 3.8,1.1 -0.4,-0.4 -2.7,-2.3 -2.7,-2.3 z m 1.6,-2.5 4.2,2.4 -0.4,0.7 -4.2,-2.4 z m 1.9,-4 0.7,0.4 -0.1,0.1 c -0.2,0.3 -0.3,0.4 -0.5,0.8 -0.1,0.1 -0.1,0.4 0,0.6 0.1,0.1 0.2,0.2 0.3,0.2 0.3,0.1 0.6,-0.2 0.9,-0.5 0.4,-0.5 1,-1 1.9,-0.7 0.9,0.3 1.2,1.1 0.8,2.2 -0.1,0.3 -0.3,0.6 -0.5,0.9 v 0.1 l -0.7,-0.3 0.1,-0.1 c 0.1,-0.1 0.4,-0.5 0.5,-0.8 0.1,-0.3 0.1,-0.9 -0.4,-1 -0.4,-0.1 -0.7,0.2 -1.1,0.5 -0.4,0.4 -0.9,1 -1.7,0.7 -0.4,-0.1 -0.6,-0.3 -0.8,-0.6 -0.2,-0.4 -0.2,-0.8 0,-1.3 0.1,-0.5 0.3,-0.9 0.6,-1.2 z"
   id="path2"
   style="fill:#5792c9" />
&#10;  </g>
    <g
       style="fill:none"
       id="g3"
       transform="matrix(0.26458333,0,0,0.26458333,30.427083,146.7689)">
      <g
         clip-path="url(#clip0_937_1898)"
         id="g25">
        <path
           d="m 9.74512,11.6095 c 0.93678,0.5613 1.65458,1.3497 2.15328,2.3695 0.4988,1.0199 0.746,2.1905 0.746,3.5095 0,0.4346 -0.0174,0.7862 -0.0499,1.0527 H 2.71274 c 0.13228,1.2535 0.55513,2.2057 1.26856,2.8587 0.71343,0.653 1.60901,0.9784 2.68892,0.9784 0.9628,0 1.75863,-0.201 2.38966,-0.6028 0.63103,-0.4018 1.12762,-1.0111 1.49412,-1.8301 l 1.9169,1.6794 c -0.5812,0.9871 -1.39,1.7296 -2.4265,2.2319 C 9.00784,24.359 7.86505,24.608 6.62034,24.608 5.29323,24.608 4.13093,24.3197 3.13559,23.7432 2.14026,23.1666 1.36828,22.3564 0.819657,21.3125 0.271031,20.2686 -0.00219727,19.0762 -0.00219727,17.7397 c 0,-1.3366 0.27756527,-2.5115 0.83486527,-3.5728 0.555132,-1.0614 1.322772,-1.8935 2.302922,-2.494 0.98016,-0.6006 2.08175,-0.902 3.31127,-0.902 1.22953,0 2.36148,0.2795 3.29826,0.8408 z m 0.11276,4.9771 c 0,-1.1029 -0.31009,-1.9764 -0.93244,-2.6207 -0.62236,-0.6442 -1.46373,-0.9652 -2.52628,-0.9652 -0.94546,0 -1.74997,0.3057 -2.41352,0.915 -0.66356,0.6115 -1.0799,1.5003 -1.24471,2.6709 h 7.11912 z"
           fill="#ffffff"
           id="path1" />
        <path
           d="m 21.3466,22.2756 -0.4511,-0.618 c 0.1388,0.2184 0.2906,0.4236 0.4511,0.618 z"
           fill="#ffffff"
           id="path2-6" />
        <path
           d="m 49.591,18.2529 c 0.7481,-0.6595 1.7933,-1.116 3.1377,-1.3671 1.4443,-0.2512 2.4483,-0.4477 3.0121,-0.5897 0.5638,-0.1419 0.9454,-0.3166 1.1449,-0.5263 0.1995,-0.2096 0.2993,-0.5307 0.2993,-0.9653 0,-0.6508 -0.2667,-1.1399 -0.7959,-1.4653 -0.5312,-0.3254 -1.2208,-0.4892 -2.0665,-0.4892 -0.9628,0 -1.7478,0.2642 -2.3528,0.7905 -0.6072,0.5264 -0.9086,1.2667 -0.9086,2.2189 l -2.3398,-0.902 c 0.1171,-0.8189 0.4315,-1.5462 0.9454,-2.1817 0.514,-0.6355 1.1732,-1.1291 1.9799,-1.4785 0.8045,-0.3516 1.6957,-0.5263 2.6759,-0.5263 1.6936,0 3.0163,0.3844 3.9705,1.1531 0.9541,0.7687 1.4312,1.865 1.4312,3.2846 v 6.5189 l 0.4228,2.5071 h -2.266 l -0.5725,-1.6554 c -0.4641,0.6682 -1.0908,1.1749 -1.8801,1.5178 -0.7893,0.3428 -1.648,0.5132 -2.5762,0.5132 -1.2945,0 -2.3484,-0.3429 -3.1616,-1.0286 -0.8132,-0.6858 -1.2209,-1.5964 -1.2209,-2.7321 0,-1.0701 0.373,-1.9349 1.1212,-2.5944 z m 2.2031,3.7978 c 0.3904,0.3516 0.9346,0.5263 1.6307,0.5263 1.1775,0 2.0991,-0.3341 2.7627,-1.0024 0.6635,-0.6683 0.9953,-1.5287 0.9953,-2.5814 v -1.2535 c -0.167,0.1507 -0.4359,0.273 -0.8088,0.3625 -0.373,0.0917 -1.0995,0.2381 -2.1772,0.439 l -0.746,0.1507 c -0.7134,0.1506 -1.2663,0.38 -1.6545,0.6901 -0.3903,0.3101 -0.5855,0.7556 -0.5855,1.3409 0,0.535 0.1952,0.9783 0.5855,1.3278 z"
           fill="#ffffff"
           id="path3" />
        <path
           d="m 65.2756,11.1968 v 1.8039 c 0.8804,-1.4873 2.2812,-2.232 4.2068,-2.232 1.5592,0 2.7627,0.4848 3.6105,1.4545 0.8458,0.9696 1.2686,2.3324 1.2686,4.086 v 7.9232 H 71.7723 V 16.687 c 0,-1.1858 -0.245,-2.0725 -0.7351,-2.6577 -0.4901,-0.5853 -1.2317,-0.878 -2.227,-0.878 -1.1124,0 -1.9798,0.3604 -2.6022,1.0789 -0.6223,0.7185 -0.9324,1.7209 -0.9324,3.0094 v 6.9949 H 62.6864 V 11.199 h 2.5892 z"
           fill="#ffffff"
           id="path4" />
        <path
           d="M 90.07,11.1968 V 23.907 c 0,1.236 -0.2775,2.3149 -0.8327,3.2343 -0.5573,0.9194 -1.3488,1.6248 -2.3766,2.1184 C 85.8306,29.7532 84.6206,30 83.2263,30 81.5674,30 80.1904,29.679 79.0932,29.0347 77.9981,28.3905 77.2023,27.4514 76.7035,26.2153 l 2.2162,-1.5047 c 0.3318,1.0024 0.8587,1.7624 1.5808,2.2822 0.7221,0.5176 1.6394,0.7775 2.7518,0.7775 1.312,0 2.3441,-0.3626 3.0988,-1.0898 0.7546,-0.7272 1.1319,-1.71 1.1319,-2.9461 v -1.7798 c -0.5313,0.6355 -1.1753,1.1334 -1.9299,1.4916 -0.7547,0.3603 -1.5982,0.5394 -2.5263,0.5394 -1.2772,0 -2.4027,-0.2883 -3.3742,-0.8648 -0.9714,-0.5766 -1.7217,-1.3671 -2.253,-2.3695 -0.5313,-1.0024 -0.7958,-2.114 -0.7958,-3.3348 0,-1.2208 0.2645,-2.3608 0.7958,-3.372 0.5313,-1.0111 1.2816,-1.8082 2.253,-2.3935 0.9715,-0.5853 2.0948,-0.8779 3.3742,-0.8779 0.9281,0 1.7716,0.1791 2.5263,0.5394 0.7546,0.3604 1.3986,0.8561 1.9299,1.4916 V 11.199 h 2.5892 z m -10.2938,8.373 c 0.3405,0.6355 0.8306,1.1356 1.4681,1.5047 0.6397,0.3669 1.3813,0.5525 2.227,0.5525 0.8457,0 1.531,-0.1835 2.1533,-0.5525 0.6224,-0.3669 1.1038,-0.8736 1.4442,-1.5178 0.3405,-0.6443 0.5096,-1.3584 0.5096,-2.1446 0,-1.2688 -0.3773,-2.3018 -1.1319,-3.0967 -0.7546,-0.7928 -1.7478,-1.1903 -2.9752,-1.1903 -1.2273,0 -2.2986,0.4019 -3.0619,1.2034 -0.7633,0.8014 -1.1449,1.83 -1.1449,3.0836 0,0.8015 0.1691,1.5222 0.5096,2.1555 z"
           fill="#ffffff"
           id="path5" />
        <path
           d="m 102.099,11.6095 c 0.936,0.5613 1.654,1.3497 2.153,2.3695 0.499,1.0199 0.746,2.1905 0.746,3.5095 0,0.4346 -0.018,0.7862 -0.05,1.0527 h -9.8819 c 0.1323,1.2535 0.5552,2.2057 1.2686,2.8587 0.7134,0.653 1.609,0.9784 2.6889,0.9784 0.9628,0 1.7584,-0.201 2.3894,-0.6028 0.631,-0.4018 1.128,-1.0111 1.494,-1.8301 l 1.917,1.6794 c -0.581,0.9871 -1.39,1.7296 -2.426,2.2319 -1.037,0.5023 -2.18,0.7513 -3.4243,0.7513 -1.3271,0 -2.4894,-0.2883 -3.4847,-0.8648 -0.9953,-0.5766 -1.7673,-1.3868 -2.3159,-2.4307 -0.5487,-1.0439 -0.8219,-2.2363 -0.8219,-3.5728 0,-1.3366 0.2776,-2.5115 0.8349,-3.5728 0.5551,-1.0614 1.3227,-1.8935 2.3029,-2.494 0.9801,-0.6006 2.0817,-0.902 3.3113,-0.902 1.2297,0 2.3617,0.2795 3.2987,0.8408 z m 0.112,4.9771 c 0,-1.1029 -0.31,-1.9764 -0.932,-2.6207 -0.623,-0.6442 -1.4639,-0.9652 -2.5265,-0.9652 -0.9454,0 -1.7499,0.3057 -2.4135,0.915 -0.6635,0.6115 -1.0799,1.5003 -1.2447,2.6709 h 7.1187 z"
           fill="#ffffff"
           id="path6" />
        <path
           d="m 23.643,14.3809 c 0.7806,-0.819 1.7998,-1.2296 3.0619,-1.2296 0.863,0 1.6307,0.2294 2.3029,0.6902 0.6722,0.4608 1.1081,1.0832 1.3076,1.8672 l 2.2661,-1.3781 c -0.4142,-1.0351 -1.1623,-1.889 -2.2401,-2.5573 -1.0799,-0.6683 -2.2899,-1.0024 -3.6344,-1.0024 -0.9107,0 -1.7543,0.1441 -2.5371,0.4259 -0.3448,0.1245 -0.6787,0.273 -0.9975,0.452 -0.6267,0.3516 -1.1731,0.7884 -1.6393,1.3082 -0.2473,0.2751 -0.4706,0.5743 -0.6701,0.8954 l -0.6289,0.8408 1.5592,2.0135 1.854,-2.3258 z"
           fill="#ffffff"
           id="path7" />
        <path
           d="m 17.17,18.4625 -4.5018,5.7699 h 3.3113 l 2.6672,-3.6275 z"
           fill="#ffffff"
           id="path8" />
        <path
           d="m 16.1313,11.1968 h -3.14 l 4.8791,6.3682 -0.0087,0.0109 1.5267,2.0201 1.5049,2.0616 0.451,0.618 c 0.4901,0.594 1.0799,1.0854 1.776,1.4698 0.3578,0.1987 0.7351,0.3581 1.1298,0.4892 0.7546,0.2489 1.5721,0.3756 2.4547,0.3756 1.3271,0 2.5263,-0.3298 3.5975,-0.9893 1.0712,-0.6596 1.8302,-1.5178 2.2769,-2.5705 l -2.24,-1.354 c -0.1995,0.7185 -0.6397,1.3169 -1.3185,1.793 -0.6809,0.4761 -1.4528,0.7141 -2.3159,0.7141 -1.2946,0 -2.5783,-0.404 -3.3416,-1.2164"
           fill="#ffffff"
           id="path9" />
        <path
           d="M 0.808838,0.172527 H 3.33512 c 1.03219,0 1.83453,0.297008 2.40701,0.888843 0.57248,0.59401 0.85872,1.43699 0.85872,2.53549 0,0.73378 -0.13011,1.37147 -0.38816,1.91308 C 5.95247,6.05154 5.57733,6.46866 5.08725,6.76349 4.59717,7.05613 4.01168,7.20245 3.33512,7.20245 H 0.808838 Z M 3.2397,6.16947 c 0.68958,0 1.23387,-0.22931 1.63287,-0.68792 0.399,-0.45862 0.5985,-1.08758 0.5985,-1.88469 0,-0.79712 -0.19299,-1.41079 -0.57898,-1.80171 C 4.5061,1.40205 3.9553,1.20769 3.2397,1.20769 H 1.93862 V 6.17165 H 3.2397 Z"
           fill="#ff8700"
           id="path10" />
        <path
           d="M 10.8446,0.172527 V 7.20245 H 9.71484 V 0.172527 Z"
           fill="#ff8700"
           id="path11" />
        <path
           d="M 15.6131,6.88578 C 15.0991,6.58004 14.6958,6.14981 14.4031,5.59511 14.1082,5.0404 13.9607,4.40052 13.9607,3.67329 c 0,-0.72723 0.1605,-1.37803 0.4792,-1.93274 0.3188,-0.5547 0.7547,-0.982743 1.3055,-1.286302 C 16.2961,0.150688 16.9033,0 17.569,0 c 0.6658,0 1.2794,0.155056 1.8476,0.462983 0.566,0.310112 0.9932,0.746887 1.2772,1.314697 L 19.7635,2.40882 C 19.5922,1.98078 19.3103,1.64446 18.9178,1.39987 18.5253,1.15527 18.07,1.03079 17.5495,1.03079 c -0.4619,0 -0.8782,0.10701 -1.249,0.32103 -0.3708,0.21402 -0.6636,0.51977 -0.8782,0.91723 -0.2147,0.39965 -0.3232,0.86264 -0.3232,1.39114 0,0.5285 0.102,1.02205 0.3036,1.41952 0.2017,0.39965 0.4836,0.70321 0.8457,0.91286 0.36,0.20966 0.7764,0.31667 1.2447,0.31667 0.5769,0 1.0518,-0.17035 1.4291,-0.51103 0.3773,-0.34069 0.6006,-0.78838 0.67,-1.34309 H 17.504 V 3.4418 h 3.2202 V 7.20026 H 19.6031 V 6.21533 C 19.0718,6.96877 18.315,7.3444 17.3327,7.3444 c -0.6332,0 -1.2057,-0.15287 -1.7196,-0.45862 z"
           fill="#ff8700"
           id="path12" />
        <path
           d="M 25.2216,0.172527 V 7.20245 H 24.0918 V 0.172527 Z"
           fill="#ff8700"
           id="path13" />
        <path
           d="M 33.7307,0.172527 V 1.23389 H 31.5189 V 7.20245 H 30.3804 V 1.23389 H 28.1577 V 0.172527 h 5.5752 z"
           fill="#ff8700"
           id="path14" />
        <path
           d="m 38.1458,0.172527 h 1.2165 L 42.164,7.20245 H 40.9193 L 40.2731,5.49028 H 37.2155 L 36.5498,7.20245 H 35.3246 Z M 39.8827,4.47696 38.753,1.50251 37.6037,4.47696 Z"
           fill="#ff8700"
           id="path15" />
        <path
           d="m 44.9265,0.172527 h 1.1298 V 6.14108 h 3.3893 v 1.06137 h -4.5191 z"
           fill="#ff8700"
           id="path16" />
        <path
           d="M 57.5753,0.172527 V 7.20245 H 56.4456 V 0.172527 Z"
           fill="#beeb1a"
           id="path17" />
        <path
           d="m 62.8469,0.172527 1.9364,5.680283 1.9365,-5.680283 h 1.737 V 7.20245 H 67.3465 V 1.3955 L 65.3992,7.13475 H 64.1263 L 62.1985,1.40642 V 7.20245 H 61.0883 V 0.172527 h 1.7564 z"
           fill="#beeb1a"
           id="path18" />
        <path
           d="m 71.9719,0.172527 h 2.9253 c 0.4619,0 0.8696,0.087356 1.2209,0.262066 0.3513,0.174711 0.6245,0.425858 0.8218,0.751257 0.1952,0.3254 0.2949,0.70103 0.2949,1.12907 0,0.42804 -0.1019,0.82332 -0.3036,1.14654 -0.2016,0.32539 -0.4792,0.57217 -0.8305,0.74033 -0.3513,0.16816 -0.7416,0.25333 -1.1731,0.25333 H 73.1039 V 7.20026 H 71.9741 V 0.172527 Z m 2.9145,3.251803 c 0.3664,0 0.6592,-0.10046 0.8782,-0.30138 0.219,-0.20091 0.3274,-0.46953 0.3274,-0.80803 0,-0.33851 -0.1062,-0.59839 -0.3187,-0.80367 C 75.5608,1.30815 75.268,1.2055 74.895,1.2055 h -1.7955 v 2.21883 h 1.7847 z"
           fill="#beeb1a"
           id="path19" />
        <path
           d="m 81.8666,0.172527 h 1.2165 L 85.8848,7.20245 H 84.6401 L 83.9939,5.49028 h -3.0576 l -0.6657,1.71217 h -1.2252 z m 1.737,4.304433 -1.1298,-2.97445 -1.1493,2.97445 z"
           fill="#beeb1a"
           id="path20" />
        <path
           d="m 93.5049,0.462983 c 0.5595,0.310112 0.9823,0.746887 1.2686,1.314697 L 93.8432,2.40882 C 93.6719,1.98078 93.3922,1.64446 93.0018,1.39987 92.6115,1.15527 92.167,1.03079 91.6682,1.03079 c -0.4619,0 -0.8826,0.10483 -1.262,0.31667 -0.3795,0.20965 -0.6788,0.51539 -0.8978,0.91286 -0.219,0.39965 -0.3274,0.86918 -0.3274,1.41079 0,0.5416 0.1084,1.0024 0.3231,1.40205 0.2146,0.39965 0.5117,0.70539 0.8869,0.91723 0.3773,0.21402 0.8001,0.32103 1.2685,0.32103 0.5118,0 0.9693,-0.12448 1.3683,-0.37344 0.399,-0.24897 0.681,-0.59402 0.8458,-1.03298 l 0.9302,0.63114 C 94.5002,6.10395 94.0731,6.54728 93.5223,6.86613 92.9715,7.18497 92.3513,7.3444 91.6617,7.3444 90.9721,7.3444 90.3801,7.19153 89.8293,6.88578 89.2785,6.58004 88.8427,6.14763 88.5239,5.59074 88.2052,5.03385 88.0447,4.3896 88.0447,3.66456 c 0,-0.72505 0.1626,-1.37803 0.4901,-1.93274 C 88.86,1.17711 89.3002,0.749072 89.8554,0.44988 90.4105,0.150688 91.0155,0 91.6747,0 c 0.6592,0 1.2773,0.155056 1.8367,0.462983 z"
           fill="#beeb1a"
           id="path21" />
        <path
           d="M 102.884,0.172527 V 1.23389 h -2.212 V 7.20245 H 99.5332 V 1.23389 H 97.3105 V 0.172527 h 5.5755 z"
           fill="#beeb1a"
           id="path22" />
        <path
           d="M 37.248,11.1968 H 34.6588 V 24.2324 H 37.248 Z"
           fill="#ffffff"
           id="path23" />
        <path
           d="m 46.3339,11.1968 h -2.5891 v 13.0356 h 2.5891 z"
           fill="#ffffff"
           id="path24" />
        <path
           d="m 44.3931,16.5167 h -8.2749 v 2.2603 h 8.2749 z"
           fill="#ffffff"
           id="path25" />
      </g>
    </g>
  </g>
</svg>
