<svg width="44" height="44" viewBox="0 0 44 44" fill="none" xmlns="http://www.w3.org/2000/svg">
<circle cx="22" cy="22" r="22" fill="#485CD5"/>
<path d="M23.1001 26.3999H31.9001" stroke="white" stroke-width="1.65" stroke-linecap="round" stroke-linejoin="round"/>
<path d="M11 26.3999H15.4" stroke="white" stroke-width="1.65" stroke-linecap="round" stroke-linejoin="round"/>
<path fill-rule="evenodd" clip-rule="evenodd" d="M23.0999 26.9501C23.0999 27.7115 22.8741 28.4558 22.4512 29.0889C22.0282 29.722 21.427 30.2154 20.7236 30.5069C20.0202 30.7983 19.2462 30.8747 18.4994 30.7262C17.7527 30.5778 17.0666 30.2113 16.5281 29.6731C15.9896 29.1348 15.6228 28.449 15.4741 27.7022C15.3253 26.9555 15.4013 26.1815 15.6925 25.478C15.9836 24.7744 16.4768 24.173 17.1097 23.7498C17.7426 23.3265 18.4868 23.1004 19.2482 23.1001C19.7539 23.0999 20.2547 23.1993 20.722 23.3927C21.1894 23.5861 21.614 23.8696 21.9717 24.2271C22.3293 24.5847 22.6131 25.0092 22.8067 25.4764C23.0003 25.9436 23.0999 26.4444 23.0999 26.9501Z" stroke="white" stroke-width="1.65" stroke-linecap="round" stroke-linejoin="round"/>
<path d="M24.2 16.5H11" stroke="white" stroke-width="1.65" stroke-linecap="round" stroke-linejoin="round"/>
<path fill-rule="evenodd" clip-rule="evenodd" d="M31.9 15.9501C31.9 15.1887 31.6742 14.4444 31.2512 13.8113C30.8283 13.1782 30.2271 12.6848 29.5237 12.3933C28.8203 12.1019 28.0463 12.0255 27.2995 12.174C26.5527 12.3224 25.8667 12.6889 25.3282 13.2271C24.7897 13.7654 24.4229 14.4512 24.2741 15.198C24.1254 15.9447 24.2014 16.7187 24.4925 17.4222C24.7837 18.1258 25.2769 18.7272 25.9098 19.1504C26.5427 19.5737 27.2869 19.7998 28.0482 19.8001C29.0695 19.8001 30.0489 19.3945 30.7712 18.6726C31.4935 17.9506 31.8995 16.9713 31.9 15.9501Z" stroke="white" stroke-width="1.65" stroke-linecap="round" stroke-linejoin="round"/>
</svg>
