<svg width="1011" height="371" viewBox="0 0 1011 371" fill="none" xmlns="http://www.w3.org/2000/svg">
<g clip-path="url(#clip0_486_3557)">
<path d="M130.332 206.431L0 371H89.4509L170.208 263.816L130.332 206.431Z" fill="url(#paint0_linear_486_3557)"/>
<path d="M387.953 306.567C352.981 306.567 318.299 295.723 297.686 274.014L94.314 0.491391H9.4834L149.265 182.393L149.029 182.696L190.294 236.756L230.966 291.967L243.161 308.513C256.394 324.419 272.339 337.565 291.13 347.837C300.816 353.135 311.014 357.45 321.644 360.923C342.027 367.587 364.11 370.993 387.974 370.993C423.843 370.993 456.245 362.148 485.161 344.478C502.684 333.769 517.118 321.127 528.463 306.56H387.974L387.953 306.567Z" fill="url(#paint1_linear_486_3557)"/>
<path d="M387.953 306.567C352.981 306.567 318.299 295.723 297.686 274.014L94.314 0.491391H9.4834L149.265 182.393L149.029 182.696L190.294 236.756L230.966 291.967L243.161 308.513C256.394 324.419 272.339 337.565 291.13 347.837C300.816 353.135 311.014 357.45 321.644 360.923C342.027 367.587 364.11 370.993 387.974 370.993C423.843 370.993 456.245 362.148 485.161 344.478C502.684 333.769 517.118 321.127 528.463 306.56H387.974L387.953 306.567Z" fill="url(#paint2_linear_486_3557)"/>
<path d="M387.953 306.567C352.981 306.567 318.299 295.723 297.686 274.014L94.314 0.491391H9.4834L149.265 182.393L149.029 182.696L190.294 236.756L230.966 291.967L243.161 308.513C256.394 324.419 272.339 337.565 291.13 347.837C300.816 353.135 311.014 357.45 321.644 360.923C342.027 367.587 364.11 370.993 387.974 370.993C423.843 370.993 456.245 362.148 485.161 344.478C502.684 333.769 517.118 321.127 528.463 306.56H387.974L387.953 306.567Z" fill="url(#paint3_linear_486_3557)"/>
<path d="M387.953 306.567C352.981 306.567 318.299 295.723 297.686 274.014L94.314 0.491391H9.4834L149.265 182.393L149.029 182.696L190.294 236.756L230.966 291.967L243.161 308.513C256.394 324.419 272.339 337.565 291.13 347.837C300.816 353.135 311.014 357.45 321.644 360.923C342.027 367.587 364.11 370.993 387.974 370.993C423.843 370.993 456.245 362.148 485.161 344.478C502.684 333.769 517.118 321.127 528.463 306.56H387.974L387.953 306.567Z" fill="url(#paint4_radial_486_3557)"/>
<path d="M1011 0V64.2578H387.953C353.878 64.2578 326.305 75.2299 305.234 97.1473L255.146 159.439L213.018 105.528L230.035 83.0046C235.471 74.3818 241.501 66.3781 248.159 59.014C260.758 45.0935 275.489 33.3876 292.446 23.9772C301.086 19.1912 310.097 15.2264 319.405 11.9011C340.55 4.36193 363.368 0.491391 387.953 0.491391C395.852 0.491391 399.912 0.100971 411.378 0.100971L411.142 0L1011 0Z" fill="url(#paint5_linear_486_3557)"/>
<path d="M1011 0V64.2578H387.953C353.878 64.2578 326.305 75.2299 305.234 97.1473L255.146 159.439L213.018 105.528L230.035 83.0046C235.471 74.3818 241.501 66.3781 248.159 59.014C260.758 45.0935 275.489 33.3876 292.446 23.9772C301.086 19.1912 310.097 15.2264 319.405 11.9011C340.55 4.36193 363.368 0.491391 387.953 0.491391C395.852 0.491391 399.912 0.100971 411.378 0.100971L411.142 0L1011 0Z" fill="url(#paint6_linear_486_3557)"/>
<path d="M1011 0V64.2578H387.953C353.878 64.2578 326.305 75.2299 305.234 97.1473L255.146 159.439L213.018 105.528L230.035 83.0046C235.471 74.3818 241.501 66.3781 248.159 59.014C260.758 45.0935 275.489 33.3876 292.446 23.9772C301.086 19.1912 310.097 15.2264 319.405 11.9011C340.55 4.36193 363.368 0.491391 387.953 0.491391C395.852 0.491391 399.912 0.100971 411.378 0.100971L411.142 0L1011 0Z" fill="url(#paint7_radial_486_3557)"/>
<path d="M1011 0V64.2578H387.953C353.878 64.2578 326.305 75.2299 305.234 97.1473L255.146 159.439L213.018 105.528L230.035 83.0046C235.471 74.3818 241.501 66.3781 248.159 59.014C260.758 45.0935 275.489 33.3876 292.446 23.9772C301.086 19.1912 310.097 15.2264 319.405 11.9011C340.55 4.36193 363.368 0.491391 387.953 0.491391C395.852 0.491391 399.912 0.100971 411.378 0.100971L411.142 0L1011 0Z" fill="url(#paint8_radial_486_3557)"/>
<path d="M1011 0V64.2578H387.953C353.878 64.2578 326.305 75.2299 305.234 97.1473L255.146 159.439L213.018 105.528L230.035 83.0046C235.471 74.3818 241.501 66.3781 248.159 59.014C260.758 45.0935 275.489 33.3876 292.446 23.9772C301.086 19.1912 310.097 15.2264 319.405 11.9011C340.55 4.36193 363.368 0.491391 387.953 0.491391C395.852 0.491391 399.912 0.100971 411.378 0.100971L411.142 0L1011 0Z" fill="url(#paint9_radial_486_3557)"/>
<path d="M1011 0V64.2578H387.953C353.878 64.2578 326.305 75.2299 305.234 97.1473L255.146 159.439L213.018 105.528L230.035 83.0046C235.471 74.3818 241.501 66.3781 248.159 59.014C260.758 45.0935 275.489 33.3876 292.446 23.9772C301.086 19.1912 310.097 15.2264 319.405 11.9011C340.55 4.36193 363.368 0.491391 387.953 0.491391C395.852 0.491391 399.912 0.100971 411.378 0.100971L411.142 0L1011 0Z" fill="url(#paint10_linear_486_3557)"/>
<path d="M387.953 306.567C352.981 306.567 318.299 295.723 297.686 274.014L94.314 0.491391H9.4834L149.265 182.393L149.029 182.696L190.294 236.756L230.966 291.967L243.161 308.513C256.394 324.419 272.339 337.565 291.13 347.837C300.816 353.135 311.014 357.45 321.644 360.923C342.027 367.587 364.11 370.993 387.974 370.993C423.843 370.993 456.245 362.148 485.161 344.478C502.684 333.769 517.118 321.127 528.463 306.56H387.974L387.953 306.567Z" fill="url(#paint11_linear_486_3557)"/>
<path d="M387.953 306.567C352.981 306.567 318.299 295.723 297.686 274.014L94.314 0.491391H9.4834L149.265 182.393L149.029 182.696L190.294 236.756L230.966 291.967L243.161 308.513C256.394 324.419 272.339 337.565 291.13 347.837C300.816 353.135 311.014 357.45 321.644 360.923C342.027 367.587 364.11 370.993 387.974 370.993C423.843 370.993 456.245 362.148 485.161 344.478C502.684 333.769 517.118 321.127 528.463 306.56H387.974L387.953 306.567Z" fill="url(#paint12_linear_486_3557)"/>
</g>
<defs>
<linearGradient id="paint0_linear_486_3557" x1="0" y1="288.716" x2="170.208" y2="288.716" gradientUnits="userSpaceOnUse">
<stop stop-color="#FF8700"/>
<stop offset="0.1" stop-color="#F88504" stop-opacity="0.82"/>
<stop offset="0.23" stop-color="#F08409" stop-opacity="0.6"/>
<stop offset="0.37" stop-color="#EA830D" stop-opacity="0.42"/>
<stop offset="0.5" stop-color="#E48210" stop-opacity="0.27"/>
<stop offset="0.63" stop-color="#E08113" stop-opacity="0.15"/>
<stop offset="0.76" stop-color="#DD8115" stop-opacity="0.07"/>
<stop offset="0.88" stop-color="#DB8116" stop-opacity="0.02"/>
<stop offset="1" stop-color="#DB8117" stop-opacity="0"/>
</linearGradient>
<linearGradient id="paint1_linear_486_3557" x1="176.399" y1="224.983" x2="593.791" y2="-82.7946" gradientUnits="userSpaceOnUse">
<stop stop-color="#86A042" stop-opacity="0.77"/>
<stop offset="0.01" stop-color="#8BA73F" stop-opacity="0.57"/>
<stop offset="0.02" stop-color="#90AD3C" stop-opacity="0.39"/>
<stop offset="0.03" stop-color="#93B13A" stop-opacity="0.24"/>
<stop offset="0.04" stop-color="#96B539" stop-opacity="0.13"/>
<stop offset="0.05" stop-color="#98B837" stop-opacity="0.06"/>
<stop offset="0.07" stop-color="#99B937" stop-opacity="0.01"/>
<stop offset="0.12" stop-color="#9ABA37" stop-opacity="0"/>
</linearGradient>
<linearGradient id="paint2_linear_486_3557" x1="9.4834" y1="185.746" x2="528.443" y2="185.746" gradientUnits="userSpaceOnUse">
<stop offset="0.02" stop-color="#E9941D"/>
<stop offset="0.27" stop-color="#BE6C19" stop-opacity="0"/>
</linearGradient>
<linearGradient id="paint3_linear_486_3557" x1="208.208" y1="389.612" x2="336.821" y2="-112.155" gradientUnits="userSpaceOnUse">
<stop offset="0.02" stop-color="#CEDD7A"/>
<stop offset="0.04" stop-color="#C3D56D" stop-opacity="0.82"/>
<stop offset="0.07" stop-color="#B8CC5F" stop-opacity="0.6"/>
<stop offset="0.1" stop-color="#ADC453" stop-opacity="0.42"/>
<stop offset="0.13" stop-color="#A5BE49" stop-opacity="0.27"/>
<stop offset="0.16" stop-color="#9FB941" stop-opacity="0.15"/>
<stop offset="0.2" stop-color="#9AB53C" stop-opacity="0.07"/>
<stop offset="0.23" stop-color="#97B339" stop-opacity="0.02"/>
<stop offset="0.27" stop-color="#97B338" stop-opacity="0"/>
</linearGradient>
<radialGradient id="paint4_radial_486_3557" cx="0" cy="0" r="1" gradientUnits="userSpaceOnUse" gradientTransform="translate(349.931 284.689) rotate(14.7916) scale(225.567 135.104)">
<stop offset="0.02" stop-color="#FF8700"/>
<stop offset="0.05" stop-color="#FF8700" stop-opacity="0.83"/>
<stop offset="0.1" stop-color="#FF8700" stop-opacity="0.64"/>
<stop offset="0.15" stop-color="#FF8700" stop-opacity="0.47"/>
<stop offset="0.21" stop-color="#FF8700" stop-opacity="0.32"/>
<stop offset="0.26" stop-color="#FF8700" stop-opacity="0.2"/>
<stop offset="0.32" stop-color="#FF8700" stop-opacity="0.11"/>
<stop offset="0.38" stop-color="#FF8700" stop-opacity="0.05"/>
<stop offset="0.45" stop-color="#FF8700" stop-opacity="0.01"/>
<stop offset="0.54" stop-color="#FF8700" stop-opacity="0"/>
</radialGradient>
<linearGradient id="paint5_linear_486_3557" x1="604.364" y1="-38.941" x2="613.46" y2="70.5479" gradientUnits="userSpaceOnUse">
<stop stop-color="#9ABA37"/>
<stop offset="0.07" stop-color="#9ABA37" stop-opacity="0.82"/>
<stop offset="0.17" stop-color="#9ABA37" stop-opacity="0.61"/>
<stop offset="0.27" stop-color="#9ABA37" stop-opacity="0.42"/>
<stop offset="0.39" stop-color="#9ABA37" stop-opacity="0.27"/>
<stop offset="0.51" stop-color="#9ABA37" stop-opacity="0.15"/>
<stop offset="0.64" stop-color="#9ABA37" stop-opacity="0.06"/>
<stop offset="0.79" stop-color="#9ABA37" stop-opacity="0.02"/>
<stop offset="1" stop-color="#9ABA37" stop-opacity="0"/>
</linearGradient>
<linearGradient id="paint6_linear_486_3557" x1="636.395" y1="157.885" x2="611.661" y2="50.8338" gradientUnits="userSpaceOnUse">
<stop stop-color="#9CBC36"/>
<stop offset="0.07" stop-color="#9BBB36" stop-opacity="0.81"/>
<stop offset="0.17" stop-color="#9BBB36" stop-opacity="0.6"/>
<stop offset="0.28" stop-color="#9ABA36" stop-opacity="0.41"/>
<stop offset="0.39" stop-color="#9ABA36" stop-opacity="0.26"/>
<stop offset="0.51" stop-color="#9ABA36" stop-opacity="0.15"/>
<stop offset="0.64" stop-color="#9ABA36" stop-opacity="0.06"/>
<stop offset="0.79" stop-color="#9ABA36" stop-opacity="0.02"/>
<stop offset="1" stop-color="#9ABA37" stop-opacity="0"/>
</linearGradient>
<radialGradient id="paint7_radial_486_3557" cx="0" cy="0" r="1" gradientUnits="userSpaceOnUse" gradientTransform="translate(636.307 80.0968) scale(442.351 61.805)">
<stop stop-color="white"/>
<stop offset="0.04" stop-color="white" stop-opacity="0.84"/>
<stop offset="0.1" stop-color="white" stop-opacity="0.67"/>
<stop offset="0.16" stop-color="white" stop-opacity="0.51"/>
<stop offset="0.23" stop-color="white" stop-opacity="0.37"/>
<stop offset="0.3" stop-color="white" stop-opacity="0.25"/>
<stop offset="0.38" stop-color="white" stop-opacity="0.16"/>
<stop offset="0.46" stop-color="white" stop-opacity="0.09"/>
<stop offset="0.57" stop-color="white" stop-opacity="0.04"/>
<stop offset="0.71" stop-color="white" stop-opacity="0"/>
<stop offset="1" stop-color="white" stop-opacity="0"/>
</radialGradient>
<radialGradient id="paint8_radial_486_3557" cx="0" cy="0" r="1" gradientUnits="userSpaceOnUse" gradientTransform="translate(364.941 109.939) rotate(-20.9715) scale(163.657 109.486)">
<stop stop-color="#FF8700"/>
<stop offset="0.11" stop-color="#FF8700" stop-opacity="0.75"/>
<stop offset="0.22" stop-color="#FF8700" stop-opacity="0.52"/>
<stop offset="0.33" stop-color="#FF8700" stop-opacity="0.34"/>
<stop offset="0.43" stop-color="#FF8700" stop-opacity="0.19"/>
<stop offset="0.53" stop-color="#FF8700" stop-opacity="0.09"/>
<stop offset="0.61" stop-color="#FF8700" stop-opacity="0.02"/>
<stop offset="0.68" stop-color="#FF8700" stop-opacity="0"/>
</radialGradient>
<radialGradient id="paint9_radial_486_3557" cx="0" cy="0" r="1" gradientUnits="userSpaceOnUse" gradientTransform="translate(364.941 109.939) rotate(-20.9715) scale(163.657 109.486)">
<stop stop-color="#FF8700"/>
<stop offset="0.11" stop-color="#FF8700" stop-opacity="0.75"/>
<stop offset="0.22" stop-color="#FF8700" stop-opacity="0.52"/>
<stop offset="0.33" stop-color="#FF8700" stop-opacity="0.34"/>
<stop offset="0.43" stop-color="#FF8700" stop-opacity="0.19"/>
<stop offset="0.53" stop-color="#FF8700" stop-opacity="0.09"/>
<stop offset="0.61" stop-color="#FF8700" stop-opacity="0.02"/>
<stop offset="0.68" stop-color="#FF8700" stop-opacity="0"/>
</radialGradient>
<linearGradient id="paint10_linear_486_3557" x1="553.271" y1="-101.96" x2="588.047" y2="-9.99025" gradientUnits="userSpaceOnUse">
<stop stop-color="white"/>
<stop offset="0.02" stop-color="white" stop-opacity="0.88"/>
<stop offset="0.07" stop-color="white" stop-opacity="0.7"/>
<stop offset="0.11" stop-color="white" stop-opacity="0.53"/>
<stop offset="0.16" stop-color="white" stop-opacity="0.39"/>
<stop offset="0.21" stop-color="white" stop-opacity="0.27"/>
<stop offset="0.27" stop-color="white" stop-opacity="0.17"/>
<stop offset="0.33" stop-color="white" stop-opacity="0.09"/>
<stop offset="0.41" stop-color="white" stop-opacity="0.04"/>
<stop offset="0.5" stop-color="white" stop-opacity="0"/>
<stop offset="0.68" stop-color="white" stop-opacity="0"/>
</linearGradient>
<linearGradient id="paint11_linear_486_3557" x1="176.399" y1="224.983" x2="593.791" y2="-82.7946" gradientUnits="userSpaceOnUse">
<stop stop-color="#E3ECC8" stop-opacity="0.15"/>
<stop offset="0.02" stop-color="#C2D587" stop-opacity="0.08"/>
<stop offset="0.04" stop-color="#ABC558" stop-opacity="0.03"/>
<stop offset="0.06" stop-color="#9DBC3E" stop-opacity="0"/>
<stop offset="0.12" stop-color="#9ABA37" stop-opacity="0"/>
</linearGradient>
<linearGradient id="paint12_linear_486_3557" x1="215.506" y1="361.26" x2="344.119" y2="-140.507" gradientUnits="userSpaceOnUse">
<stop offset="0.02" stop-color="#FCFCFD" stop-opacity="0.94"/>
<stop offset="0.03" stop-color="#F3F3F6" stop-opacity="0.72"/>
<stop offset="0.04" stop-color="#EBEBF0" stop-opacity="0.53"/>
<stop offset="0.05" stop-color="#E4E5EB" stop-opacity="0.37"/>
<stop offset="0.06" stop-color="#DEDFE7" stop-opacity="0.23"/>
<stop offset="0.07" stop-color="#DADBE4" stop-opacity="0.13"/>
<stop offset="0.08" stop-color="#D7D8E1" stop-opacity="0.06"/>
<stop offset="0.09" stop-color="#D5D6E0" stop-opacity="0.01"/>
<stop offset="0.1" stop-color="#D5D6E0" stop-opacity="0"/>
</linearGradient>
<clipPath id="clip0_486_3557">
<rect width="1011" height="371" fill="white"/>
</clipPath>
</defs>
</svg>
