<svg width="40" height="40" viewBox="0 0 40 40" fill="none" xmlns="http://www.w3.org/2000/svg">
<circle cx="20" cy="20" r="20" fill="#485CD5"/>
<g clip-path="url(#clip0_937_2312)">
<path d="M13.234 16.9815H16.1034V27.0094H13.2081L13.234 16.9815ZM14.6816 12C15.0142 12 15.3396 12.1061 15.6162 12.3046C15.8927 12.5031 16.1081 12.7852 16.2354 13.1152C16.3627 13.4453 16.396 13.8082 16.3311 14.1586C16.2662 14.509 16.1062 14.8312 15.871 15.0838C15.6358 15.3364 15.3358 15.5083 15.0096 15.578C14.6834 15.6477 14.3455 15.612 14.0382 15.4753C13.7309 15.3385 13.4683 15.1072 13.2835 14.8101C13.0987 14.5131 12.9999 14.1635 12.9999 13.8063C12.9999 13.3272 13.1772 12.868 13.4926 12.5292C13.808 12.1904 14.2355 12 14.6816 12Z" fill="white"/>
<path d="M17.9497 16.9815H20.7323V18.35H20.7844C21.0629 17.8406 21.4648 17.422 21.9471 17.1383C22.4295 16.8547 22.9744 16.7167 23.5239 16.7392C26.4712 16.7392 26.9913 18.8156 26.9913 21.5065V27.0094H24.0872V22.1303C24.0872 20.9757 24.0873 19.477 22.5876 19.477C21.0879 19.477 20.8538 20.7338 20.8538 22.0466V27.0094H17.9586L17.9497 16.9815Z" fill="white"/>
</g>
<defs>
<clipPath id="clip0_937_2312">
<rect width="14" height="15" fill="white" transform="translate(13 12)"/>
</clipPath>
</defs>
</svg>
