<svg width="26" height="26" viewBox="0 0 26 26" fill="none" xmlns="http://www.w3.org/2000/svg">
<g clip-path="url(#clip0_1154_3228)">
<path d="M0.424205 8.40509H5.62436V25.325H0.377412L0.424205 8.40509ZM3.04768 0C3.65047 0 4.24023 0.179062 4.74143 0.513955C5.24263 0.848849 5.63301 1.32478 5.86369 1.88169C6.09437 2.4386 6.15466 3.05097 6.03706 3.64218C5.91946 4.23339 5.62946 4.77698 5.20322 5.20322C4.77698 5.62946 4.23339 5.91946 3.64218 6.03706C3.05097 6.15466 2.4386 6.09437 1.88169 5.86369C1.32478 5.63301 0.848849 5.24263 0.513955 4.74143C0.179062 4.24023 0 3.65047 0 3.04768C0 2.23936 0.321334 1.46447 0.892901 0.892901C1.46447 0.321334 2.23936 0 3.04768 0Z" fill="#485CD5"/>
<path d="M8.97021 8.40503H14.0131V10.714H14.1075C14.6121 9.85465 15.3405 9.14824 16.2147 8.66968C17.0888 8.19111 18.0763 7.95831 19.0721 7.99617C24.4136 7.99617 25.3562 11.4997 25.3562 16.04V25.3249H20.0931V17.0924C20.0931 15.1444 20.0932 12.6156 17.3753 12.6156C14.6574 12.6156 14.2333 14.7361 14.2333 16.9513V25.3249H8.98632L8.97021 8.40503Z" fill="#485CD5"/>
</g>
<defs>
<clipPath id="clip0_1154_3228">
<rect width="25.3719" height="25.3091" fill="white"/>
</clipPath>
</defs>
</svg>
