<svg width="1280" height="1052" viewBox="0 0 1280 1052" fill="none" xmlns="http://www.w3.org/2000/svg">
<g clip-path="url(#clip0_338_175)">
<rect width="1280" height="1052" fill="white"/>
<path d="M2080.89 -558.266H-192.504V928.993H2080.89V-558.266Z" fill="url(#paint0_linear_338_175)"/>
<path d="M865.433 -1H217.764C131.899 33.6597 55.9087 73.802 -2 108.899V1056H1286V197.363C1038.32 137.882 915.108 55.8149 865.433 -1Z" fill="url(#paint1_linear_338_175)"/>
<path d="M334.92 1661.39C462.005 1412.22 604.505 1170.92 761.355 939.329C763.422 939.086 765.474 938.828 767.542 938.584C840.509 930.238 914.024 927.289 987.433 929.949C1085.25 933.491 1182.77 940.257 1279.27 957.223C1289.91 959.093 1300.54 961.085 1311.14 963.152C1052.8 1137.53 815.7 1345.75 597.01 1573.08C590.382 1574.93 583.77 1576.82 577.157 1578.75C495.19 1602.56 414.576 1630.74 334.935 1661.39H334.92ZM1092.16 1528.26C1162.93 1537.14 1233.12 1550.73 1302.24 1568.52C1492.61 1434.32 1691.9 1313.63 1901.69 1211.99C1911.37 1207.31 1921.08 1202.67 1930.83 1198.07C1912.05 1185.85 1893.08 1173.93 1873.81 1162.6C1840.47 1143 1805.93 1125.49 1770.72 1109.54C1697.09 1076.17 1620.53 1049.43 1543.51 1024.88C1388.98 1188.96 1238.47 1356.82 1092.17 1528.28L1092.16 1528.26Z" fill="#2E3192"/>
<path d="M706.02 1545.56C693.843 1547.75 681.697 1550.06 669.582 1552.51C694.345 1547.49 719.108 1542.47 743.872 1537.47C731.224 1540.04 718.607 1542.75 706.02 1545.58C793.733 1529.81 882.617 1520.73 971.82 1520.37C988.678 1520.31 1005.52 1520.57 1022.36 1521.08C1009.46 1520.04 996.522 1519.14 983.586 1518.41C1008.82 1519.81 1034.07 1521.21 1059.3 1522.62C1046.99 1521.95 1034.68 1521.46 1022.36 1521.08C1045.68 1522.97 1068.94 1525.37 1092.16 1528.29C1238.46 1356.83 1388.97 1188.98 1543.49 1024.89C1526.45 1019.46 1509.39 1014.14 1492.34 1008.87C1432.78 990.486 1372.27 975.146 1311.12 963.182C1052.78 1137.56 815.684 1345.78 596.994 1573.11C633.083 1562.98 669.43 1553.77 706.02 1545.58V1545.56Z" fill="#2E3192"/>
<path d="M-220.214 1787.61C-195.83 1795.51 -171.447 1803.44 -147.064 1811.34C-96.108 1820.55 -46.11 1816.95 2.9455 1800.5C97.1041 1759.32 191.323 1718.24 286.82 1680.22C302.812 1673.85 318.834 1667.57 334.902 1661.39C461.988 1412.22 604.487 1170.92 761.337 939.33C667.163 950.459 573.598 969.508 481.537 991.72C410.606 1008.84 340.649 1029.77 271.588 1053.25C131.612 1100.82 -4.5793 1158.66 -140.01 1217.68C-156.458 1224.86 -172.891 1232.03 -189.339 1239.22C-227.967 1250.78 -260.848 1270.89 -287.982 1299.55C-320.407 1323.57 -344.806 1354.52 -361.193 1392.41C-379.45 1427.59 -387.994 1464.56 -386.853 1503.36C-392.098 1541.44 -387.735 1578.83 -373.734 1615.53C-362.364 1638.5 -350.993 1661.49 -339.622 1684.46C-309.052 1729.52 -269.269 1763.89 -220.244 1787.59L-220.214 1787.61Z" fill="#2E3192"/>
<path d="M1043.11 -761.457C1022.15 -541.866 987.612 -323.597 939.727 -108.293C938.283 -107.517 936.854 -106.727 935.409 -105.952C884.332 -78.6775 831.264 -55.1889 776.659 -35.8508C703.89 -10.0818 630.42 13.2395 554.747 28.777C546.401 30.4949 538.04 32.1065 529.664 33.6724C668.546 -169.12 782.056 -390.566 876.534 -620.693C880.851 -623.977 885.153 -627.276 889.455 -630.605C942.661 -671.82 993.616 -715.879 1043.13 -761.442L1043.11 -761.457ZM526.396 -444.248C471.913 -430.246 416.504 -419.847 360.668 -412.853C259.973 -259.243 148.804 -112.945 24.4396 22.4221C18.6934 28.6706 12.9169 34.8886 7.10986 41.0914C24.4245 44.6033 41.7846 47.8415 59.2208 50.5628C89.3504 55.2605 119.754 58.0883 150.202 59.5781C213.882 62.6948 277.774 60.1103 341.377 55.7774C407.124 -109.357 468.843 -276.103 526.411 -444.263L526.396 -444.248Z" fill="#485CD5"/>
<path d="M804.57 -568.901C812.855 -574.039 821.094 -579.254 829.287 -584.56C812.581 -573.705 795.874 -562.85 779.168 -551.98C787.696 -557.529 796.163 -563.185 804.585 -568.901C744.827 -531.897 682.288 -499.469 616.967 -473.335C604.623 -468.394 592.188 -463.712 579.693 -459.196C589.467 -462.176 599.211 -465.262 608.91 -468.485C589.999 -462.191 571.073 -455.897 552.163 -449.619C561.375 -452.705 570.556 -455.913 579.693 -459.212C562.044 -453.83 544.288 -448.858 526.426 -444.252C468.858 -276.092 407.139 -109.346 341.393 55.7882C355.454 54.8304 369.516 53.7966 383.547 52.702C432.541 48.9012 481.369 42.6225 529.679 33.6679C668.561 -169.124 782.071 -390.57 876.549 -620.697C853.017 -602.803 829.029 -585.502 804.585 -568.886L804.57 -568.901Z" fill="#485CD5"/>
<path d="M348.006 -411.305C332.226 -409.481 316.432 -407.946 300.607 -406.653C311.4 -407.125 322.163 -407.702 332.91 -408.371C312.738 -407.109 292.55 -405.832 272.378 -404.571C281.803 -405.163 291.197 -405.878 300.607 -406.653C230.406 -403.552 159.476 -404.905 90.0501 -415.851C99.8247 -413.312 109.675 -411.017 119.571 -408.964C99.0798 -413.175 78.588 -417.387 58.0963 -421.598C68.707 -419.439 79.3481 -417.539 90.0348 -415.851C66.5332 -421.932 43.442 -429.473 21.0349 -438.792C29.6237 -433.547 38.4103 -428.622 47.3944 -424.015C28.7421 -433.471 10.0745 -442.943 -8.57779 -452.399C1.13602 -447.488 11.017 -442.973 21.0349 -438.792C2.35211 -450.225 -15.3273 -463.193 -31.745 -477.803C-57.8917 -497.248 -86.8051 -508.817 -118.455 -512.496C-148.311 -521.436 -178.744 -522.272 -209.725 -515.005C-240.311 -510.14 -267.582 -498.418 -291.54 -479.84C-318.508 -465.352 -340.413 -444.965 -357.272 -418.648C-366.727 -400.025 -376.182 -381.401 -385.638 -362.778C-399.41 -322.931 -402.314 -282.308 -394.348 -240.926C-388.024 -222.029 -381.716 -203.131 -375.392 -184.234C-357.378 -147.276 -331.49 -117.022 -297.727 -93.4726C-275.487 -73.6936 -250.921 -56.7879 -224.638 -42.8316C-180.386 -19.3278 -136.301 3.7046 -88.3709 18.4363C-73.9902 22.8603 -59.4119 26.661 -44.7272 29.9297C-27.519 33.7608 -10.2652 37.5616 7.0646 41.0735C12.8716 34.8707 18.6634 28.6526 24.3944 22.4042C148.759 -112.948 259.928 -259.261 360.623 -412.871C356.397 -412.339 352.186 -411.807 347.96 -411.321L348.006 -411.305Z" fill="#485CD5"/>
<path d="M-773.401 855.512C-757.926 854.295 -742.876 851.392 -728.268 846.967C-739.76 850.464 -751.237 853.961 -762.73 857.457C-738.498 849.886 -716.046 838.241 -695.219 823.798C-705.04 830.7 -714.86 837.602 -724.68 844.505C-690.142 820.21 -660.606 788.847 -634.322 754.503C-641.543 763.974 -648.763 773.461 -655.984 782.933C-617.281 732.018 -586.011 674.46 -550.5 620.717C-526.634 584.595 -501.034 549.552 -472.805 517.717C-462.438 506.026 -451.523 494.928 -439.97 484.666C-421.621 468.368 -401.358 454.823 -381.352 440.958C-360.207 426.287 -337.541 414.124 -313.66 404.683C-291.101 395.774 -267.569 388.948 -244.128 382.457C-231.678 379.021 -219.015 376.239 -206.185 374.141C-169.442 368.135 -131.347 368.394 -93.4041 369.929C-66.8317 371.009 -40.0161 374.794 -13.3981 381.316C27.5093 391.35 69.0856 403.969 108.442 423.398C150.976 444.378 190.409 472.99 231.438 497.801C220.448 491.218 209.457 484.636 198.466 478.053C213.911 487.281 229.797 495.475 246.366 500.416C234.6 496.92 222.85 493.438 211.084 489.941C221.329 492.83 231.575 494.487 241.806 494.639C229.873 494.502 217.955 494.381 206.021 494.244C214.291 494.213 222.272 493.195 230.025 490.914C218.532 494.411 207.055 497.908 195.563 501.404C201.491 499.489 207.009 496.889 212.178 493.423C202.358 500.325 192.538 507.227 182.717 514.129C185.971 511.803 188.965 509.234 191.778 506.315C204.836 492.556 220.402 483.906 238.477 480.364C254.895 473.416 272.574 471.789 291.485 475.499C309.894 477.642 327.163 484.423 343.261 495.84C360.652 504.46 375.762 517.155 388.608 533.939C396.239 545.904 403.885 557.868 411.516 569.833C424.088 595.663 430.412 622.389 430.458 649.983C428.922 662.677 427.372 675.387 425.836 688.081C419.512 713.121 407.838 734.01 390.797 750.733C377.298 764.704 360.819 776.259 343.52 784.225C326.251 792.191 307.112 798.272 287.76 800.492C272.65 802.225 256.795 801.024 241.411 800.659C237.215 800.553 233.019 800.34 228.793 799.777C208.879 797.193 188.57 790.2 169.158 783.495C160.295 780.439 151.585 776.426 143.072 771.941C123.811 761.8 105.007 750.079 86.3546 738.342C69.4505 727.715 52.9567 716.161 35.9158 705.869C46.9065 712.452 57.8972 719.035 68.8879 725.617C37.4055 706.796 4.43327 692.369 -29.2078 682.259C-17.4418 685.755 -5.69095 689.237 6.07507 692.733C-30.9408 681.772 -68.4127 676.132 -105.429 675.661C-93.4953 675.797 -81.5772 675.919 -69.644 676.056C-108.332 675.721 -146.214 681.012 -182.257 691.973C-170.765 688.477 -159.288 684.98 -147.795 681.483C-181.649 691.943 -213.588 707.344 -242.592 727.715C-232.772 720.813 -222.952 713.911 -213.132 707.009C-245.876 730.254 -273.816 759.946 -298.793 792.632C-291.572 783.161 -284.351 773.674 -277.13 764.203C-317.384 817.246 -349.855 877.176 -387.038 932.955C-411.528 969.701 -437.933 1005.35 -467.363 1037.2C-497.401 1069.72 -532.456 1096.39 -569.518 1119.02C-584.567 1128.22 -600.514 1135.9 -617.266 1141.54C-644.765 1150.8 -672.676 1159.98 -702.258 1162.31C-720.074 1165.53 -737.875 1163.64 -755.676 1156.68C-773.705 1152.99 -790.579 1144.67 -806.297 1131.7C-823.126 1119.59 -836.564 1104.2 -846.612 1085.53C-859.503 1068.28 -868.092 1048.94 -872.394 1027.49C-873.929 1014.14 -875.465 1000.78 -877 987.427C-876.833 960.731 -870.843 936.619 -859.001 915.092C-851.781 905.62 -844.56 896.134 -837.339 886.662C-819.371 869.453 -798.058 859.054 -773.416 855.451L-773.401 855.512Z" fill="#BEFEDC"/>
</g>
<defs>
<linearGradient id="paint0_linear_338_175" x1="572.242" y1="1207.37" x2="1316.26" y2="-836.589" gradientUnits="userSpaceOnUse">
<stop offset="0.15" stop-color="#FF8700"/>
<stop offset="0.75" stop-color="#34348D"/>
</linearGradient>
<linearGradient id="paint1_linear_338_175" x1="-2" y1="473.243" x2="1286" y2="473.243" gradientUnits="userSpaceOnUse">
<stop stop-color="#FE8400"/>
<stop offset="1" stop-color="#E1F69B"/>
</linearGradient>
<clipPath id="clip0_338_175">
<rect width="1280" height="1052" fill="white"/>
</clipPath>
</defs>
</svg>
