<svg width="29" height="24" viewBox="0 0 29 24" fill="none" xmlns="http://www.w3.org/2000/svg">
<g clip-path="url(#clip0_1000_4231)">
<path d="M28.8441 2.76474C27.7635 3.2355 26.6203 3.54745 25.4505 3.69139C26.6803 2.95033 27.6007 1.78971 28.0425 0.423556C26.8835 1.11468 25.6127 1.59871 24.2875 1.85343C23.474 0.992618 22.4215 0.395304 21.2652 0.138963C20.1089 -0.117378 18.902 -0.020485 17.801 0.415885C16.6999 0.852255 15.7553 1.60867 15.0885 2.58754C14.4217 3.5664 14.0636 4.72238 14.0606 5.90677C14.0595 6.36175 14.1124 6.81504 14.2179 7.25763C11.8655 7.14262 9.56323 6.53496 7.4605 5.47412C5.35777 4.41329 3.50138 2.92303 2.01104 1.09937C1.26677 2.39683 1.04091 3.92806 1.37895 5.38514C1.717 6.84222 2.59338 8.11722 3.8329 8.95444C2.89181 8.92305 1.97146 8.6705 1.14652 8.2165V8.29474C1.14377 9.65613 1.61173 10.9765 2.47053 12.0328C3.32934 13.0891 4.52628 13.8165 5.85957 14.0917C4.98827 14.3245 4.07679 14.3617 3.1893 14.2014C3.57093 15.3746 4.30857 16.4 5.29959 17.1348C6.29061 17.8696 7.48583 18.2779 8.71931 18.3023C6.62569 19.9408 4.04131 20.8264 1.38279 20.8161C0.910265 20.8212 0.437306 20.7945 -0.0317383 20.7371C2.5087 22.3656 5.44045 23.2811 8.45619 23.3874C11.4719 23.4937 14.461 22.7872 17.1098 21.3415C19.7586 19.8959 21.97 17.7641 23.512 15.1702C25.0541 12.5764 25.8701 9.61554 25.8747 6.59792V5.90677C27.045 5.04621 28.0511 3.98187 28.8441 2.76474Z" fill="#485CD5"/>
</g>
<defs>
<clipPath id="clip0_1000_4231">
<rect width="28.8438" height="23.4238" fill="white"/>
</clipPath>
</defs>
</svg>
