<svg width="40" height="40" viewBox="0 0 40 40" fill="none" xmlns="http://www.w3.org/2000/svg">
<circle cx="20" cy="20" r="20" fill="#485CD5"/>
<g clip-path="url(#clip0_937_2308)">
<path d="M29.0002 14.6524C28.3633 14.9338 27.6895 15.1202 27 15.2063C27.7249 14.7634 28.2673 14.0697 28.5277 13.2531C27.8446 13.6662 27.0957 13.9555 26.3146 14.1078C25.8352 13.5933 25.2148 13.2363 24.5333 13.0831C23.8518 12.9298 23.1405 12.9878 22.4916 13.2486C21.8426 13.5094 21.2859 13.9615 20.8929 14.5465C20.4999 15.1316 20.2888 15.8225 20.2871 16.5304C20.2864 16.8023 20.3176 17.0732 20.3798 17.3377C18.9933 17.269 17.6364 16.9058 16.3971 16.2718C15.1578 15.6377 14.0637 14.747 13.1853 13.6571C12.7466 14.4325 12.6135 15.3477 12.8128 16.2186C13.012 17.0895 13.5285 17.8515 14.2591 18.3519C13.7044 18.3331 13.162 18.1822 12.6758 17.9108V17.9576C12.6741 18.7713 12.9499 19.5604 13.4561 20.1918C13.9623 20.8231 14.6677 21.2579 15.4535 21.4223C14.94 21.5615 14.4028 21.5837 13.8797 21.4879C14.1047 22.1891 14.5394 22.8019 15.1235 23.2411C15.7076 23.6803 16.412 23.9244 17.139 23.9389C15.9051 24.9182 14.3819 25.4476 12.815 25.4414C12.5365 25.4445 12.2578 25.4285 11.9813 25.3942C13.4786 26.3675 15.2065 26.9147 16.9839 26.9782C18.7614 27.0417 20.5231 26.6195 22.0842 25.7554C23.6454 24.8914 24.9487 23.6173 25.8576 22.067C26.7664 20.5167 27.2473 18.747 27.2501 16.9435V16.5304C27.9399 16.016 28.5328 15.3799 29.0002 14.6524Z" fill="white"/>
</g>
<defs>
<clipPath id="clip0_937_2308">
<rect width="17" height="14" fill="white" transform="translate(12 13)"/>
</clipPath>
</defs>
</svg>
