<svg width="36" height="36" viewBox="0 0 36 36" fill="none" xmlns="http://www.w3.org/2000/svg">
<path d="M18.6 7.71598L30.375 4.49998L18.6 1.28848C18.212 1.18346 17.803 1.18346 17.415 1.28848L5.625 4.49998L17.4075 7.71448C17.7977 7.82134 18.2095 7.82186 18.6 7.71598Z" stroke="#000542" stroke-width="1.7" stroke-linecap="round" stroke-linejoin="round"/>
<path d="M25.875 10.731V5.72998" stroke="#000542" stroke-width="1.7" stroke-linecap="round" stroke-linejoin="round"/>
<path d="M11.25 6.03601V10.2705" stroke="#000542" stroke-width="1.7" stroke-linecap="round" stroke-linejoin="round"/>
<path d="M5.625 4.50146V9.00146" stroke="#000542" stroke-width="1.7" stroke-linecap="round" stroke-linejoin="round"/>
<path d="M12.375 19.1265C14.8603 19.1265 16.875 17.1117 16.875 14.6265C16.875 12.1412 14.8603 10.1265 12.375 10.1265C9.88972 10.1265 7.875 12.1412 7.875 14.6265C7.875 17.1117 9.88972 19.1265 12.375 19.1265Z" stroke="#000542" stroke-width="1.7" stroke-linecap="round" stroke-linejoin="round"/>
<path d="M12.375 14.064C12.2258 14.064 12.0827 14.1232 11.9773 14.2287C11.8718 14.3342 11.8125 14.4773 11.8125 14.6265" stroke="#000542" stroke-width="1.7" stroke-linecap="round" stroke-linejoin="round"/>
<path d="M12.9375 14.6265C12.9375 14.4773 12.8782 14.3342 12.7727 14.2287C12.6673 14.1232 12.5242 14.064 12.375 14.064" stroke="#000542" stroke-width="1.7" stroke-linecap="round" stroke-linejoin="round"/>
<path d="M12.375 15.189C12.5242 15.189 12.6673 15.1297 12.7727 15.0242C12.8782 14.9187 12.9375 14.7756 12.9375 14.6265" stroke="#000542" stroke-width="1.7" stroke-linecap="round" stroke-linejoin="round"/>
<path d="M11.8125 14.6265C11.8125 14.7756 11.8718 14.9187 11.9773 15.0242C12.0827 15.1297 12.2258 15.189 12.375 15.189" stroke="#000542" stroke-width="1.7" stroke-linecap="round" stroke-linejoin="round"/>
<path d="M23.625 19.1265C26.1103 19.1265 28.125 17.1117 28.125 14.6265C28.125 12.1412 26.1103 10.1265 23.625 10.1265C21.1397 10.1265 19.125 12.1412 19.125 14.6265C19.125 17.1117 21.1397 19.1265 23.625 19.1265Z" stroke="#000542" stroke-width="1.7" stroke-linecap="round" stroke-linejoin="round"/>
<path d="M23.625 14.064C23.4758 14.064 23.3327 14.1232 23.2273 14.2287C23.1218 14.3342 23.0625 14.4773 23.0625 14.6265" stroke="#000542" stroke-width="1.7" stroke-linecap="round" stroke-linejoin="round"/>
<path d="M24.1875 14.6265C24.1875 14.4773 24.1282 14.3342 24.0227 14.2287C23.9173 14.1232 23.7742 14.064 23.625 14.064" stroke="#000542" stroke-width="1.7" stroke-linecap="round" stroke-linejoin="round"/>
<path d="M23.625 15.189C23.7742 15.189 23.9173 15.1297 24.0227 15.0242C24.1282 14.9187 24.1875 14.7756 24.1875 14.6265" stroke="#000542" stroke-width="1.7" stroke-linecap="round" stroke-linejoin="round"/>
<path d="M23.0625 14.6265C23.0625 14.7756 23.1218 14.9187 23.2273 15.0242C23.3327 15.1297 23.4758 15.189 23.625 15.189" stroke="#000542" stroke-width="1.7" stroke-linecap="round" stroke-linejoin="round"/>
<path d="M14.2266 18.729L18.0006 22.5015L21.7746 18.729" stroke="#000542" stroke-width="1.7" stroke-linecap="round" stroke-linejoin="round"/>
<path d="M27 22.5V26.0055C27 28.3924 26.0518 30.6816 24.364 32.3695C22.6761 34.0573 20.3869 35.0055 18 35.0055C15.6131 35.0055 13.3239 34.0573 11.636 32.3695C9.94821 30.6816 9 28.3924 9 26.0055V22.5" stroke="#000542" stroke-width="1.7" stroke-linecap="round" stroke-linejoin="round"/>
<path d="M27.3378 17.1705C27.9954 17.0873 28.6631 17.1441 29.2971 17.3374C29.9311 17.5306 30.5171 17.8558 31.0165 18.2915C31.5159 18.7273 31.9174 19.2638 32.1947 19.8658C32.472 20.4678 32.6187 21.1217 32.6253 21.7845V24.882C32.615 25.9685 32.3786 27.041 31.931 28.0311C31.4834 29.0212 30.8346 29.9073 30.0257 30.6329C29.2169 31.3584 28.2658 31.9076 27.2331 32.2454C26.2004 32.5832 25.1086 32.7023 24.0273 32.595" stroke="#000542" stroke-width="1.7" stroke-linecap="round" stroke-linejoin="round"/>
<path d="M8.4855 16.893C7.83483 16.8395 7.18014 16.9214 6.56275 17.1337C5.94536 17.346 5.37867 17.6839 4.89846 18.1262C4.41825 18.5685 4.03494 19.1056 3.77272 19.7034C3.51051 20.3013 3.37509 20.9471 3.375 21.6V24.75C3.37478 25.8453 3.603 26.9286 4.0451 27.9307C4.48721 28.9329 5.13346 29.8318 5.94259 30.5701C6.75172 31.3083 7.70594 31.8697 8.74428 32.2184C9.78263 32.567 10.8823 32.6953 11.973 32.595" stroke="#000542" stroke-width="1.7" stroke-linecap="round" stroke-linejoin="round"/>
</svg>
