<?xml version="1.0" encoding="UTF-8"?>
<!-- Created with Inkscape (http://www.inkscape.org/) -->
<svg width="903.11mm" height="296.52mm" version="1.1" viewBox="0 0 903.11 296.52" xmlns="http://www.w3.org/2000/svg">
 <defs>
  <clipPath id="clipPath18">
   <path d="m0 2223h2560v839.24h-2560z"/>
  </clipPath>
  <clipPath id="clipPath1204">
   <path d="m0 3187.2h2560v-3187.2h-2560z"/>
  </clipPath>
  <clipPath id="clipPath1394">
   <path d="m1820.2 2226.8h216.94v285.1h-216.94z"/>
  </clipPath>
 </defs>
 <g transform="translate(1054.4 -32.962)">
  <g transform="matrix(.35278 0 0 -.35278 -1054.4 1113.7)">
   <g clip-path="url(#clipPath18)">
    <g>
     <path d="m-4.6072 2221 1.0715-1.5893 3.52 3.529z" fill="#0080a1"/>
     <path d="m-5 2957.3v-104.91l60.643 52.453z" fill="#006dc1"/>
     <path d="m106.07 2302.8-42.976 77.584-68.091-52.453z" fill="#0081a1"/>
     <path d="m-1.9463 2218.4 1.9307 4.6004-3.52-3.529z" fill="#0080a1"/>
     <path d="m-5 2223 0.39282-1.9464 4.5916 1.9397z" fill="#0080a1"/>
     <path d="m2565 2852.4-63.842 52.453-44.644-157.36z" fill="#005382"/>
     <path d="m769.41 2264 110.59 40.337-79.534 46.285z" fill="#00ae87"/>
     <path d="m51.498 2537.7 105.12 19.024-60.895 91.616z" fill="#007aac"/>
     <path d="m2560 2223-10.008-4.9777h10l0.01 4.9777z" fill="#008ab9"/>
     <path d="m-0.015626 2223-1.9307-4.6004 1.9463-0.3929z" fill="#0080a1"/>
     <path d="m281.58 2348.7-41.576-130.73 97.47 76.145z" fill="#00889f"/>
     <path d="m-0.015626 2223-4.9844 13.12v-13.113l4.9844-0.01z" fill="#0080a1"/>
     <path d="m-0.022216 3062.2-4.7529 1.479-0.22485-1.4869 4.9778 0.01z" fill="#006dc3"/>
     <path d="m-0.022216 3062.2-4.0132 2.9452-0.73975-1.4662z" fill="#006dc3"/>
     <path d="m2e3 3015.1-28.904-112.96 103.61 53.478z" fill="#00818a"/>
     <path d="m880 2304.3v-86.354l77.893 78.281z" fill="#00b38d"/>
     <path d="m-2.9529 3066.3-1.0825-1.0823 4.0132-2.9452z" fill="#006dc3"/>
     <path d="m2.9919e-7 3067.2-1.6423-0.276 1.6201-4.7162z" fill="#006dc3"/>
     <path d="m114.25 2747.5 21.569 157.36h-80.18z" fill="#0074b9"/>
     <path d="m-1.6423 3067-1.3105-0.6887 2.9307-4.0275z" fill="#006dc3"/>
     <path d="m797.6 2645.1 86.654 46.805-83.55 52.145z" fill="#00a7b4"/>
     <path d="m960 2218-2.1074 78.281-77.893-78.281z" fill="#00b78f"/>
     <path d="m375.91 2736.3-98.688 117.69 25.536-136.41z" fill="#0081b9"/>
     <path d="m692.04 2276.6 108.43 74.014-134.87-0.2182z" fill="#00a98a"/>
     <path d="m769.41 2264 30.59-46.018 80 86.354z" fill="#00ae87"/>
     <path d="m1440 2852.4 106.2 87.93-105.65 19.508z" fill="#00b0a8"/>
     <path d="m2561.6 2218.3-1.634 4.7018-0.01-4.9777 1.6421 0.2759z" fill="#008ab9"/>
     <path d="m1446.4 2705.6 89.141-54.357-15.25 78.964z" fill="#00b1a7"/>
     <path d="m2181.8 2661.1-65.064-80.62 121.61-31.585z" fill="#007f9c"/>
     <path d="m2560 2223 1.634-4.7018 1.311 0.6887z" fill="#008ab9"/>
     <path d="m2560 2223 4.0268-2.9308 0.7398 1.4661z" fill="#008ab9"/>
     <path d="m960 3067.2 7.5992-119.43 65.043 34.667z" fill="#00a6d3"/>
     <path d="m2565 2223-4.9919-0.022 4.7666-1.4647 0.2253 1.487z" fill="#008ab9"/>
     <path d="m2320 3067.2h-80l3.0933-77.76z" fill="#00587d"/>
     <path d="m239.96 2972.3 0.0356 94.887-81.857-82.703 81.822-12.184z" fill="#0073c4"/>
     <path d="m2560 2223 2.945-4.0131 1.0818 1.0823z" fill="#008ab9"/>
     <path d="m2565 2852.4-108.49-104.91h108.49z" fill="#005382"/>
     <path d="m2319.1 2390-48.566-81.878 91.632-5.5602z" fill="#008cb5"/>
     <path d="m2320 2977.6v89.665l-76.907-77.76z" fill="#00597f"/>
     <path d="m2440 2983.9-120-6.3046 19.386-77.746z" fill="#004e7b"/>
     <path d="m2385.5 2673 98.258-82.792 4.7134 81.852z" fill="#006d98"/>
     <path d="m2561.5 3067-1.4866 0.2249 0.01-4.9781 1.4785 4.7532z" fill="#004a78"/>
     <path d="m2564.7 3063.9-4.716-1.6203 4.9919-0.022z" fill="#004a78"/>
     <path d="m-0.022216 3062.2 10.022 4.9922h-10z" fill="#006dc3"/>
     <path d="m583.78 2336 108.26-59.392-26.446 73.796z" fill="#009f92"/>
     <path d="m2564.7 3063.9-0.6892 1.3108-4.0268-2.9311z" fill="#004a78"/>
     <path d="m2320 2977.6 120 6.3046-40 83.36z" fill="#00597f"/>
     <path d="m2563 3066.3-2.945-4.0134 4.0268 2.9311z" fill="#004a78"/>
     <path d="m2419.3 2893.8 37.231-146.25 44.644 157.36z" fill="#005480"/>
     <path d="m2561.5 3067-1.4785-4.7532 2.945 4.0134z" fill="#004a78"/>
     <path d="m2565 3049.1v13.113l-4.9919 0.022z" fill="#004a78"/>
     <path d="m2565 2327.9v104.91l-68.091-52.453z" fill="#0087b6"/>
     <path d="m63.091 2380.3-68.091 52.453v-104.91z" fill="#007fa4"/>
     <path d="m1606 2989.8 74.941-20.35-0.9528 97.772z" fill="#00a99b"/>
     <path d="m2440 2983.9 125-26.546v52.453z" fill="#004e7b"/>
     <path d="m158.14 2984.5-78.143 82.703-4.3272-82.357z" fill="#006fc3"/>
     <path d="m402.72 2806.9 77.238-48.346-9.9941 125.69z" fill="#0081bf"/>
     <path d="m2480 2218-26.066 84.774-53.934-84.774z" fill="#008bb9"/>
     <path d="m2054.7 2404.9 31.992-90.84 53.689 79.956z" fill="#009ab0"/>
     <path d="m2400 3067.2 40-83.36 40 83.36z" fill="#00507b"/>
     <path d="m2565 3009.8-45 57.453-80-83.36z" fill="#004a79"/>
     <path d="m106.07 2302.8 53.933-84.774 40.449 84.279z" fill="#0081a1"/>
     <path d="m-5 2275.4 45-57.453 66.067 84.774z" fill="#0080a2"/>
     <path d="m75.673 2984.9-80.673 24.904v-52.453z" fill="#006dc2"/>
     <path d="m55.643 2904.9 20.03 80.001-80.673-27.549z" fill="#006ec0"/>
     <path d="m2453.9 2302.8 111.07-27.322v52.453z" fill="#008ab8"/>
     <path d="m2496.9 2380.3-42.976-77.584 111.07 25.131z" fill="#0086b4"/>
     <path d="m2480 3067.2-40-83.36 80 83.36z" fill="#004b79"/>
     <path d="m2565 3036-45 31.226 45-57.453z" fill="#004a78"/>
     <path d="m80 2218 26.067 84.774-66.067-84.774z" fill="#0081a1"/>
     <path d="m-5 2249.2 45-31.226-45 57.453z" fill="#0080a1"/>
     <path d="m75.673 2984.9-35.673 82.357-45-57.453z" fill="#006dc2"/>
     <path d="m-5 3036v-26.226l45 57.453z" fill="#006dc3"/>
     <path d="m2453.9 2302.8 66.066-84.774 45 57.453z" fill="#008ab8"/>
     <path d="m2565 2249.2v26.226l-45-57.453z" fill="#008ab9"/>
     <path d="m2540 3067.2h-20l45-31.226z" fill="#004a78"/>
     <path d="m2565 3049.1-25 18.113 25-31.226z" fill="#004a78"/>
     <path d="m20 2218h20l-45 31.226z" fill="#0080a1"/>
     <path d="m-5 2236.1 25-18.113-25 31.226z" fill="#0080a1"/>
     <path d="m-5 3036 45 31.226h-20z" fill="#006dc3"/>
     <path d="m-5 3049.1v-13.113l25 31.226z" fill="#006dc3"/>
     <path d="m2565 2249.2-45-31.226h20z" fill="#008ab9"/>
     <path d="m2565 2236.1v13.113l-25-31.226z" fill="#008ab9"/>
     <path d="m2550 3067.2h-10l25-18.113z" fill="#004a78"/>
     <path d="m2565 3049.1-4.9919 13.135-10.008 4.9781z" fill="#004a78"/>
     <path d="m10 2218h10l-25 18.113z" fill="#0080a1"/>
     <path d="m-5 2236.1 4.9844-13.12 10.016-4.9933z" fill="#0080a1"/>
     <path d="m-0.022216 3062.2-4.9778-0.0079v-13.113z" fill="#006dc3"/>
     <path d="m20 3067.2h-10l-15-18.113z" fill="#006dc3"/>
     <path d="m2560 2223 4.9919 0.022v13.113l-4.9919-13.136z" fill="#008ab9"/>
     <path d="m2540 2218h10l15 18.113z" fill="#008ab9"/>
     <path d="m2560 3062.3-0.01 4.9781h-10l10.008-4.9781z" fill="#004a78"/>
     <path d="m-0.015626 2223 0.015626-4.9933h10z" fill="#0080a1"/>
     <path d="m-5 3049.1 15 18.113-10.022-4.9922z" fill="#006dc3"/>
     <path d="m2565 2236.1-15-18.113 10.008 4.9777z" fill="#008ab9"/>
     <path d="m2440 2983.9-20.718-90.109 81.876 11.111z" fill="#004e7b"/>
     <path d="m2565 2852.4v104.91l-63.842-52.453z" fill="#005382"/>
     <path d="m2440 2983.9 61.158-78.998 63.842 52.453z" fill="#004e7b"/>
     <path d="m320 2218h160l-64.887 67.487z" fill="#008b9b"/>
     <path d="m196.33 2655.9 74.28-5.5262-46.279 79.87z" fill="#007ab3"/>
     <path d="m-5 2747.5v-104.91l100.72 5.7347z" fill="#0072b8"/>
     <path d="m213.56 2899 26.402 73.354-81.822 12.184z" fill="#0073c1"/>
     <path d="m2483.8 2590.2-29.817-109.09 111.07 56.641z" fill="#0073a0"/>
     <path d="m2411 2380.3-86.693 101.95-5.1965-92.253z" fill="#0088b5"/>
     <path d="m2074.7 2955.6 110.31-17.933-105.02 129.57z" fill="#007989"/>
     <path d="m2339.4 2899.8-96.292 89.65 44.609-150.88z" fill="#005a82"/>
     <path d="m-5 2327.9v-52.453l111.07 27.322z" fill="#007fa3"/>
     <path d="m63.091 2380.3h85.951l-42.976 82.272z" fill="#007fa4"/>
     <path d="m160 2218-53.933 84.774-26.067-84.774z" fill="#00839f"/>
     <path d="m149.04 2380.3h-85.951l42.976-77.584z" fill="#0081a3"/>
     <path d="m114.25 2747.5-58.612 157.36-60.643-52.453z" fill="#0074b9"/>
     <path d="m135.82 2904.9 22.32 79.656-82.47 0.3457z" fill="#0070c1"/>
     <path d="m2453.9 2481.1-64.648 88.383-65.02-87.147z" fill="#007fac"/>
     <path d="m2453.9 2302.8 42.976 77.584h-85.951z" fill="#008ab8"/>
     <path d="m2319.1 2390 43.066-87.439 48.824 77.739z" fill="#008cb5"/>
     <path d="m2453.9 2302.8 26.066-84.774h40z" fill="#008ab8"/>
     <path d="m1971.1 2902.1 28.904 112.96-100.08-44.524z" fill="#00878f"/>
     <path d="m2320 2977.6 80 89.665h-80z" fill="#00597f"/>
     <path d="m2456.5 2747.5-71.022-74.566 102.97-0.9401z" fill="#00618e"/>
     <path d="m2185 2937.7-110.31 17.933 5.2898-111.64z" fill="#006a86"/>
     <path d="m2378.9 2805.6 77.629-58.1-37.231 146.25z" fill="#005f89"/>
     <path d="m2080 3067.2 163.09-77.76-3.0933 77.76z" fill="#007687"/>
     <path d="m2287.7 2838.6-44.609 150.88-58.068-51.81z" fill="#006488"/>
     <path d="m769.41 2264-129.41-46.018h160z" fill="#00ae87"/>
     <path d="m1128.6 2332.2-113.24 17.271 104.66-131.5z" fill="#00b99a"/>
     <path d="m1120 2446.5-105.57 8.9902 0.9106-105.95z" fill="#00b7a0"/>
     <path d="m1440.5 2959.8-77.419-29.466 76.874-77.971z" fill="#00afa9"/>
     <path d="m880 2304.3-80-86.354h80z" fill="#00b38d"/>
     <path d="m952.41 2521.4-43.044-79.66 105.06 13.691z" fill="#00b2a5"/>
     <path d="m905.78 2878.5 86.546-0.1826-24.727 69.434z" fill="#00a7d0"/>
     <path d="m114.25 2747.5 82.073-91.614 28.001 74.344z" fill="#0074b9"/>
     <path d="m1015.3 2349.5 113.24-17.271-8.5815 114.23z" fill="#00b796"/>
     <path d="m800.47 2350.6 108.9 91.12-71.346 31.684z" fill="#00af8e"/>
     <path d="m880 2304.3 77.893-8.073-48.528 145.48z" fill="#00b38d"/>
     <path d="m549.58 2411.7 34.201-75.702 81.811 14.404z" fill="#009a99"/>
     <path d="m1120 2218-162.11 78.281 2.1074-78.281z" fill="#00ba98"/>
     <path d="m909.36 2441.8 48.528-145.48 57.447 53.219z" fill="#00b29b"/>
     <path d="m909.36 2441.8-108.9-91.12 79.534-46.285z" fill="#00b29b"/>
     <path d="m768.93 2437.1-76.573-13.641 108.11-72.809z" fill="#00ab98"/>
     <path d="m692.36 2423.4 53.972 97.51-103.95-37.916z" fill="#00a696"/>
     <path d="m549.58 2411.7 142.78 11.729-49.98 59.594z" fill="#009a99"/>
     <path d="m2339.4 2899.8 79.897-6.0589 20.718 90.109z" fill="#005a82"/>
     <path d="m2496.9 2380.3-42.976 100.72-42.976-100.72z" fill="#0086b4"/>
     <path d="m156.62 2556.7-105.12-19.024 54.569-75.086z" fill="#007cac"/>
     <path d="m135.82 2904.9 58.041-101.26 19.698 95.377z" fill="#0070c1"/>
     <path d="m402.72 2806.9-15.529 86.646-109.97-39.542z" fill="#0081bf"/>
     <path d="m160 3067.2-1.8572-82.703 81.857 82.703z" fill="#006fc4"/>
     <path d="m80 3067.2 78.143-82.703 1.8572 82.703z" fill="#006dc3"/>
     <path d="m213.56 2899-55.419 85.538-22.32-79.656z" fill="#0073c1"/>
     <path d="m193.86 2803.6-58.041 101.26-21.569-157.36z" fill="#0074bc"/>
     <path d="m277.22 2854-37.254 118.36-26.402-73.354z" fill="#0077c0"/>
     <path d="m196.33 2655.9 96.129-76.735-21.849 71.209z" fill="#007ab3"/>
     <path d="m277.22 2854-63.656 45.009-19.698-95.377z" fill="#0077c0"/>
     <path d="m223.3 2398 5.1584 76.164-79.421-93.846z" fill="#0083a2"/>
     <path d="m193.86 2803.6 30.465-73.368 52.889 123.74z" fill="#0074bc"/>
     <path d="m302.52 2501 92.074 59.764-102.14 18.365z" fill="#0085a7"/>
     <path d="m239.96 2972.3 100.94-3.944-20.905 98.831z" fill="#0073c4"/>
     <path d="m75.673 2984.9 4.3272 82.357h-40z" fill="#006dc2"/>
     <path d="m239.96 2972.3 80.036 94.887h-80l-0.0356-94.887z" fill="#0073c4"/>
     <path d="m135.82 2904.9-60.15 80.001-20.03-80.001z" fill="#0070c1"/>
     <path d="m2200.4 2850.9-120.42-6.9181 29.398-67.312z" fill="#006d8a"/>
     <path d="m2243.1 2989.5-163.09 77.76 105.02-129.57z" fill="#006182"/>
     <path d="m2308.2 2600.2-126.46 60.958 56.55-112.2z" fill="#007aa1"/>
     <path d="m909.36 2441.8 105.98-92.258-0.9106 105.95z" fill="#00b29b"/>
     <path d="m957.89 2296.3 162.11-78.281-104.66 131.5z" fill="#00b691"/>
     <path d="m827.89 2550.8 10.127-77.405 114.39 47.975z" fill="#00aba7"/>
     <path d="m640 2218 129.41 46.018-77.37 12.608z" fill="#00a58b"/>
     <path d="m800.47 2350.6-108.43-74.014 77.37-12.608z" fill="#00af8e"/>
     <path d="m568.25 2696 22.67 77.607-110.96-15.122z" fill="#0093b8"/>
     <path d="m292.46 2579.2-96.129 76.735-39.709-99.174z" fill="#0082ad"/>
     <path d="m452.85 2410.5 49.561-91.154 47.17 92.413z" fill="#00929c"/>
     <path d="m452.85 2410.5 47.386 75.902-130.45-26.317z" fill="#00929c"/>
     <path d="m2310.9 2760.1 74.635-87.118-6.6076 132.67z" fill="#00698f"/>
     <path d="m2488.5 2672 76.536 75.506h-108.49z" fill="#006996"/>
     <path d="m2389.3 2569.4-81.057 30.704 16.037-117.85z" fill="#0079a4"/>
     <path d="m2496.9 2380.3 68.091 52.453-111.07 48.264z" fill="#0086b4"/>
     <path d="m2483.8 2590.2 81.249-52.453v104.91z" fill="#0073a0"/>
     <path d="m2488.5 2672-4.7134-81.852 81.249 52.453z" fill="#006996"/>
     <path d="m2453.9 2481.1 111.07-48.264v104.91z" fill="#007fac"/>
     <path d="m2453.9 2481.1 29.817 109.09-94.465-20.711z" fill="#007fac"/>
     <path d="m2565 2747.5-76.536-75.506 76.536-29.4z" fill="#005f8d"/>
     <path d="m2378.9 2805.6 6.6076-132.67 71.022 74.566z" fill="#005f89"/>
     <path d="m95.724 2648.3 18.531 99.171h-119.25z" fill="#0077b2"/>
     <path d="m114.25 2747.5-18.531-99.171 100.6 7.5573z" fill="#0074b9"/>
     <path d="m355.83 2637.7-63.371-58.57 102.14-18.365z" fill="#0084b1"/>
     <path d="m224.33 2730.2 46.279-79.87 32.145 67.192z" fill="#0078b8"/>
     <path d="m277.22 2854-52.889-123.74 78.424-12.678z" fill="#0077c0"/>
     <path d="m114.25 2747.5 110.07-17.27-30.465 73.368z" fill="#0074b9"/>
     <path d="m-5 2432.8 56.498 104.91-56.498 104.91z" fill="#007da6"/>
     <path d="m95.724 2648.3-100.72-5.7347 56.498-104.91z" fill="#0077b2"/>
     <path d="m106.07 2462.6-111.07-29.819 68.091-52.453z" fill="#007da7"/>
     <path d="m106.07 2462.6-54.569 75.086-56.498-104.91z" fill="#007da7"/>
     <path d="m228.46 2474.2-122.4-11.574 42.976-82.272z" fill="#0082a6"/>
     <path d="m196.33 2655.9-100.6-7.5573 60.895-91.616z" fill="#007ab3"/>
     <path d="m200.45 2302.3 81.127 46.448-58.272 49.314z" fill="#0084a0"/>
     <path d="m302.52 2501-79.219-103.01 58.272-49.314z" fill="#0085a7"/>
     <path d="m106.07 2462.6 122.4 11.574-71.844 82.536z" fill="#007da7"/>
     <path d="m292.46 2579.2-135.84-22.438 71.844-82.536z" fill="#0082ad"/>
     <path d="m281.58 2348.7-81.127-46.448 39.551-84.279z" fill="#00889f"/>
     <path d="m228.46 2474.2 74.06 26.844-10.066 78.129z" fill="#0082a6"/>
     <path d="m200.45 2302.3 22.855 95.762-74.262-17.683z" fill="#0084a0"/>
     <path d="m302.52 2501-20.947-152.32 88.209 111.32z" fill="#0085a7"/>
     <path d="m452.85 2410.5-83.065 49.584 1.5245-91.816z" fill="#00929c"/>
     <path d="m502.41 2319.3-49.561 91.154-37.738-124.97z" fill="#009895"/>
     <path d="m223.3 2398 79.219 103.01-74.06-26.844z" fill="#0083a2"/>
     <path d="m394.6 2560.8-92.074-59.764 67.262-41.004z" fill="#0089aa"/>
     <path d="m270.61 2650.4 21.849-71.209 63.371 58.57z" fill="#007eb2"/>
     <path d="m590.92 2773.7 78.253-81.442 0.19726 101z" fill="#0092c0"/>
     <path d="m2080 3067.2-80-52.153 74.71-59.484z" fill="#007687"/>
     <path d="m1899.9 2970.6 100.08 44.524-80 52.153z" fill="#008e8e"/>
     <path d="m2080 3067.2h-160l80-52.153z" fill="#007687"/>
     <path d="m1745.9 2867.5-64.94 101.95-41.24-135.31z" fill="#00a096"/>
     <path d="m1639.7 2834.1 41.24 135.31-74.941 20.35z" fill="#00a89c"/>
     <path d="m1716.9 2774.1 62.801-104.31 50.748 101.61z" fill="#00a49b"/>
     <path d="m1830.5 2771.4 25.778 110.62-110.35-14.49z" fill="#009a98"/>
     <path d="m2080 2844-5.2898 111.64-103.61-53.478z" fill="#007c8f"/>
     <path d="m1600 3067.2 6.0118-77.422 73.988 77.422z" fill="#00a99b"/>
     <path d="m1856.2 2882 114.85 20.118-71.176 68.438z" fill="#009593"/>
     <path d="m1840 3039.1 80 28.163h-160z" fill="#00958f"/>
     <path d="m1745.9 2867.5 48.57 100.01-113.51 1.9419z" fill="#00a096"/>
     <path d="m1681 2969.5 113.51-1.9419-34.462 99.714z" fill="#00a496"/>
     <path d="m1078.8 2880.8 75.849-99.852 51.587 91.094z" fill="#00adc6"/>
     <path d="m1174.3 2393.1 25.747-123.67 73.738 45.612z" fill="#00b99e"/>
     <path d="m1440 3067.2-80-54.126 80.545-53.312z" fill="#00afa9"/>
     <path d="m1639.7 2834.1-93.514 106.14-6.6216-100.1z" fill="#00a89c"/>
     <path d="m1520 3026.3 86.012-36.453-6.0118 77.422z" fill="#00aca2"/>
     <path d="m1639.7 2834.1-33.701 155.66-59.813-49.524z" fill="#00a89c"/>
     <path d="m2339.4 2899.8 39.499-94.206 40.398 88.147z" fill="#005a82"/>
     <path d="m2378.9 2805.6-91.183 32.976 23.156-78.524z" fill="#005f89"/>
     <path d="m2181.9 2764.7 128.99-4.6398-23.156 78.524z" fill="#007692"/>
     <path d="m2181.9 2764.7-0.1-103.6 101.24 21.972-101.14 81.627z" fill="#007692"/>
     <path d="m2308.2 2600.2 77.264 72.799-102.48 10.13z" fill="#007aa1"/>
     <path d="m2483.8 2590.2-98.258 82.792 3.793-103.5z" fill="#0073a0"/>
     <path d="m2287.7 2838.6-87.282 12.283-18.547-86.168z" fill="#006488"/>
     <path d="m2385.5 2673-74.635 87.118-27.842-76.988z" fill="#006d98"/>
     <path d="m2080 2844-108.9 58.16 25.38-83.517z" fill="#007c8f"/>
     <path d="m2283 2683.1 27.842 76.988-128.99 4.6398z" fill="#007398"/>
     <path d="m2243.1 2989.5 96.292-89.65-19.386 77.746z" fill="#006182"/>
     <path d="m2378.9 2805.6-39.499 94.206-51.684-61.23z" fill="#005f89"/>
     <path d="m1120 2218 80 51.427-71.418 62.803z" fill="#00ba98"/>
     <path d="m2109.4 2776.6-36.689-63.632 109.16 51.694z" fill="#007d93"/>
     <path d="m1120 2218h160l-80 51.427z" fill="#00ba98"/>
     <path d="m1360 2218-86.262 97.039 6.2618-97.039z" fill="#00b9a0"/>
     <path d="m2072.7 2713 109.06-51.906 0.1 103.6-109.16-51.694z" fill="#008599"/>
     <path d="m1920 3067.2-80-28.163 59.919-68.514z" fill="#008b8d"/>
     <path d="m1353.4 2555.4-54.246-64.922 77.119-34.788z" fill="#00b6a6"/>
     <path d="m1120 2446.5 8.5815-114.23 45.671 60.868z" fill="#00b7a0"/>
     <path d="m1200 2269.4-25.747 123.67-45.671-60.868z" fill="#00ba9b"/>
     <path d="m1299.1 2490.4-48.973-91.977 77.696-3.7073z" fill="#00b7a4"/>
     <path d="m1077.3 2569.8-62.911-114.41 105.57-8.9902z" fill="#00b4ab"/>
     <path d="m952.41 2521.4 124.93 48.44-53.369 70.064z" fill="#00b2a5"/>
     <path d="m1120 2446.5 32.212 80.21-74.872 43.19z" fill="#00b7a0"/>
     <path d="m1440.5 2959.8-80.545 53.312 3.126-82.778z" fill="#00afa9"/>
     <path d="m1024 2639.9-53.527 122.08-29.735-150.79z" fill="#00b1b2"/>
     <path d="m940.71 2611.2-112.82-60.356 124.52-29.43z" fill="#00afb0"/>
     <path d="m1174.3 2393.1 75.907 5.3787-34.014 75.527z" fill="#00b99e"/>
     <path d="m1077.3 2569.8 72.438 59.35-125.81 10.713z" fill="#00b4ab"/>
     <path d="m1077.3 2569.8-124.93-48.44 62.02-65.969z" fill="#00b4ab"/>
     <path d="m940.71 2611.2-56.458 80.698-86.654-46.805z" fill="#00afb0"/>
     <path d="m709.63 2599.7 36.705-78.725 81.557 29.89z" fill="#00a2ad"/>
     <path d="m827.89 2550.8-81.557-29.89 91.684-47.516z" fill="#00aba7"/>
     <path d="m642.38 2483 103.95 37.916-36.705 78.725z" fill="#00a09e"/>
     <path d="m838.02 2473.4-91.684 47.516 22.601-83.87z" fill="#00ae9d"/>
     <path d="m800.47 2350.6-108.11 72.809-26.767-73.027z" fill="#00af8e"/>
     <path d="m746.33 2521-53.972-97.51 76.573 13.641z" fill="#00a7a2"/>
     <path d="m665.59 2350.4 26.767 73.027-142.78-11.729z" fill="#00a590"/>
     <path d="m560 2253.4-57.588 65.872-22.412-101.31z" fill="#009e8f"/>
     <path d="m604.01 2582.9-106.72-7.0814 74.688-62.522z" fill="#009aaa"/>
     <path d="m371.31 2368.2-1.5245 91.816-88.209-111.32z" fill="#008d9d"/>
     <path d="m709.63 2599.7-105.62-16.811 38.375-99.83z" fill="#00a2ad"/>
     <path d="m469.96 2884.2 9.9941-125.69 54.521 73.01z" fill="#0085c6"/>
     <path d="m415.11 2285.5 64.887-67.487 22.412 101.31z" fill="#009297"/>
     <path d="m500.24 2486.4-47.386-75.902 96.731 1.2595z" fill="#0094a1"/>
     <path d="m480 2218h160l-80 35.434z" fill="#009794"/>
     <path d="m415.11 2285.5 37.738 124.97-81.541-42.231z" fill="#009297"/>
     <path d="m571.98 2513.3-22.394-101.55 92.799 71.323z" fill="#0099a3"/>
     <path d="m500.24 2486.4-2.9486 89.43-102.69-14.979z" fill="#0094a1"/>
     <path d="m583.78 2336-23.783-82.584 80-35.434z" fill="#009f92"/>
     <path d="m337.47 2294.1 33.84 74.084-89.734-19.503z" fill="#008c9b"/>
     <path d="m640 2218 52.04 58.626-108.26 59.392z" fill="#00a58b"/>
     <path d="m549.58 2411.7-47.17-92.413 81.371 16.711z" fill="#009a99"/>
     <path d="m560 2253.4 23.783 82.584-81.371-16.711z" fill="#009e8f"/>
     <path d="m320 2218 95.113 67.487-77.642 8.6577z" fill="#008b9b"/>
     <path d="m371.31 2368.2-33.84-74.084 77.642-8.6577z" fill="#008d9d"/>
     <path d="m106.07 2302.8 94.382-0.4956-51.407 78.079z" fill="#0081a1"/>
     <path d="m337.47 2294.1-97.47-76.145h80z" fill="#008c9b"/>
     <path d="m355.83 2637.7-53.074 79.831-32.145-67.192z" fill="#0084b1"/>
     <path d="m200.45 2302.3-40.449-84.279h80z" fill="#0084a0"/>
     <path d="m469.96 2884.2-82.773 9.2988 15.529-86.646z" fill="#0085c6"/>
     <path d="m1868 2689.2-70.049-99.058 81.186 9.3657z" fill="#009a9c"/>
     <path d="m1606 2989.8-86.012 36.453 26.198-85.977z" fill="#00a99b"/>
     <path d="m2232.9 2423.4 5.4355 125.53-80.337-59.405z" fill="#008fb3"/>
     <path d="m2287.7 2838.6-102.68 99.07 15.395-86.786z" fill="#006488"/>
     <path d="m2080 2844 120.42 6.9181-15.395 86.786z" fill="#007c8f"/>
     <path d="m1996.5 2818.6 76.233-105.59 36.689 63.632z" fill="#008792"/>
     <path d="m2181.8 2661.1-109.06 51.906-6.3862-75.687z" fill="#007f9c"/>
     <path d="m1786.6 2371.7-65.541-59.274 110.23-9.8285z" fill="#00a9a9"/>
     <path d="m2324.3 2482.3-85.942 66.604-5.4355-125.53z" fill="#0085ae"/>
     <path d="m1440 2852.4-76.874 77.971 16.172-118.75z" fill="#00b0a8"/>
     <path d="m1149.8 2629.2 2.4336-102.54 81.692 28.241z" fill="#00b4af"/>
     <path d="m970.44 2762 53.527-122.08 64.448 60.031z" fill="#00acc2"/>
     <path d="m952.41 2521.4 71.562 118.5-83.262-28.718z" fill="#00b2a5"/>
     <path d="m1078.8 2880.8-18.812-91.697 94.66-8.1544z" fill="#00adc6"/>
     <path d="m905.78 2878.5-24.014-89.539 88.678-27.021z" fill="#00a7d0"/>
     <path d="m800.47 2350.6 37.552 122.8-69.084-36.354z" fill="#00af8e"/>
     <path d="m952.41 2521.4-114.39-47.975 71.346-31.684z" fill="#00b2a5"/>
     <path d="m500.24 2486.4-105.64 74.451-24.811-100.77z" fill="#0094a1"/>
     <path d="m394.6 2560.8 102.69 14.979-68.053 107.05z" fill="#0089aa"/>
     <path d="m429.24 2682.8 68.053-107.05 4.823 78.222z" fill="#0088b5"/>
     <path d="m429.24 2682.8 50.72 75.701-104.05-22.243z" fill="#0088b5"/>
     <path d="m568.25 2696-66.138-42.044 101.89-71.141z" fill="#0093b8"/>
     <path d="m827.89 2550.8-30.295 94.249-87.968-45.414z" fill="#00aba7"/>
     <path d="m375.91 2736.3 104.05 22.243-77.238 48.346z" fill="#0081b9"/>
     <path d="m479.96 2758.5-50.72-75.701 72.876-28.828z" fill="#0089bd"/>
     <path d="m277.22 2854 98.688-117.69 26.811 70.59z" fill="#0077c0"/>
     <path d="m355.83 2637.7 20.078 98.551-73.153-18.72z" fill="#0084b1"/>
     <path d="m394.6 2560.8 34.638 122.03-73.407-45.093z" fill="#0089aa"/>
     <path d="m355.83 2637.7 73.407 45.093-53.329 53.458z" fill="#0084b1"/>
     <path d="m604.01 2582.9-101.89 71.141-4.823-78.222z" fill="#009aaa"/>
     <path d="m479.96 2758.5 22.156-104.53 66.138 42.044z" fill="#0089bd"/>
     <path d="m604.01 2582.9 105.62 16.811-40.456 92.539z" fill="#009aaa"/>
     <path d="m571.98 2513.3-74.688 62.522 2.9486-89.43z" fill="#0099a3"/>
     <path d="m549.58 2411.7 22.394 101.55-71.739-26.908z" fill="#009a99"/>
     <path d="m642.38 2483-38.375 99.83-32.03-69.604z" fill="#00a09e"/>
     <path d="m534.48 2831.5-54.521-73.01 110.96 15.122z" fill="#008cc4"/>
     <path d="m400 3032.5-80 34.705 20.905-98.831z" fill="#007dc9"/>
     <path d="m277.22 2854 63.687 114.42-100.94 3.944z" fill="#0077c0"/>
     <path d="m340.9 2968.4 131.19 7.4852-72.099 56.641z" fill="#0079c6"/>
     <path d="m469.96 2884.2 2.1376 91.662-84.911-82.363z" fill="#0085c6"/>
     <path d="m277.22 2854 109.97 39.542-46.283 74.878z" fill="#0077c0"/>
     <path d="m650.05 2988.8-90.055 47.44 19.698-83.495z" fill="#0093d0"/>
     <path d="m560 3036.3-87.901-60.371 107.6-23.124z" fill="#008bce"/>
     <path d="m905.78 2878.5-91.961 71.538-24.11-90.687z" fill="#00a7d0"/>
     <path d="m340.9 2968.4 46.283-74.878 84.911 82.363z" fill="#0079c6"/>
     <path d="m1520 3026.3-79.455-66.469 105.65-19.508z" fill="#00aca2"/>
     <path d="m1360 3013.1 80 54.126h-160z" fill="#00b0b0"/>
     <path d="m1266.4 2960.9 93.643 52.223-80 54.126z" fill="#00b0b9"/>
     <path d="m1266.4 2960.9 56.422-102.9 40.347 72.347z" fill="#00b0b9"/>
     <path d="m1159.9 2968.2-127.22 14.258 46.195-101.63z" fill="#00aec2"/>
     <path d="m1257 2803 65.754 54.946-116.51 14.097z" fill="#00b2b5"/>
     <path d="m967.6 2947.8-7.5992 119.43-57.836-85.514z" fill="#00a7d0"/>
     <path d="m1266.4 2960.9-60.084-88.805 116.51-14.097z" fill="#00b0b9"/>
     <path d="m1154.7 2781 92.045-63.019 10.294 85.069z" fill="#00b1ba"/>
     <path d="m1159.9 2968.2 46.412-96.129 60.084 88.805z" fill="#00aec2"/>
     <path d="m1375.8 2738.5 3.5049 73.046-122.27-8.5385z" fill="#00b2ab"/>
     <path d="m1280 3067.2h-160l80-25.332z" fill="#00afb8"/>
     <path d="m1159.9 2968.2 106.5-7.3244-66.357 81.017z" fill="#00aec2"/>
     <path d="m1266.4 2960.9 96.769-30.555-3.126 82.778z" fill="#00b0b9"/>
     <path d="m1363.1 2930.3-40.347-72.347 56.519-46.408z" fill="#00b0af"/>
     <path d="m1032.6 2982.5 127.22-14.258-39.861 99.025z" fill="#00a9cd"/>
     <path d="m1078.8 2880.8 127.44-8.7578-46.412 96.129z" fill="#00adc6"/>
     <path d="m1088.4 2699.9-64.448-60.031 125.81-10.713z" fill="#00b1b7"/>
     <path d="m1531 2483 89.638-6.1778-100 95.428z" fill="#00b2a4"/>
     <path d="m1154.7 2781 102.34 22.05-50.752 69.044z" fill="#00b1ba"/>
     <path d="m1375.8 2738.5-118.77 64.508-10.294-85.069z" fill="#00b2ab"/>
     <path d="m1200 3041.9 66.357-81.017 13.643 106.35z" fill="#00aec0"/>
     <path d="m1088.4 2699.9 61.36-70.744 20.151 75.321z" fill="#00b1b7"/>
     <path d="m1040 3067.2h-80l72.643-84.767z" fill="#00a9ce"/>
     <path d="m1088.4 2699.9-28.392 89.197-89.582-27.152z" fill="#00b1b7"/>
     <path d="m1375.8 2738.5-52.562-85.407 98.016-21.212z" fill="#00b2ab"/>
     <path d="m1421.2 2631.9 99.363-59.672 14.913 79.029z" fill="#00b3a7"/>
     <path d="m905.78 2878.5 64.664-116.56 21.883 116.38z" fill="#00a7d0"/>
     <path d="m1078.8 2880.8-46.195 101.63-40.316-104.1z" fill="#00adc6"/>
     <path d="m1257 2803 122.27 8.5385-56.519 46.408z" fill="#00b2b5"/>
     <path d="m1379.3 2811.6-3.5049-73.046 70.589-32.905z" fill="#00b1ac"/>
     <path d="m469.96 2884.2 64.515-52.683 45.221 121.22z" fill="#0085c6"/>
     <path d="m560 3036.3 90.055-47.44-10.055 78.415z" fill="#008bce"/>
     <path d="m1060 2789.1-67.7 89.225-21.883-116.38z" fill="#00afc1"/>
     <path d="m800 3067.2 13.819-117.15 66.181 117.15z" fill="#009ed6"/>
     <path d="m800 3067.2-80-29.868 93.819-87.28z" fill="#009ed6"/>
     <path d="m1600 3067.2h-160l80-40.969z" fill="#00a99b"/>
     <path d="m902.16 2981.7 57.836 85.514h-80z" fill="#00a4d4"/>
     <path d="m1440.5 2959.8 79.455 66.469-80 40.969z" fill="#00afa9"/>
     <path d="m1539.6 2840.2 6.6216 100.1-106.2-87.93z" fill="#00ada2"/>
     <path d="m1639.7 2834.1 77.204-60.066 28.976 93.428z" fill="#00a89c"/>
     <path d="m1899.9 2970.6-105.46-3.0361 61.781-85.519z" fill="#008e8e"/>
     <path d="m1639.7 2834.1-37.84-77.106 115.04 17.04z" fill="#00a89c"/>
     <path d="m1716.9 2774.1-56.478-79.866 119.28-24.446z" fill="#00a49b"/>
     <path d="m1745.9 2867.5-28.976-93.428 113.55-2.6988z" fill="#00a096"/>
     <path d="m1750.8 2523.4 47.185 66.726-95.127 17.222z" fill="#00a8a4"/>
     <path d="m2005.5 2347.3 81.162-33.251-31.992 90.84z" fill="#009eb0"/>
     <path d="m1421.2 2631.9 19.863-108.9 79.5 49.226z" fill="#00b3a7"/>
     <path d="m1868 2689.2-37.529 82.221-50.748-101.61z" fill="#009a9c"/>
     <path d="m1996.5 2818.6-25.38 83.517-60.662-87.045z" fill="#008792"/>
     <path d="m1955.4 2741.6 35.259-110.42 82.094 81.826z" fill="#008f98"/>
     <path d="m1377.9 2302.6-50.05 92.205-54.118-79.73z" fill="#00b8a1"/>
     <path d="m2080 2218h160l-80 42.734z" fill="#009cb5"/>
     <path d="m1779.7 2669.8 18.227-79.666 70.049 99.058z" fill="#00a19e"/>
     <path d="m1910.4 2815.1-79.968-43.69 124.89-29.779z" fill="#009194"/>
     <path d="m1910.4 2815.1 60.662 87.045-114.85-20.118z" fill="#009194"/>
     <path d="m2072.7 2713-76.233 105.59-41.12-76.997z" fill="#008599"/>
     <path d="m1830.5 2771.4 79.968 43.69-54.19 66.927z" fill="#009a98"/>
     <path d="m1955.4 2741.6 41.12 76.997-86.043-3.5276z" fill="#008f98"/>
     <path d="m1779.7 2669.8-76.9-62.443 95.127-17.222z" fill="#00a19e"/>
     <path d="m1750.8 2523.4-47.942 83.949-82.206-130.52z" fill="#00a8a4"/>
     <path d="m1990.6 2631.2-122.62 57.973 11.137-89.692z" fill="#00929f"/>
     <path d="m1955.4 2741.6-124.89 29.779 37.529-82.221z" fill="#008f98"/>
     <path d="m1702.8 2607.3 76.9 62.443-119.28 24.446z" fill="#00a8a1"/>
     <path d="m1838.2 2435.8-40.271 154.28-47.185-66.726z" fill="#00a5a8"/>
     <path d="m1607 2614.4 95.837-7.0364-42.379 86.89z" fill="#00ada2"/>
     <path d="m1620.6 2476.8-13.632 137.55-86.37-42.126z" fill="#00afa4"/>
     <path d="m1607 2614.4-71.457 36.903-14.913-79.029z" fill="#00ada2"/>
     <path d="m1504.4 2397.2-128.16 58.503 42.696-76.098z" fill="#00b4a4"/>
     <path d="m1601.9 2757-66.349-105.78 124.92 42.95z" fill="#00aba0"/>
     <path d="m1376.3 2455.7 128.16-58.503-63.302 125.86z" fill="#00b7a3"/>
     <path d="m1601.9 2757 58.567-62.826 56.478 79.866z" fill="#00aba0"/>
     <path d="m1446.4 2705.6-6.3818 146.73-60.702-40.784z" fill="#00b1a7"/>
     <path d="m1353.4 2555.4 22.873-99.709 64.858 67.356z" fill="#00b6a6"/>
     <path d="m1531 2483-89.864 40.025 63.302-125.86z" fill="#00b2a4"/>
     <path d="m1660.4 2694.2-124.92-42.95 71.457-36.903z" fill="#00a99f"/>
     <path d="m1535.5 2651.3-89.141 54.357-25.134-73.714z" fill="#00b0a3"/>
     <path d="m1375.8 2738.5-129.06-20.562 76.5-64.845z" fill="#00b2ab"/>
     <path d="m1421.2 2631.9-67.868-76.544 87.731-32.353z" fill="#00b3a7"/>
     <path d="m1440 2218-62.094 84.565-17.906-84.565z" fill="#00b7a2"/>
     <path d="m1504.4 2397.2-31.424-89.863 151.72 38.962z" fill="#00b4a4"/>
     <path d="m1580.9 2410.2 43.85-63.967 91.616 68.217z" fill="#00b2a5"/>
     <path d="m1702.8 2607.3-95.837 7.0364 13.632-137.55z" fill="#00a8a1"/>
     <path d="m1446.4 2705.6 73.892 24.608-80.273 122.13z" fill="#00b1a7"/>
     <path d="m1375.8 2738.5 45.454-106.62 25.134 73.714z" fill="#00b2ab"/>
     <path d="m1246.7 2718-3.5689-81.757 80.069 16.912z" fill="#00b3b1"/>
     <path d="m1216.1 2474 82.987 16.45-65.229 64.457z" fill="#00b8a3"/>
     <path d="m1246.7 2718-92.045 63.019 15.243-76.466z" fill="#00b3b1"/>
     <path d="m1353.4 2555.4-110.22 80.844-9.2583-81.31z" fill="#00b6a6"/>
     <path d="m1421.2 2631.9-98.016 21.212 30.148-97.756z" fill="#00b3a7"/>
     <path d="m1353.4 2555.4-30.148 97.756-80.069-16.912z" fill="#00b6a6"/>
     <path d="m1868 2689.2 122.62-57.973-35.259 110.42z" fill="#009a9c"/>
     <path d="m2116.7 2580.5 41.277-90.99 80.337 59.405z" fill="#008ba4"/>
     <path d="m2238.3 2548.9 85.942-66.604-16.037 117.85z" fill="#0085a7"/>
     <path d="m2200.4 2850.9-91.022-74.23 72.475-11.938z" fill="#006d8a"/>
     <path d="m1996.5 2818.6 112.92-41.954-29.398 67.312z" fill="#008792"/>
     <path d="m2054.7 2404.9-57.028 64.865 7.8587-122.45z" fill="#009ab0"/>
     <path d="m2066.3 2637.3-75.708-6.1387 83.888-124.7z" fill="#008b9f"/>
     <path d="m1953.8 2548.7 120.68-42.245-83.888 124.7z" fill="#0099a5"/>
     <path d="m2054.7 2404.9 85.681-10.885-65.833 112.46z" fill="#009ab0"/>
     <path d="m2160 2260.7-73.353 53.345-6.6472-96.079z" fill="#0098b7"/>
     <path d="m2232.9 2423.4-74.902 66.126-17.649-95.475z" fill="#008fb3"/>
     <path d="m2158 2489.5-41.277 90.99-42.205-74.004z" fill="#008fad"/>
     <path d="m1920 2218h160l-80 53.805z" fill="#00a4af"/>
     <path d="m1990.6 2631.2-111.48-31.719 74.691-50.739z" fill="#00929f"/>
     <path d="m1797.9 2590.1 115.33-115.5-34.146 124.86z" fill="#00a3a1"/>
     <path d="m1930 2352.8-9.958-134.79 80 53.805z" fill="#00a2ae"/>
     <path d="m2086.6 2314.1 73.353-53.345 34.042 73.122z" fill="#009bb4"/>
     <path d="m2074.5 2506.5 65.833-112.46 17.649 95.475z" fill="#0093aa"/>
     <path d="m1997.6 2469.8-67.669-117 75.528-5.4581z" fill="#009aab"/>
     <path d="m1913.3 2474.6 84.35-4.8334-43.805 78.957z" fill="#009fa8"/>
     <path d="m1580.9 2410.2 135.47 4.2495-95.712 62.34z" fill="#00b2a5"/>
     <path d="m2074.5 2506.5 42.205 74.004-50.386 56.838z" fill="#0093aa"/>
     <path d="m2054.7 2404.9 19.848 101.58-76.876-36.712z" fill="#009ab0"/>
     <path d="m2319.1 2390 5.1965 92.253-91.377-58.927z" fill="#008cb5"/>
     <path d="m2453.9 2481.1-129.67 1.236 86.693-101.95z" fill="#007fac"/>
     <path d="m2181.8 2661.1-115.45-23.781 50.386-56.838z" fill="#007f9c"/>
     <path d="m2072.7 2713-82.094-81.826 75.708 6.1387z" fill="#008599"/>
     <path d="m1797.9 2590.1 40.271-154.28 75.062 38.78z" fill="#00a3a1"/>
     <path d="m2074.5 2506.5-120.68 42.245 43.805-78.957z" fill="#0093aa"/>
     <path d="m2140.3 2394 53.705-60.179 38.846 89.527z" fill="#0096b3"/>
     <path d="m2453.9 2302.8-42.976 77.584-48.824-77.739z" fill="#008ab8"/>
     <path d="m2362.1 2302.6-42.134-84.619h80z" fill="#008db8"/>
     <path d="m2232.9 2423.4 37.615-115.2 48.566 81.878z" fill="#008fb3"/>
     <path d="m2320 2218-49.498 90.179-30.502-90.179z" fill="#0091ba"/>
     <path d="m2400 2218 53.934 84.774-91.8-0.1555z" fill="#008db9"/>
     <path d="m1216.1 2474-96.146-27.544 54.253-53.361z" fill="#00b8a3"/>
     <path d="m2270.5 2308.2 49.498-90.179 42.134 84.619z" fill="#0092b8"/>
     <path d="m1149.8 2629.2 84.126-74.299 9.2583 81.31z" fill="#00b4af"/>
     <path d="m1233.9 2554.9-81.692-28.241 63.934-52.665z" fill="#00b6a8"/>
     <path d="m1216.1 2474-63.934 52.665-32.212-80.21z" fill="#00b8a3"/>
     <path d="m1233.9 2554.9 65.229-64.457 54.246 64.922z" fill="#00b6a8"/>
     <path d="m1250.2 2398.5 48.973 91.977-82.987-16.45z" fill="#00b9a0"/>
     <path d="m813.82 2950.1-93.819 87.28v-85.394z" fill="#00a0d3"/>
     <path d="m745.66 2797-76.486-104.78 131.53 51.824z" fill="#009fc6"/>
     <path d="m940.71 2611.2-143.11 33.893 30.295-94.249z" fill="#00afb0"/>
     <path d="m669.17 2692.2 128.42-47.126 3.1045 98.949z" fill="#009cb8"/>
     <path d="m940.71 2611.2 29.735 150.79-86.193-70.096z" fill="#00afb0"/>
     <path d="m881.77 2789 2.4851-97.117 86.193 70.096z" fill="#00a8c7"/>
     <path d="m579.7 2952.8-107.6 23.124-2.1376-91.662z" fill="#008ecd"/>
     <path d="m480 3067.2h-160l80-34.705z" fill="#0084cb"/>
     <path d="m480 3067.2-80-34.705 72.099-56.641z" fill="#0084cb"/>
     <path d="m1154.7 2781-94.66 8.1544 28.392-89.197z" fill="#00b1ba"/>
     <path d="m992.33 2878.4 67.7-89.225 18.812 91.697z" fill="#0ac"/>
     <path d="m1440 2852.4 80.273-122.13 19.304 109.96z" fill="#00b0a8"/>
     <path d="m1601.9 2757-62.295 83.146-19.304-109.96z" fill="#00aba0"/>
     <path d="m1539.6 2840.2 62.295-83.146 37.84 77.106z" fill="#00ada2"/>
     <path d="m1535.5 2651.3 66.349 105.78-81.599-26.812z" fill="#00b0a3"/>
     <path d="m1152.2 2526.7-2.4336 102.54-72.438-59.35z" fill="#00b6a7"/>
     <path d="m1169.9 2704.5 73.233-68.31 3.5689 81.757z" fill="#00b3b4"/>
     <path d="m1088.4 2699.9 81.511 4.577-15.243 76.466z" fill="#00b1b7"/>
     <path d="m1243.2 2636.2-73.233 68.31-20.151-75.321z" fill="#00b5ad"/>
     <path d="m1418.9 2379.6 54.04-72.267 31.424 89.863z" fill="#00b7a3"/>
     <path d="m1377.9 2302.6 41.041 77.003-91.091 15.202z" fill="#00b8a1"/>
     <path d="m1441.1 2523 89.864-40.025-10.364 89.251z" fill="#00b4a5"/>
     <path d="m1580.9 2410.2-49.883 72.768-26.562-85.834z" fill="#00b2a5"/>
     <path d="m1831.3 2302.6 88.68-84.617 9.958 134.79z" fill="#00a8ac"/>
     <path d="m1620.6 2476.8 95.712-62.34 34.435 108.91z" fill="#00afa4"/>
     <path d="m2385.5 2673-77.264-72.799 81.057-30.704z" fill="#006d98"/>
     <path d="m2181.8 2661.1 126.46-60.958-25.213 82.93z" fill="#007f9c"/>
     <path d="m2270.5 2308.2-76.461 25.677-34.042-73.122z" fill="#0092b8"/>
     <path d="m2e3 2271.8 80-53.805 6.6472 96.079z" fill="#00a0b2"/>
     <path d="m2270.5 2308.2-110.5-47.445 80-42.734z" fill="#0092b8"/>
     <path d="m1930 2352.8 70.042-80.984 5.4857 75.526z" fill="#00a2ae"/>
     <path d="m2086.6 2314.1-81.162 33.251-5.4857-75.526z" fill="#009bb4"/>
     <path d="m2232.9 2423.4-38.846-89.527 76.461-25.677z" fill="#008fb3"/>
     <path d="m2086.6 2314.1 107.39 19.777-53.705 60.179z" fill="#009bb4"/>
     <path d="m902.16 2981.7-88.345-31.634 91.961-71.538z" fill="#00a4d4"/>
     <path d="m884.25 2691.9-2.4851 97.117-81.065-44.972z" fill="#0ab"/>
     <path d="m800.7 2744 81.065 44.972-92.057 70.39z" fill="#00a4c1"/>
     <path d="m669.37 2793.2 36.709 75.748-90.152 1.2462z" fill="#0099c4"/>
     <path d="m640 3067.2h-160l80-30.975z" fill="#0092d1"/>
     <path d="m472.1 2975.9 87.901 60.371-80 30.975z" fill="#0084ca"/>
     <path d="m615.93 2870.2-36.229 82.561-45.221-121.22z" fill="#0092c9"/>
     <path d="m745.66 2797 44.05 62.402-83.63 9.5584z" fill="#009fc6"/>
     <path d="m905.78 2878.5-116.07-19.149 92.057-70.39z" fill="#00a7d0"/>
     <path d="m706.08 2869 83.63-9.5584-69.709 92.573z" fill="#009acc"/>
     <path d="m813.82 2950.1 88.345 31.634-22.164 85.514z" fill="#00a0d3"/>
     <path d="m720 2952 69.709-92.573 24.11 90.687z" fill="#0099d1"/>
     <path d="m720 2952-69.945 36.846-34.128-118.62z" fill="#0099d1"/>
     <path d="m745.66 2797-39.58 71.96-36.709-75.748z" fill="#009fc6"/>
     <path d="m669.17 2692.2 76.486 104.78-76.289-3.7878z" fill="#009cb8"/>
     <path d="m800.7 2744-10.992 115.36-44.05-62.402z" fill="#00a4c1"/>
     <path d="m1299.1 2490.4 28.723-95.684 48.396 60.896z" fill="#00b7a4"/>
     <path d="m1273.7 2315 54.118 79.73-77.696 3.7073z" fill="#00b99f"/>
     <path d="m1174.3 2393.1 99.485-78.059-23.578 83.437z" fill="#00b99e"/>
     <path d="m1280 2218-6.2618 97.039-73.738-45.612z" fill="#00ba9e"/>
     <path d="m1377.9 2302.6 62.094-84.565 32.988 89.301z" fill="#00b8a1"/>
     <path d="m1440 2218 80 21.191-47.012 68.109z" fill="#00b7a2"/>
     <path d="m1273.7 2315 86.262-97.039 17.906 84.565z" fill="#00b99f"/>
     <path d="m1473 2307.3 47.012-68.109 104.71 107.07z" fill="#00b6a3"/>
     <path d="m1440 2218h160l-80 21.191z" fill="#00b7a2"/>
     <path d="m1624.7 2346.3-104.71-107.07 80-21.191z" fill="#00b1a6"/>
     <path d="m1531 2483 49.883-72.768 39.755 66.59z" fill="#00b2a4"/>
     <path d="m1504.4 2397.2 120.3-50.9-43.85 63.967z" fill="#00b4a4"/>
     <path d="m1721.1 2312.4-4.7687 102.03-91.616-68.217z" fill="#00ada8"/>
     <path d="m1680 2240.3 41.093 72.165-96.385 33.817z" fill="#00afa8"/>
     <path d="m1838.2 2435.8-121.89-21.358 70.31-42.76z" fill="#00a5a8"/>
     <path d="m1680 2240.3-55.292 105.98-24.708-128.26z" fill="#00afa8"/>
     <path d="m1831.3 2302.6-110.23 9.8285 38.907-94.446z" fill="#00a8ac"/>
     <path d="m1600 2218h160l-80 22.28z" fill="#00b2a5"/>
     <path d="m1760 2218-38.907 94.446-41.093-72.165z" fill="#00acaa"/>
     <path d="m1920 2218-88.68 84.617 8.6801-84.617z" fill="#00a4af"/>
     <path d="m1831.3 2302.6 98.638 50.172-91.742 83.049z" fill="#00a8ac"/>
     <path d="m1930 2352.8 67.669 117-84.35 4.8334z" fill="#00a2ae"/>
     <path d="m1750.8 2523.4-34.435-108.91 121.89 21.358z" fill="#00a8a4"/>
     <path d="m1879.1 2599.5 34.146-124.86 40.544 74.124z" fill="#009da1"/>
     <path d="m1930 2352.8-16.68 121.83-75.062-38.78z" fill="#00a2ae"/>
     <path d="m1721.1 2312.4 65.541 59.274-70.31 42.76z" fill="#00ada8"/>
     <path d="m1831.3 2302.6-71.32-84.617h80z" fill="#00a8ac"/>
     <path d="m1831.3 2302.6 6.8959 133.22-51.582-64.119z" fill="#00a8ac"/>
     <path d="m669.17 2692.2-78.253 81.442-22.67-77.607z" fill="#009cb8"/>
     <path d="m615.93 2870.2-25.008-96.548 78.45 19.554z" fill="#0092c9"/>
     <path d="m604.01 2582.9 65.167 109.35-100.92 3.8348z" fill="#009aaa"/>
     <path d="m669.17 2692.2 40.456-92.539 87.968 45.414z" fill="#009cb8"/>
     <path d="m800 3067.2h-160l80-29.868z" fill="#009ed6"/>
     <path d="m650.05 2988.8 69.945 48.547-80 29.868z" fill="#0093d0"/>
     <path d="m650.05 2988.8-70.357-36.054 36.229-82.561z" fill="#0093d0"/>
     <path d="m720 3037.4-69.945-48.547 69.945-36.846z" fill="#0098d3"/>
     <path d="m615.93 2870.2-81.451-38.66 56.443-57.888z" fill="#0092c9"/>
     <path d="m615.93 2870.2 90.152-1.2462 13.921 83.015z" fill="#0092c9"/>
     <path d="m1327.9 2394.8 91.091-15.202-42.696 76.098z" fill="#00b8a1"/>
     <path d="m1473 2307.3-54.04 72.267-41.041-77.003z" fill="#00b6a3"/>
     <path d="m1745.9 2867.5 110.35 14.49-61.781 85.519z" fill="#00a096"/>
     <path d="m114.25 2747.5-119.25 104.91v-104.91z" fill="#0074b9"/>
     <path d="m1760 3067.2 34.462-99.714 45.538 71.551z" fill="#009d92"/>
     <path d="m1899.9 2970.6-59.919 68.514-45.538-71.551z" fill="#008e8e"/>
     <path d="m1120 3067.2 39.861-99.025 40.139 73.693z" fill="#00acc7"/>
     <path d="m1681 2969.5 79.047 97.772h-80z" fill="#00a496"/>
     <path d="m905.78 2878.5 61.819 69.251-65.435 33.921z" fill="#00a7d0"/>
     <path d="m992.33 2878.4 40.316 104.1-65.043-34.667z" fill="#0ac"/>
     <path d="m1032.6 2982.5 87.357 84.767h-80z" fill="#00a9cd"/>
    </g>
   </g>
  </g>
  <path d="m-299.28 196.35h-45.885v-26.437h45.885z" fill="#2e3192"/>
  <g transform="matrix(.35278 0 0 -.35278 -332.49 165.36)">
   <path d="m0 0v8.16h-31.63v-21.081h8.694v8.327h104.08v-8.327h8.694v12.921z" fill="#2e3192"/>
  </g>
  <path d="m-299.28 153.73h-45.885v-26.437h45.885z" fill="#2e3192"/>
  <g transform="matrix(.35278 0 0 -.35278 -332.49 122.73)">
   <path d="m0 0v8.16h-31.63v-21.081h8.694v8.327h104.08v-8.327h8.694v12.921z" fill="#2e3192"/>
  </g>
  <path d="m-299.28 111.1h-45.885v-26.437h45.885z" fill="#2e3192"/>
  <g transform="matrix(.35278 0 0 -.35278 -332.49 80.108)">
   <path d="m0 0v8.16h-31.63v-21.081h8.694v8.327h104.08v-8.327h8.694v12.921z" fill="#2e3192"/>
  </g>
  <path d="m-378.1 106.01h-72.552v-72.552h72.552z" fill="#0083b5" stroke="#faa92b" stroke-linejoin="round" stroke-width=".9017"/>
  <g transform="matrix(.35278 0 0 -.35278 -1054.4 1113.7)">
   <g clip-path="url(#clipPath1204)">
    <g transform="translate(1814 2959.3)">
     <path d="m0 0c0-56.86 46.095-102.96 102.96-102.96v205.91c-56.86 0-102.96-46.094-102.96-102.96" fill="#0083b5"/>
     <path d="m0 0c0-56.86 46.095-102.96 102.96-102.96v205.91c-56.86 0-102.96-46.094-102.96-102.96z" fill="none" stroke="#faa92b" stroke-linejoin="round" stroke-width="2.556"/>
    </g>
    <g transform="translate(1858 2964.8)">
     <path d="m0 0c0-32.577 26.409-58.986 58.986-58.986v117.97c-32.577 0-58.986-26.41-58.986-58.987" fill="#0083b5"/>
     <path d="m0 0c0-32.577 26.409-58.986 58.986-58.986v117.97c-32.577 0-58.986-26.41-58.986-58.987z" fill="none" stroke="#faa92b" stroke-linejoin="round" stroke-width="2.556"/>
    </g>
    <g transform="translate(1751 2848.7)">
     <path d="m0 0v119.23" fill="#0083b5" stroke="#faa92b" stroke-linejoin="round" stroke-width="2.556"/>
    </g>
    <g transform="translate(1742.4 2967.9)">
     <path d="m0 0c0 4.766 3.863 8.629 8.629 8.629 4.765 0 8.629-3.863 8.629-8.629s-3.864-8.629-8.629-8.629c-4.766 0-8.629 3.863-8.629 8.629" fill="#0083b5"/>
     <path d="m0 0c0 4.766 3.863 8.629 8.629 8.629 4.765 0 8.629-3.863 8.629-8.629s-3.864-8.629-8.629-8.629c-4.766 0-8.629 3.863-8.629 8.629z" fill="none" stroke="#faa92b" stroke-linejoin="round" stroke-width="2.556"/>
    </g>
    <path d="m1818.4 2225.1h285.1v280.26h-285.1z" fill="#0083b5" stroke="#faa92b" stroke-linejoin="round" stroke-width="3.337"/>
    <g transform="translate(1872.9 2755.4)">
     <path d="m0 0h119.23" fill="#0083b5" stroke="#faa92b" stroke-linejoin="round" stroke-width="2.556"/>
    </g>
    <g transform="translate(1992.2 2764)">
     <path d="m0 0c4.766 0 8.629-3.863 8.629-8.629 0-4.765-3.863-8.629-8.629-8.629s-8.629 3.864-8.629 8.629c0 4.766 3.863 8.629 8.629 8.629" fill="#0083b5"/>
     <path d="m0 0c4.766 0 8.629-3.863 8.629-8.629 0-4.765-3.863-8.629-8.629-8.629s-8.629 3.864-8.629 8.629c0 4.766 3.863 8.629 8.629 8.629z" fill="none" stroke="#faa92b" stroke-linejoin="round" stroke-width="2.556"/>
    </g>
    <g transform="translate(1548.9 2585.2)">
     <path d="m0 0v-119.23" fill="#0083b5" stroke="#faa92b" stroke-linejoin="round" stroke-width="2.556"/>
    </g>
    <g transform="translate(1557.5 2465.9)">
     <path d="m0 0c0-4.765-3.863-8.629-8.629-8.629-4.765 0-8.629 3.864-8.629 8.629 0 4.766 3.864 8.629 8.629 8.629 4.766 0 8.629-3.863 8.629-8.629" fill="#0083b5"/>
     <path d="m0 0c0-4.765-3.863-8.629-8.629-8.629-4.765 0-8.629 3.864-8.629 8.629 0 4.766 3.864 8.629 8.629 8.629 4.766 0 8.629-3.863 8.629-8.629z" fill="none" stroke="#faa92b" stroke-linejoin="round" stroke-width="2.556"/>
    </g>
    <g transform="translate(1739.4 2418.1)">
     <path d="m0 0v-119.23" fill="#0083b5" stroke="#faa92b" stroke-linejoin="round" stroke-width="2.556"/>
    </g>
    <path d="m1749.5 2288.4h-20.181v20.181h20.181z" fill="#0083b5" stroke="#faa92b" stroke-linejoin="round" stroke-width="2.556"/>
    <g transform="translate(1618.8 2595)">
     <path d="m0 0c-68.662 0-124.32 55.662-124.32 124.32 0 68.372 55.197 123.83 123.46 124.3v29.952c-84.803-0.469-153.41-69.341-153.41-154.25 0-85.204 69.072-154.28 154.28-154.28 83.829 0 151.99 66.872 154.17 150.18h-29.951c-2.169-66.76-56.934-120.22-124.22-120.22" fill="#0083b5"/>
     <path d="m0 0c-68.662 0-124.32 55.662-124.32 124.32 0 68.372 55.197 123.83 123.46 124.3v29.952c-84.803-0.469-153.41-69.341-153.41-154.25 0-85.204 69.072-154.28 154.28-154.28 83.829 0 151.99 66.872 154.17 150.18h-29.951c-2.169-66.76-56.934-120.22-124.22-120.22z" fill="none" stroke="#faa92b" stroke-linejoin="round" stroke-width="2.556"/>
    </g>
    <g transform="translate(1494.5 2719.3)">
     <path d="m0 0c0-68.663 55.662-124.32 124.32-124.32 67.287 0 122.05 53.464 124.22 120.22h-31.342c-2.148-49.448-42.902-88.882-92.879-88.882-51.353 0-92.983 41.63-92.983 92.983 0 51.063 41.164 92.494 92.116 92.961v31.342c-68.261-0.469-123.46-55.931-123.46-124.3" fill="#0083b5"/>
     <path d="m0 0c0-68.663 55.662-124.32 124.32-124.32 67.287 0 122.05 53.464 124.22 120.22h-31.342c-2.148-49.448-42.902-88.882-92.879-88.882-51.353 0-92.983 41.63-92.983 92.983 0 51.063 41.164 92.494 92.116 92.961v31.342c-68.261-0.469-123.46-55.931-123.46-124.3z" fill="none" stroke="#faa92b" stroke-linejoin="round" stroke-width="2.556"/>
    </g>
    <g transform="translate(1618.8 2653.5)">
     <path d="m0 0c-36.336 0-65.792 29.456-65.792 65.792 0 36.046 28.991 65.304 64.925 65.77v27.191c-50.951-0.467-92.116-41.898-92.116-92.961 0-51.353 41.63-92.983 92.983-92.983 49.977 0 90.731 39.434 92.879 88.882h-27.227c-2.119-34.424-30.694-61.691-65.652-61.691" fill="#0083b5"/>
     <path d="m0 0c-36.336 0-65.792 29.456-65.792 65.792 0 36.046 28.991 65.304 64.925 65.77v27.191c-50.951-0.467-92.116-41.898-92.116-92.961 0-51.353 41.63-92.983 92.983-92.983 49.977 0 90.731 39.434 92.879 88.882h-27.227c-2.119-34.424-30.694-61.691-65.652-61.691z" fill="none" stroke="#faa92b" stroke-linejoin="round" stroke-width="2.556"/>
    </g>
    <g transform="translate(1704.6 2876.8)">
     <path d="m0 0h185.99v-271.59h-222.98v230.64z" fill="#0083b5"/>
     <path d="m0 0h185.99v-271.59h-222.98v230.64z" fill="none" stroke="#faa92b" stroke-linejoin="round" stroke-width="2.556"/>
    </g>
    <g transform="translate(1667.6 2835.9)">
     <path d="m0 0h36.995v40.956z" fill="#0083b5"/>
     <path d="m0 0h36.995v40.956z" fill="none" stroke="#faa92b" stroke-linejoin="round" stroke-width="2.556"/>
    </g>
    <g fill="#2e3192">
     <path d="m1687.9 2644.7h134.89v-2.66h-134.89z"/>
     <path d="m1687.9 2659.3h185.06v-2.66h-185.06z"/>
     <path d="m1687.9 2675.5h185.06v-2.66h-185.06z"/>
     <path d="m1687.9 2769.2h185.06v-2.66h-185.06z"/>
     <path d="m1687.9 2785.4h185.06v-2.66h-185.06z"/>
     <path d="m1687.9 2802.5h185.06v-2.66h-185.06z"/>
     <path d="m1687.9 2818.8h185.06v-2.66h-185.06z"/>
     <path d="m1724.6 2836h148.37v-2.66h-148.37z"/>
     <path d="m1755.3 2751.1h117.62v-57.89h-117.62z"/>
     <path d="m1691.6 2751.1h53.26v-57.89h-53.26z"/>
    </g>
    <g fill="#0083b5" stroke="#faa92b" stroke-linejoin="round" stroke-width="2.556">
     <path d="m1990.5 2408.3h-149.71v205.66h149.71z"/>
     <path d="m2081.8 2408.3h-174.4v205.66h174.4z"/>
     <path d="m1779.3 2408.3h-149.71v205.66h149.71z"/>
     <path d="m1870.7 2408.3h-174.4v205.66h174.4z"/>
     <path d="m1806.5 2427h-204.07v75.845h204.07z"/>
    </g>
    <g transform="translate(1793.1 2481.2)">
     <path d="m0 0h-178.41c-1.058 0-1.917 0.859-1.917 1.917s0.859 1.916 1.917 1.916h178.41c1.058 0 1.917-0.858 1.917-1.916s-0.859-1.917-1.917-1.917" fill="#2e3192"/>
    </g>
    <path d="m1679.3 2477.9h-12.318v10.471h12.318z" fill="#2e3192"/>
    <g transform="translate(1793.1 2465.7)">
     <path d="m0 0h-178.41c-1.058 0-1.917 0.858-1.917 1.917 0 1.058 0.859 1.916 1.917 1.916h178.41c1.058 0 1.917-0.858 1.917-1.916 0-1.059-0.859-1.917-1.917-1.917" fill="#2e3192"/>
    </g>
    <path d="m1745.5 2462.4h-12.319v10.471h12.319z" fill="#2e3192"/>
    <g transform="translate(1793.1 2450.1)">
     <path d="m0 0h-178.41c-1.058 0-1.917 0.858-1.917 1.917 0 1.058 0.859 1.916 1.917 1.916h178.41c1.058 0 1.917-0.858 1.917-1.916 0-1.059-0.859-1.917-1.917-1.917" fill="#2e3192"/>
    </g>
    <path d="m1785.3 2446.8h-12.319v10.471h12.319z" fill="#2e3192"/>
    <g transform="translate(1961 2429.9)">
     <path d="m0 0h25.385v123.06h-25.385z" fill="#0083b5"/>
     <path d="m0 0h25.385v123.06h-25.385z" fill="none" stroke="#faa92b" stroke-linejoin="round" stroke-width="2.556"/>
    </g>
    <path d="m1986.4 2429.9h25.385v91.305h-25.385z" fill="#0083b5" stroke="#faa92b" stroke-linejoin="round" stroke-width="2.556"/>
    <g transform="translate(2011.7 2429.9)">
     <path d="m0 0h25.384l1e-3 117.39h-25.385z" fill="#0083b5"/>
     <path d="m0 0h25.384l1e-3 117.39h-25.385z" fill="none" stroke="#faa92b" stroke-linejoin="round" stroke-width="2.556"/>
    </g>
    <g transform="translate(2037.1 2429.9)">
     <path d="m0 0h25.385v69.456h-25.385z" fill="#0083b5"/>
     <path d="m0 0h25.385v69.456h-25.385z" fill="none" stroke="#faa92b" stroke-linejoin="round" stroke-width="2.556"/>
    </g>
    <g transform="translate(1883 2620.4)">
     <path d="m0 0c32.034 9.649 65.874-8.523 75.524-40.557 9.649-32.034-8.523-65.874-40.557-75.524-32.034-9.649-65.874 8.523-75.524 40.557s8.523 65.874 40.557 75.524m-4.707 15.627c40.658 12.249 83.612-10.817 95.857-51.476 12.251-40.659-10.816-83.613-51.476-95.858-40.658-12.251-83.612 10.816-95.858 51.476-12.25 40.658 10.817 83.612 51.477 95.858" fill="#ffc609" fill-rule="evenodd"/>
    </g>
    <g transform="translate(1933.2 2493.9)">
     <path d="m0 0c-0.917 3.048-4.14 4.779-7.188 3.86l-11.053-3.329c-3.047-0.918-4.778-4.141-3.86-7.188l38.835-128.92c0.919-3.047 4.141-4.778 7.188-3.86l11.054 3.33c3.047 0.918 4.778 4.141 3.86 7.188z" fill="#ffc609" fill-rule="evenodd"/>
    </g>
   </g>
   <g clip-path="url(#clipPath1394)">
    <g transform="translate(1952.9 2424.6)">
     <path d="m0 0c7.309 10.667 17.862 12.363 23.406 9.365 4.404-2.38-2.271-6.754-5.427-20.533s-3.844-39.55-3.844-39.55l-23.36 15.571s0.521 22.446 9.225 35.147" fill="#ec297b"/>
    </g>
    <g transform="translate(2009.6 2225.2)">
     <path d="m0 0s8.623 27.108 4.792 51.839c-3.831 24.73-27.581 60.525-33.697 80.902-6.117 20.377-23.291 52.976-29.507 58.021s-9.899 15.983-17.798 24.713-8.886 18.68-25.528 21.912-29.658 7.369-41.202 7.212-28.725 0.302-30.085-4.231 3.599-14.119 31.477-14.493c24.491-0.33 28.686-9.186 35.364-14.32 6.679-5.136 14.963-16.819 14.963-16.819s-32.336 18.754-38.795 17.61-26.985-30.258-27.883-34.881 10.195-18.669 10.195-18.669-1.92-7.884-0.673-16.281c1.247-8.398 6.044-12.21 6.044-12.21s-1.988-11.365 5.59-20.513c2.166-2.615 5.875-1.86 7.634-2.682 1.759-0.821 17.735-8.722 17.735-8.722s16.162-22.025 29.53-44.028c13.889-22.859 24.953-21.243 24.953-21.243s2.321-1.781-2.967-14.186c-5.288-12.406-8.197-21.064-8.197-21.064 4.389-7.981 10.497-11.917 27.191-15.617 26.271-5.824 40.864 17.75 40.864 17.75" fill="#f06565"/>
    </g>
    <g transform="translate(1883.1 2341.6)">
     <path d="m0 0c3.323 0.666 14.791-10.17 19.615-6.448 1.09 1.408 6.032 6.82 5.032 8.616 0 0-8.796 4.108-14.158 4.909-5.67 0.848-11.422 2.939-16.106 1.484-5.549-1.834-9.015-9.796-5.11-14.393 1.604-1.889 2.106-3.792 8.637-8.633 4.822-3.576 14.236-8.298 18.428-8.857 3.09-0.412 1.399 5.965-0.55 10.382-0.822 1.861-12.808 10.981-15.788 12.94" fill="#f079a9"/>
    </g>
    <g transform="translate(1911.3 2363.5)">
     <path d="m0 0c1.955 1.334-17.366 10.581-19.494 11.474-5.389 2.26-12.637 5.882-18.914 6.423-6.447 0.556-12.199-4.667-11.846-11.446 0.264-5.072 2.123-10.852 6.263-14.459 0.038 8.308 1.97 12.494 10.86 12.966 9.259 0.493 33.131-4.958 33.131-4.958" fill="#f079a9"/>
    </g>
    <g transform="translate(1898.7 2410.3)">
     <path d="m0 0c-5.276 4.869-8.584 5.796-14.633 9.714-2.805 1.817-5.085 4.036-8.085 2.474-2.484-1.294-5.858-6.244-7.63-8.598-5.71-7.583-13.517-13.735-14.135-15.569-0.649-1.928 2.114-9.265 6.405-12.081-0.189 4.178 2.311 9.47 5.065 11.572 3.147 2.401 7.274 2.459 11.084 2.625 7.23 0.316 15.252-1.856 22.533-3.543 7.481-1.733 21.392-7.82 21.392-7.82-3.571 7.566-18.251 17.77-21.996 21.226" fill="#f079a9"/>
    </g>
    <g transform="translate(1903.2 2341.6)">
     <path d="m0 0c0.313 0.093 0.596 0.138 0.865 0.162 0.037 0.035 0.066 0.074 0.104 0.108z" fill="#e7a778"/>
    </g>
    <g transform="translate(1946.1 2264.6)">
     <path d="m0 0c-2.882 2.578-33.644 37.957-38.117 71.355-0.321 2.397-0.235 7.812-0.235 7.812-17.659-13.12-4.937-32.166-4e-3 -40.775 7.186-12.543 19.863-29.661 31.169-39.051 3.576-2.971 13.183-9.02 17.663-6.067-3.701 0.853-7.947 4.463-10.476 6.726" fill="#f079a9"/>
    </g>
   </g>
  </g>
 </g>
</svg>
