<?xml version="1.0" encoding="UTF-8"?>
<!-- Created with Inkscape (http://www.inkscape.org/) -->
<svg width="903.11mm" height="216.82mm" version="1.1" viewBox="0 0 903.11 216.82" xmlns="http://www.w3.org/2000/svg">
 <defs>
  <clipPath id="clipPath7812">
   <path d="m0 1717.8h2560v614.62h-2560z"/>
  </clipPath>
 </defs>
 <g transform="translate(324.45 90.793)">
  <g transform="matrix(.35278 0 0 -.35278 -324.45 732.05)">
   <g clip-path="url(#clipPath7812)">
    <g>
     <path d="m-4.6086 1715.9 1.0715-1.5892 3.52 3.5289z" fill="#0076b1"/>
     <path d="m-5.0015 2178.8 78.594-17.223-78.594 94.05z" fill="#006fc0"/>
     <path d="m2565 2102-76.416 74.843-15.55-74.843z" fill="#005b8a"/>
     <path d="m-1.9478 1713.2 1.9307 4.6004-3.52-3.5289z" fill="#0076b1"/>
     <path d="m-5.0015 1717.8 0.39288-1.9464 4.5914 1.9397-4.9843 0.01z" fill="#0076b1"/>
     <path d="m562.59 2230.6 107.38 33.958-109.97 49.392z" fill="#008fc5"/>
     <path d="m859.73 1913.8 110.52 80.001-105.42 22.138z" fill="#00aea0"/>
     <path d="m160 1712.8-36.92 130.91-52.231-55.357z" fill="#007aaf"/>
     <path d="m2560.1 1717.3-10.065-4.4898h10l0.065 4.4898z" fill="#0080b0"/>
     <path d="m-0.017184 1717.8-1.9307-4.6004 1.9464-0.3929z" fill="#0076b1"/>
     <path d="m2160 1756.5-6.1208 82.752-75.406-42.037z" fill="#0098b6"/>
     <path d="m-0.017184 1717.8-4.9843 19.214v-19.207l4.9843-0.01z" fill="#0076b1"/>
     <path d="m-0.066561 2333-4.659 1.1323-0.27594-1.6424z" fill="#006dc3"/>
     <path d="m-0.066561 2333-3.8537 2.5958-0.8053-1.4635z" fill="#006dc3"/>
     <path d="m1920 1712.8 80 53.372-89.808 34.398z" fill="#00a4ad"/>
     <path d="m960 1712.8h160l-80 35.228z" fill="#00b594"/>
     <path d="m-0.066561 2333-2.5961 3.7238-1.2576-1.128z" fill="#006dc3"/>
     <path d="m-1.1711 2337.3 1.1045-4.3524 0.065063 4.4898z" fill="#006dc3"/>
     <path d="m880 1712.8h80l-80 100.71z" fill="#00b38d"/>
     <path d="m-1.1711 2337.3-1.4916-0.6286 2.5961-3.7238z" fill="#006dc3"/>
     <path d="m800 1712.8 80 100.71-110.59-65.673z" fill="#00b086"/>
     <path d="m1681 2264.5 79.047 72.941h-160z" fill="#00a496"/>
     <path d="m689.75 1785.6-49.752-72.745 129.41 35.039z" fill="#00a78d"/>
     <path d="m781.88 2084.6-47.852 62.184-24.344-108.56z" fill="#00a4bd"/>
     <path d="m1120 1922.1 59.696 98.526-122.67-0.2151z" fill="#00b4a8"/>
     <path d="m1440 2078.5 72.487 38.806-102.43 112.5z" fill="#00afa5"/>
     <path d="m2561.2 1713-1.1045 4.3523-0.065-4.4898 1.1697 0.1375z" fill="#0080b0"/>
     <path d="m1840 1748.3 70.192 52.276-76.395 40.635z" fill="#00a7aa"/>
     <path d="m1995.3 2141.1 99.896-65.838-21.998 101.18z" fill="#008d99"/>
     <g fill="#0080b0">
      <path d="m2560.1 1717.3 1.1045-4.3523 1.4914 0.6286z"/>
      <path d="m2560.1 1717.3 3.8537-2.5957 0.8052 1.4635z"/>
      <path d="m2561.5 1727.4 3.4866 9.6034-29.234 5.1792z"/>
      <path d="m2565 1717.8-4.9348-0.5102 4.6589-1.1322z"/>
     </g>
     <path d="m342.89 1878.5 57.107-119.1 28.929 152.09z" fill="#0084ab"/>
     <path d="m120 2227.3 40 110.15h-80z" fill="#0070c1"/>
     <path d="m2560.1 1717.3 2.5959-3.7237 1.2578 1.128z" fill="#0080b0"/>
     <path d="m1040 2257.6-80.213-0.3467 20.541-97.208z" fill="#00aaca"/>
     <path d="m2440 1827.8-40-114.98h80z" fill="#0080ae"/>
     <path d="m2270.1 2067.2 22.777 74.589-113.5-6.1135z" fill="#007499"/>
     <path d="m2354.7 2018.4-88.19-55.317 71.297-79.35z" fill="#00729c"/>
     <path d="m292.26 2095.4-94.261 68.309 11.443-108.14z" fill="#007abb"/>
     <path d="m2561.6 2337.2-1.6426 0.2759 0.5103-4.9349z" fill="#004a79"/>
     <path d="m2564.9 2333.6-4.3525-1.1045 4.4897-0.065z" fill="#004a79"/>
     <path d="m-0.066561 2333 10.065 4.4898h-10z" fill="#006dc3"/>
     <path d="m2480 2337.5h-80l19.283-128.38z" fill="#004c79"/>
     <path d="m2564.9 2333.6-0.6289 1.4916-3.7236-2.5961z" fill="#004a79"/>
     <path d="m2435.8 2029.1 129.15-3.9416-91.967 76.827z" fill="#006a97"/>
     <path d="m2563.1 2336.4-2.5957-3.8537 3.7236 2.5961z" fill="#004a79"/>
     <path d="m2232.9 1864.6 67.532-72.877 37.408 92.045z" fill="#008fb3"/>
     <path d="m2561.6 2337.2-1.1323-4.659 2.5957 3.8537z" fill="#004a79"/>
     <path d="m2565 2322.9v9.6035l-4.4897 0.065z" fill="#004a79"/>
     <path d="m136.38 2111.3 61.614 52.39-77.999 63.646z" fill="#0072bd"/>
     <path d="m2488.6 2176.8 76.416 78.811-30.036 51.613z" fill="#005482"/>
     <path d="m1598.9 2254.8 82.075 9.697-80.953 72.941z" fill="#00a89a"/>
     <path d="m2488.6 2176.8 76.416-74.843v76.827z" fill="#005482"/>
     <path d="m769.41 1747.9-129.41-35.039h160z" fill="#00ae87"/>
     <path d="m2486.3 1895.9 78.672-101.27v76.827z" fill="#0078a7"/>
     <path d="m2565 2313.3-30.036-6.0075 30.036-13.199z" fill="#004a79"/>
     <path d="m19.999 2337.5 4.2344-29.386 15.766 29.386z" fill="#006dc3"/>
     <path d="m2520 1712.8h20l-4.2344 29.386z" fill="#0081b1"/>
     <path d="m2535 2307.2 30.036 6.0075-15 20.679z" fill="#004b79"/>
     <path d="m9.9985 2337.5 14.234-29.386-4.2344 29.386z" fill="#006dc3"/>
     <path d="m2540 1712.8h10l-14.234 29.386z" fill="#0080b1"/>
     <path d="m2565 2313.3v9.6034l-15 11.076z" fill="#004a79"/>
     <path d="m-1.5149 2322.9 25.748-14.783-14.234 29.386z" fill="#006dc3"/>
     <path d="m2561.5 1727.4-25.748 14.783 14.234-29.386z" fill="#0080b0"/>
     <path d="m2550 2333.9 10.51-1.4073-0.5103 4.9349z" fill="#004a79"/>
     <path d="m-1.5149 2322.9 1.4483 10.114-4.9349-0.5101z" fill="#006dc3"/>
     <path d="m2561.5 1727.4-1.4482-10.114 4.9348 0.5102z" fill="#0080b0"/>
     <path d="m342.89 1878.5 86.036 32.995-64.635 56.631z" fill="#0084ab"/>
     <path d="m2240 2337.5 51.292-117.74 68.262 46.032z" fill="#006687"/>
     <path d="m260.38 1935.2 103.91 32.927-75.311 41.388z" fill="#007cb2"/>
     <path d="m2486.3 1895.9-46.328-68.121 125-33.148z" fill="#0078a7"/>
     <path d="m-5.0015 1756.3 75.849 32.142-75.849 6.2715z" fill="#0076b2"/>
     <path d="m73.593 2161.6 46.406 65.728-125 28.322z" fill="#0070bf"/>
     <path d="m2419.3 2209.1 69.301-32.26 46.38 130.42z" fill="#005480"/>
     <path d="m123.08 1843.8 36.92-130.91 70.566 55.941z" fill="#0077b2"/>
     <path d="m2535.8 1742.2 29.234 14.028v38.414z" fill="#0080b0"/>
     <path d="m-5.0015 1756.3 20-23.564 55.849 55.707z" fill="#0076b2"/>
     <path d="m24.233 2308.1-29.234-14.028v-38.414z" fill="#006ec3"/>
     <path d="m2565 2294-30.036 13.199 30.036-51.613z" fill="#004b7a"/>
     <path d="m39.999 1712.8 30.849 75.556-55.849-55.707z" fill="#0076b1"/>
     <path d="m2565 1756.3-29.234-14.028 29.234-5.1792z" fill="#007fb0"/>
     <path d="m-0.017184 1717.8 15.016 14.856-20 4.3577z" fill="#0076b1"/>
     <path d="m-5.0015 2294 29.234 14.028-29.234 5.1792z" fill="#006dc2"/>
     <path d="m2535 2307.2 5.0364 30.214h-20z" fill="#004b79"/>
     <path d="m-5.0015 1756.3v-19.207l20-4.3577z" fill="#0076b2"/>
     <path d="m2565 1717.8v19.207l-3.4866-9.6034z" fill="#0080b0"/>
     <path d="m9.9985 1712.8 5 19.849-15.016-14.856z" fill="#0076b1"/>
     <path d="m-5.0015 2332.5v-19.207l3.4866 9.6034z" fill="#006dc3"/>
     <path d="m2560 2337.5h-20l10-3.5276z" fill="#004a79"/>
     <path d="m19.999 1712.8-5 19.849-5-19.849z" fill="#0076b1"/>
     <path d="m2550 1712.8 10.065 4.4898 1.4482 10.114z" fill="#0080b0"/>
     <path d="m-1.5149 2322.9-3.4866-9.6034 29.234-5.1792z" fill="#006dc3"/>
     <path d="m9.9985 2337.5-10.065-4.4898-1.4483-10.114z" fill="#006dc3"/>
     <path d="m2550 2333.9-10 3.5276-5.0364-30.214z" fill="#004a79"/>
     <path d="m2565 2322.9-4.4897 9.6685-10.51 1.4073z" fill="#004a79"/>
     <path d="m2440 1827.8 95.766-85.59 29.234 52.441z" fill="#0080ae"/>
     <path d="m-0.017184 1717.8 0.015686-4.9933h10z" fill="#0076b1"/>
     <path d="m2480 1712.8h40l15.766 29.386z" fill="#0082b2"/>
     <path d="m120 2227.3-95.766 80.764-29.234-52.441z" fill="#0070c1"/>
     <path d="m79.999 2337.5h-40l-15.766-29.386z" fill="#006ec3"/>
     <path d="m2520 2337.5h-40l54.964-30.214z" fill="#004b79"/>
     <path d="m2419.3 2209.1 115.68 98.164-54.964 30.214z" fill="#005480"/>
     <path d="m19.999 1712.8h20l-25 19.849z" fill="#0076b1"/>
     <path d="m39.999 1712.8h40l-9.1509 75.556z" fill="#0076b1"/>
     <path d="m1118.3 1817.5-73.607 33.545-4.703-102.93z" fill="#00b6a1"/>
     <path d="m774.84 1856.8 84.886 57.035-108.53 49.382z" fill="#00ab95"/>
     <path d="m1760 2258.1-0.043 79.35-79.047-72.941 79.09-6.4085z" fill="#009f95"/>
     <path d="m1141.7 2100.8-84.671-80.386 122.67 0.2151z" fill="#00b0b8"/>
     <path d="m1826 2046.9 61.968 119.88-112.24-46.907z" fill="#00a09e"/>
     <path d="m1410.1 2229.8-50.061 71.914-88.066-74.78z" fill="#00aea8"/>
     <path d="m1833.8 1841.2-33.617 113.22-52.59-105.75z" fill="#00a6a7"/>
     <path d="m1510.5 2278.9 89.544 58.59h-160z" fill="#00aba0"/>
     <path d="m1628.1 2172.9-29.202 81.935-55.322-61.398z" fill="#00a89b"/>
     <path d="m665.92 2185.8-103.33 44.785 56.892-118.48z" fill="#0099c5"/>
     <path d="m400 1759.4 89.482 61.777-60.553 90.315z" fill="#008aa2"/>
     <path d="m2179.3 2135.6-84.098-60.402 85.797-38.94z" fill="#007895"/>
     <path d="m1426.5 1867.6-98.099-53.867 75.222-28.943z" fill="#00b3a4"/>
     <path d="m2366.2 2115.4 106.78-13.45-53.75 107.1z" fill="#00648e"/>
     <path d="m2422.7 1948.3 63.581-52.385 78.672 129.21z" fill="#0075a2"/>
     <path d="m2565 2255.6-76.416-78.811 76.416 1.9838z" fill="#004d7c"/>
     <path d="m2473 2102 91.967-76.827v76.827z" fill="#005d8b"/>
     <path d="m2419.3 2209.1 53.75-107.1 15.55 74.843z" fill="#005480"/>
     <path d="m2291.3 2219.7 74.957-104.29 53.033 93.654z" fill="#006388"/>
     <path d="m1995.3 2141.1 6.2499-85.31 93.646 19.472z" fill="#008d99"/>
     <path d="m2366.2 2115.4-11.53-97.001 81.126 10.666z" fill="#00648e"/>
     <path d="m2376.5 1785.5-38.668 98.295-37.408-92.045z" fill="#0086b3"/>
     <path d="m2440 1827.8 40-114.98 55.766 29.386z" fill="#0080ae"/>
     <path d="m2422.7 1948.3-68.027 70.103-16.893-134.67z" fill="#0075a2"/>
     <path d="m2419.3 2209.1-59.729 56.666-68.262-46.032z" fill="#005480"/>
     <path d="m2354.7 2018.4 11.53 97.001-96.193-48.275z" fill="#00729c"/>
     <path d="m2135.1 2254.5-61.861-78.074 106.1-40.775z" fill="#00778f"/>
     <path d="m2270.1 2067.2 96.193 48.275-73.416 26.314z" fill="#007499"/>
     <path d="m2266.5 1963.1 88.19 55.317-84.664 48.726z" fill="#0081a7"/>
     <path d="m2435.8 2029.1-81.126-10.666 68.027-70.103z" fill="#006a97"/>
     <path d="m2366.2 2115.4-74.957 104.29 1.5413-77.974z" fill="#00648e"/>
     <path d="m2080 2337.5 55.102-82.982 24.898 82.982z" fill="#007d8f"/>
     <path d="m1846.8 2284.2-86.78 53.298 0.043-79.35 86.737 26.051z" fill="#009893"/>
     <path d="m2232.9 1864.6 33.642 98.517-106.18-18.743z" fill="#008fb3"/>
     <path d="m2218.5 2200 74.315-58.293-1.5413 77.974z" fill="#006e8d"/>
     <path d="m2073.2 2176.4 21.998-101.18 84.098 60.402z" fill="#008395"/>
     <path d="m2058.1 1978.6 122.94 57.709-85.797 38.94z" fill="#0092a6"/>
     <path d="m2266.5 1963.1-33.642-98.517 104.94 19.168z" fill="#0081a7"/>
     <path d="m2565 2025.2-129.15 3.9416-13.1-80.769z" fill="#006595"/>
     <path d="m2366.2 2115.4 69.596-86.335 37.187 72.886z" fill="#00648e"/>
     <path d="m2160 1756.5 140.42 35.235-67.532 72.877z" fill="#0098b6"/>
     <path d="m2440 1827.8-17.254 120.51-84.919-64.563z" fill="#0080ae"/>
     <path d="m2240 1712.8h160l-99.581 78.874z" fill="#0093b7"/>
     <path d="m2440 1827.8-63.505-42.352 23.505-72.623z" fill="#0080ae"/>
     <path d="m2565 2025.2-78.672-129.21 78.672-24.442z" fill="#006595"/>
     <path d="m2422.7 1948.3 17.254-120.51 46.328 68.121z" fill="#0075a2"/>
     <path d="m2033.4 2258.7-113.41 78.715 32.894-122.13z" fill="#008492"/>
     <path d="m2218.5 2200-83.417 54.443 44.235-118.85z" fill="#006e8d"/>
     <path d="m1988.6 1922.7-75.41 66.193-7.0827-100.09z" fill="#009ba9"/>
     <path d="m2082.5 1881.5-24.36 97.107-69.534-55.849z" fill="#0097ae"/>
     <path d="m2181 2036.3 85.494-73.177 3.5264 104.04z" fill="#0082a0"/>
     <path d="m2082.5 1881.5 77.893 62.896-102.25 34.211z" fill="#0097ae"/>
     <path d="m2337.8 1883.8 38.668-98.295 63.505 42.352z" fill="#0083ad"/>
     <path d="m2300.4 1791.7 99.581-78.874-23.505 72.623z" fill="#008db5"/>
     <path d="m2292.8 2141.7-74.315 58.293-39.182-64.406z" fill="#006a8f"/>
     <path d="m2240 2337.5-21.481-137.43 72.774 19.681z" fill="#006687"/>
     <path d="m2181 2036.3-122.94-57.709 102.25-34.211z" fill="#0082a0"/>
     <path d="m2010.7 1845.7-100.52-45.061 89.808-34.398z" fill="#009dae"/>
     <path d="m1988.6 1922.7 22.152-77.056 71.742 35.798z" fill="#009ba9"/>
     <path d="m1988.6 1922.7 13.033 133.03-88.443-66.833z" fill="#009ba9"/>
     <path d="m1840 1748.3-6.2027 92.911-86.207 7.4694z" fill="#00a7aa"/>
     <path d="m1913.2 1988.9 88.443 66.833-89.59 33.501z" fill="#009ca2"/>
     <path d="m2153.9 1839.2 6.4682 105.13-77.893-62.896z" fill="#0095b3"/>
     <path d="m2080 1712.8-80 53.372-80-53.372z" fill="#009cb4"/>
     <path d="m2080 1712.8-1.5264 84.354-78.474-30.982z" fill="#009cb4"/>
     <path d="m2058.1 1978.6 37.145 96.649-93.646-19.472z" fill="#0092a6"/>
     <path d="m2010.7 1845.7-104.65 43.159 4.1243-88.22z" fill="#009dae"/>
     <path d="m1952.9 2215.3-32.894 122.13-73.22-53.298z" fill="#008f95"/>
     <path d="m1621.9 1837.2-21.89-124.32 80 49.999z" fill="#00aea3"/>
     <path d="m2001.6 2055.8-13.033-133.03 69.534 55.849z" fill="#00929f"/>
     <path d="m1833.8 1841.2 76.395-40.635-4.1243 88.22z" fill="#00a6a7"/>
     <path d="m1687.7 2109.5 88.011 10.285-15.654 138.29z" fill="#00a69b"/>
     <path d="m1747.6 1848.7 12.41-135.87 80 35.493z" fill="#00a9a5"/>
     <path d="m1731.5 1922.7-67.83 33.602-56.094-47.216z" fill="#00a8a2"/>
     <path d="m1920 1712.8-9.8076 87.77-70.192-52.276z" fill="#00a4ad"/>
     <path d="m1621.9 1837.2 58.11-74.318 67.59 85.874z" fill="#00aea3"/>
     <path d="m1800.2 1954.5 105.89-65.637 7.0827 100.09z" fill="#00a4a2"/>
     <path d="m2078.5 1797.2 1.5264-84.354 80 43.638z" fill="#009bb3"/>
     <path d="m1952.9 2215.3 42.449-74.263 38.061 117.68z" fill="#008f95"/>
     <path d="m1628.1 2172.9-84.525 20.537-31.069-76.124z" fill="#00a89b"/>
     <path d="m2080 1712.8h160l-80 43.638z" fill="#009cb4"/>
     <path d="m2010.7 1845.7 67.76-48.476 3.9812 84.274z" fill="#009dae"/>
     <path d="m2300.4 1791.7-140.42-35.235 80-43.638z" fill="#008db5"/>
     <path d="m2153.9 1839.2 6.1208-82.752 72.888 108.11z" fill="#0095b3"/>
     <path d="m2010.7 1845.7-22.152 77.056-82.493-33.897z" fill="#009dae"/>
     <path d="m2078.5 1797.2-67.76 48.476-10.713-79.458z" fill="#009bb3"/>
     <path d="m1687.7 2109.5 72.357 148.57-79.09 6.4085z" fill="#00a69b"/>
     <path d="m1846.8 2284.2-86.737-26.051 53.811-58.316z" fill="#009893"/>
     <path d="m1846.8 2284.2 41.156-117.43 64.959 48.598z" fill="#009893"/>
     <path d="m1760 2337.5 86.78-53.298 73.22 53.298z" fill="#009f94"/>
     <path d="m1887.9 2166.7-41.156 117.43-32.925-84.367z" fill="#009797"/>
     <path d="m1995.3 2141.1-83.34-51.809 89.59-33.501z" fill="#008d99"/>
     <path d="m1775.7 2119.8-42.87-95.876 93.141 22.908z" fill="#00a19a"/>
     <path d="m1906.1 1888.8-105.89 65.637 33.617-113.22z" fill="#00a1a8"/>
     <path d="m1568.5 2057.1 119.21 52.452-59.606 63.35z" fill="#00aca0"/>
     <path d="m1760 1712.8h160l-80 35.493z" fill="#00aaa7"/>
     <path d="m2135.1 2254.5-101.7 4.2676 39.836-82.342z" fill="#00778f"/>
     <path d="m1920 2337.5 113.41-78.715 46.595 78.715z" fill="#009193"/>
     <path d="m2033.4 2258.7-38.061-117.68 77.898 35.339z" fill="#008492"/>
     <path d="m1995.3 2141.1-42.449 74.263-64.959-48.598z" fill="#008d99"/>
     <path d="m1826 2046.9 87.183-57.932-1.1475 100.33z" fill="#00a09e"/>
     <path d="m1731.5 1922.7-109.59-85.519 125.7 11.556z" fill="#00a8a2"/>
     <path d="m1747.6 1848.7 52.59 105.75-68.698-31.79z" fill="#00a9a5"/>
     <path d="m1732.8 2023.9-1.3445-101.27 68.698 31.79z" fill="#00a69e"/>
     <path d="m1440 2078.5-44.026-90.847 98.553 21.882z" fill="#00afa5"/>
     <path d="m880 1813.6-80-100.71h80z" fill="#00b293"/>
     <path d="m1316.8 1925 79.191 62.612-102.02 47.648z" fill="#00b4a7"/>
     <path d="m666.72 1870.7 108.12-13.898-23.642 106.42z" fill="#00a298"/>
     <path d="m668.34 1954-116.48-39.427 114.86-43.923z" fill="#00a0a5"/>
     <path d="m2419.3 2209.1-19.283 128.38-40.446-71.712z" fill="#005480"/>
     <path d="m2240 2337.5 119.55-71.712 40.446 71.712z" fill="#006687"/>
     <path d="m2240 2337.5-104.9-82.982 83.417-54.443z" fill="#006687"/>
     <path d="m2033.4 2258.7 101.7-4.2676-55.102 82.982z" fill="#008492"/>
     <path d="m2266.5 1963.1-85.494 73.177-20.688-91.92z" fill="#0081a7"/>
     <path d="m2135.1 2254.5 104.9 82.982h-80z" fill="#00778f"/>
     <path d="m2179.3 2135.6 1.699-99.342 89.02 30.866z" fill="#007895"/>
     <path d="m2160.3 1944.4-6.4682-105.13 79.008 25.36z" fill="#008daa"/>
     <path d="m2078.5 1797.2 75.406 42.037-71.425 42.238z" fill="#009bb3"/>
     <path d="m1887.9 2166.7-74.081 33.066-38.158-79.973z" fill="#009797"/>
     <path d="m1995.3 2141.1-107.41 25.664 24.068-77.473z" fill="#008d99"/>
     <path d="m1681 2264.5-82.075-9.697 29.202-81.935z" fill="#00a496"/>
     <path d="m1732.8 2023.9-69.174-67.664 67.83-33.602z" fill="#00a69e"/>
     <path d="m1628.1 2172.9-115.59-55.587 55.985-60.215z" fill="#00a89b"/>
     <path d="m1681 2264.5-52.873-91.632 59.606-63.35z" fill="#00a496"/>
     <path d="m1731.5 1922.7-123.92-13.613 14.331-71.906z" fill="#00a8a2"/>
     <path d="m1568.5 2057.1 25.092-71.645 60.648 51.744z" fill="#00aca0"/>
     <path d="m1538.4 1933.3 69.191-24.258-13.996 76.374z" fill="#00afa2"/>
     <path d="m1593.6 1985.4-99.037 24.089 43.842-76.206z" fill="#00ada1"/>
     <path d="m1600 1712.8h160l-80 49.999z" fill="#00b0a4"/>
     <path d="m1747.6 1848.7-67.59-85.874 80-49.999z" fill="#00a9a5"/>
     <path d="m1396 1987.6 30.57-120.05 67.984 141.93z" fill="#00b2a6"/>
     <path d="m1600 1712.8 21.89 124.32-71.751 22.034z" fill="#00b0a4"/>
     <path d="m1593.6 1985.4 13.996-76.374 56.094 47.216z" fill="#00ada1"/>
     <path d="m1550.1 1859.2 57.42 49.871-69.191 24.258z" fill="#00b0a3"/>
     <path d="m1663.7 1956.3 69.174 67.664-78.615 13.238z" fill="#00aba1"/>
     <path d="m1494.5 2009.5 99.037-24.089-25.092 71.645z" fill="#00afa3"/>
     <path d="m1512.5 2117.3-17.96-107.77 73.945 47.556z" fill="#00ada1"/>
     <path d="m1294 2035.3 69.928 32.061-21.82 73.768z" fill="#00b2ac"/>
     <path d="m1044.7 1851-61.08 53.032-7.3641-96.144z" fill="#00b5a0"/>
     <path d="m1396 1987.6-79.191-62.612 109.76-57.439z" fill="#00b2a6"/>
     <path d="m1294 2035.3 48.108 105.83-115.22-15.42z" fill="#00b2ac"/>
     <path d="m1403.7 1784.8-75.222 28.943-48.444-100.89z" fill="#00b4a3"/>
     <path d="m949.75 2082.2 30.575 77.839-114.03-43.322z" fill="#00acbf"/>
     <path d="m1179.7 2020.6 38.6-90.735 75.658 105.44z" fill="#00b2b0"/>
     <path d="m1328.4 1813.7 98.099 53.867-109.76 57.439z" fill="#00b5a4"/>
     <path d="m1483.7 1794.6 116.34-81.759-49.86 146.35z" fill="#00b2a3"/>
     <path d="m1363.9 2067.4 32.091-79.709 44.026 90.847z" fill="#00b1a9"/>
     <path d="m1179.7 2020.6 114.26 14.703-67.116 90.409z" fill="#00b2b0"/>
     <path d="m1550.1 1859.2-11.771 74.129-111.83-65.726z" fill="#00b0a3"/>
     <path d="m1396 1987.6-32.091 79.709-69.928-32.061z" fill="#00b2a6"/>
     <path d="m1598.9 2254.8-88.422 24.048 33.1-85.447z" fill="#00a89a"/>
     <path d="m1271.9 2226.9 70.128-85.809 67.998 88.675z" fill="#00afb4"/>
     <path d="m1141.7 2100.8 38.003-80.171 47.142 105.11z" fill="#00b0b8"/>
     <path d="m1218.3 1929.9-38.6 90.735-59.696-98.526z" fill="#00b4a9"/>
     <path d="m1607.6 1909.1-57.42-49.871 71.751-22.034z" fill="#00aea2"/>
     <path d="m1494.5 2009.5-67.984-141.93 111.83 65.726z" fill="#00afa3"/>
     <path d="m1600 2337.5-89.544-58.59 88.422-24.048z" fill="#00a899"/>
     <path d="m1440 2078.5-97.938 62.631 21.82-73.768z" fill="#00afa5"/>
     <path d="m1410.1 2229.8 133.5-36.377-33.1 85.447z" fill="#00aea8"/>
     <path d="m1360 2301.7 50.061-71.914 29.939 107.66z" fill="#00aead"/>
     <path d="m1410.1 2229.8 100.4 49.07-70.456 58.59z" fill="#00aea8"/>
     <path d="m1410.1 2229.8-67.998-88.675 97.938-62.631z" fill="#00aea8"/>
     <path d="m960 2337.5 80-79.867 80 79.867z" fill="#00a7d2"/>
     <path d="m1226.8 2125.7 115.22 15.42-70.128 85.809z" fill="#00b0b4"/>
     <path d="m1146.8 2220.6 80.028-94.87 45.096 101.23z" fill="#00adc0"/>
     <path d="m949.75 2082.2 107.27-61.823 3.7175 116.69z" fill="#00acbf"/>
     <path d="m960 1712.8 80 35.228-63.741 59.817z" fill="#00b594"/>
     <path d="m1294 2035.3-75.658-105.44 98.486-4.8217z" fill="#00b2ac"/>
     <path d="m983.62 1904-103.62-90.477 96.259-5.6673z" fill="#00b3a4"/>
     <path d="m1118.3 1817.5 1.6905-104.61 80 53.612z" fill="#00b6a1"/>
     <path d="m1316.8 1925-98.486 4.8217 46.208-64.405z" fill="#00b4a7"/>
     <path d="m1403.7 1784.8-123.67-71.944h160z" fill="#00b4a3"/>
     <path d="m1600 1712.8-116.34 81.759-43.665-81.759z" fill="#00b0a4"/>
     <path d="m1550.1 1859.2-123.6 8.4026 57.121-72.995z" fill="#00b0a3"/>
     <path d="m1440 1712.8 43.665 81.759-79.998-9.8152z" fill="#00b3a3"/>
     <path d="m1426.5 1867.6-22.877-82.811 79.998 9.8152z" fill="#00b3a4"/>
     <path d="m1440 2337.5h-160l80-35.746z" fill="#00ada6"/>
     <path d="m1271.9 2226.9 88.066 74.78-80 35.746z" fill="#00afb4"/>
     <path d="m1206.1 2287.3-59.333-66.718 125.12 6.3592z" fill="#00aebc"/>
     <path d="m1141.7 2100.8-80.954 36.307-3.7175-116.69z" fill="#00b0b8"/>
     <path d="m1060.7 2137.1 86.07 83.504-106.81 37.019z" fill="#00adc1"/>
     <path d="m1141.7 2100.8 5.1161 119.81-86.07-83.504z" fill="#00b0b8"/>
     <path d="m949.75 2082.2 110.99 54.87-80.413 22.969z" fill="#00acbf"/>
     <path d="m976.26 1807.9-96.259 5.6673 80-100.71z" fill="#00b599"/>
     <path d="m1264.5 1865.5-64.504-98.998 128.44 47.275z" fill="#00b5a5"/>
     <path d="m1328.4 1813.7-11.662 111.31-52.278-59.583z" fill="#00b5a4"/>
     <path d="m1218.3 1929.9-98.296-7.7909-1.6905-104.61z" fill="#00b4a9"/>
     <path d="m1218.3 1929.9-99.987-112.4 146.19 47.998z" fill="#00b4a9"/>
     <path d="m781.88 2084.6 34.284 106.65-82.136-44.464z" fill="#00a4bd"/>
     <path d="m1226.8 2125.7-80.028 94.87-5.1161-119.81z" fill="#00b0b4"/>
     <path d="m970.25 1993.8-20.499 88.407-84.918-66.269z" fill="#00afb1"/>
     <path d="m1120 1922.1-62.977 98.311-9.4373-75.372z" fill="#00b4a8"/>
     <path d="m949.75 2082.2 20.499-88.407 86.772 26.584z" fill="#00acbf"/>
     <path d="m1120 2337.5-80-79.867 106.81-37.019z" fill="#00acc5"/>
     <path d="m1206.1 2287.3 65.792-60.358 8.0655 110.53z" fill="#00aebc"/>
     <path d="m866.3 2116.7 114.03 43.322-74.548 37.9z" fill="#00a8c5"/>
     <path d="m816.16 2191.3 56.287 91.24-125.19-33.553z" fill="#00a3cd"/>
     <path d="m709.68 2038.3-41.347-84.265 82.86 9.1685z" fill="#00a0b3"/>
     <path d="m970.25 1993.8 77.334-48.788 9.4373 75.372z" fill="#00afb1"/>
     <path d="m1047.6 1945-63.962-40.974 61.08-53.032z" fill="#00b3aa"/>
     <path d="m949.75 2082.2-83.451 34.517-1.4669-100.79z" fill="#00acbf"/>
     <path d="m1047.6 1945-77.334 48.788 13.372-89.762z" fill="#00b3aa"/>
     <path d="m751.2 1963.2 113.64 52.758-82.953 68.712z" fill="#00a6a6"/>
     <path d="m859.73 1913.8 123.9-9.7604-13.372 89.762z" fill="#00aea0"/>
     <path d="m959.79 2257.2 80.213 0.3467-80 79.867z" fill="#00a7d0"/>
     <path d="m1060.7 2137.1-20.74 120.52-59.672-97.554z" fill="#00adc1"/>
     <path d="m1280 2337.5h-160l86.143-50.168z" fill="#00aeb5"/>
     <path d="m1120 2337.5 26.81-116.89 59.333 66.718z" fill="#00acc5"/>
     <path d="m959.79 2257.2-87.335 25.284 33.327-84.592z" fill="#00a7d0"/>
     <path d="m864.83 2015.9 1.4669 100.79-84.42-32.074z" fill="#00abb3"/>
     <path d="m709.68 2038.3 41.513-75.096 30.683 121.47z" fill="#00a0b3"/>
     <path d="m689.75 1785.6 85.089 71.17-108.12 13.898z" fill="#00a78d"/>
     <path d="m872.45 2282.5-56.287-91.24 89.614 6.6478z" fill="#00a4d3"/>
     <path d="m980.33 2160-20.541 97.208-54.007-59.308z" fill="#00abc8"/>
     <path d="m905.78 2197.9-89.614-6.6478 50.136-74.574z" fill="#00a7d0"/>
     <path d="m668.34 1954 41.347 84.265-84.798-13.119z" fill="#00a0a5"/>
     <path d="m400 2296.6-98.414-38.747 73.105-41.325z" fill="#0080c4"/>
     <path d="m734.03 2146.8-114.55-34.736 90.204-73.821z" fill="#009fc4"/>
     <path d="m800 2337.5 72.453-54.929 87.548 54.929z" fill="#00a0d3"/>
     <path d="m747.27 2249-81.345-63.19 68.108-38.96z" fill="#009dce"/>
     <path d="m532.38 2113-7.9053-100.95 100.41 13.084z" fill="#008ebb"/>
     <path d="m666.72 1870.7 84.48 92.518-82.86-9.1685z" fill="#00a298"/>
     <path d="m769.41 1747.9 110.59 65.673-105.16 43.202z" fill="#00ae87"/>
     <path d="m859.73 1913.8-84.886-57.035 105.16-43.202z" fill="#00aea0"/>
     <path d="m734.03 2146.8-68.108 38.96-46.44-73.696z" fill="#009fc4"/>
     <path d="m816.16 2191.3-34.284-106.65 84.42 32.074z" fill="#00a3cd"/>
     <path d="m720 2337.5-50.031-72.93 77.298-15.553z" fill="#009bcf"/>
     <path d="m747.27 2249 125.19 33.553-72.453 54.929z" fill="#009dce"/>
     <path d="m669.97 2264.5 50.031 72.93h-80z" fill="#0098cb"/>
     <path d="m960 2337.5-87.548-54.929 87.335-25.284z" fill="#00a7d2"/>
     <path d="m983.62 1904-123.9 9.7604 20.273-100.24z" fill="#00b3a4"/>
     <path d="m751.2 1963.2 108.53-49.382 5.1083 102.14z" fill="#00a6a6"/>
     <path d="m734.03 2146.8 82.136 44.464-68.899 57.687z" fill="#009fc4"/>
     <path d="m480 2337.5h-160l80-40.817z" fill="#0086c5"/>
     <path d="m747.27 2249 52.733 88.482h-80z" fill="#009dce"/>
     <path d="m665.92 2185.8 81.345 63.19-77.298 15.553z" fill="#0099c5"/>
     <path d="m474.07 2161 2.2103 88.279-101.59-32.661z" fill="#0088be"/>
     <path d="m532.38 2113 92.509-87.87-5.4059 86.94z" fill="#008ebb"/>
     <path d="m560 2313.9 109.97-49.392-29.969 72.93z" fill="#008ec8"/>
     <path d="m400 2296.6 76.277-47.411 3.7226 88.228z" fill="#0080c4"/>
     <path d="m474.07 2161 58.312-47.932 30.211 117.55z" fill="#0088be"/>
     <path d="m619.48 2112.1-56.892 118.48-30.211-117.55z" fill="#0096bc"/>
     <path d="m709.68 2038.3-90.204 73.821 5.4059-86.94z" fill="#00a0b3"/>
     <path d="m562.59 2230.6 103.33-44.785 4.0463 78.743z" fill="#008fc5"/>
     <path d="m364.29 1968.1 92.447 100.05-89.178-14.176z" fill="#0083b0"/>
     <path d="m367.56 2054 34.825 83.312-110.13-41.938z" fill="#0081b7"/>
     <path d="m524.47 2012.1 27.387-97.489 73.028 110.57z" fill="#0091af"/>
     <path d="m524.47 2012.1 7.9053 100.95-75.639-44.864z" fill="#0091af"/>
     <path d="m624.89 2025.2-73.028-110.57 116.48 39.427z" fill="#009ab0"/>
     <path d="m320 1712.8 80 46.544-84.195 38.438z" fill="#0083a8"/>
     <path d="m562.59 2230.6-2.5903 83.35-83.723-64.691z" fill="#008fc5"/>
     <path d="m456.74 2068.2 17.327 92.796-71.68-23.66z" fill="#0089b6"/>
     <path d="m532.38 2113-58.312 47.932-17.327-92.796z" fill="#008ebb"/>
     <path d="m428.93 1911.5 122.93 3.1001-27.387 97.489z" fill="#008aa9"/>
     <path d="m367.56 2054 89.178 14.176-54.353 69.135z" fill="#0081b7"/>
     <path d="m428.93 1911.5 95.545 100.59-67.733 56.09z" fill="#008aa9"/>
     <path d="m489.48 1821.2-89.482-61.777 80-46.544z" fill="#00929e"/>
     <path d="m640 1712.8 49.752 72.745-100.56 15.391z" fill="#00a38e"/>
     <path d="m551.86 1914.6-122.93-3.1001 60.553-90.315z" fill="#0096a3"/>
     <path d="m666.72 1870.7-114.86 43.923 37.331-113.6z" fill="#00a298"/>
     <path d="m400 1759.4-80-46.544h160z" fill="#008aa2"/>
     <path d="m589.19 1801-29.191-88.136h80z" fill="#009d95"/>
     <path d="m774.84 1856.8-85.089-71.17 79.658-37.706z" fill="#00ab95"/>
     <path d="m589.19 1801-37.331 113.6-62.379-93.415z" fill="#009d95"/>
     <path d="m1826 2046.9-93.141-22.908 67.353-69.477z" fill="#00a09e"/>
     <path d="m1654.2 2037.2 78.615-13.238-45.141 85.591z" fill="#00a99f"/>
     <path d="m1913.2 1988.9-87.183 57.932-25.788-92.385z" fill="#009ca2"/>
     <path d="m1826 2046.9 86.035 42.402-24.068 77.473z" fill="#00a09e"/>
     <path d="m1568.5 2057.1 85.741-19.902 33.474 72.354z" fill="#00aca0"/>
     <path d="m1663.7 1956.3-9.441 80.902-60.648-51.744z" fill="#00aba1"/>
     <path d="m1410.1 2229.8 102.43-112.5 31.069 76.124z" fill="#00aea8"/>
     <path d="m1494.5 2009.5 17.96 107.77-72.487-38.806z" fill="#00afa3"/>
     <path d="m1118.3 1817.5-78.31-69.384 80-35.228z" fill="#00b6a1"/>
     <path d="m1120 1712.8h160l-80 53.612z" fill="#00b79e"/>
     <path d="m1047.6 1945-2.8826-94.006 75.297 71.067z" fill="#00b3aa"/>
     <path d="m1328.4 1813.7-128.44-47.275 80-53.612z" fill="#00b5a4"/>
     <path d="m1264.5 1865.5-146.19-47.998 81.69-51z" fill="#00b5a5"/>
     <path d="m1040 1748.1 4.703 102.93-68.444-43.112z" fill="#00b69a"/>
     <path d="m1044.7 1851 73.607-33.545 1.6905 104.61z" fill="#00b5a0"/>
     <path d="m400 2296.6-25.309-80.072 101.59 32.661z" fill="#0080c4"/>
     <path d="m476.28 2249.2-2.2103-88.279 88.523 69.619z" fill="#0087c4"/>
     <path d="m210.63 2243.5 29.366 93.913h-80z" fill="#0073c2"/>
     <path d="m374.69 2216.6-97.473-36.622 125.17-42.656z" fill="#007ec1"/>
     <path d="m198 2163.7 94.261-68.309-15.041 84.594z" fill="#0073bf"/>
     <path d="m36.622 1948.3 69.325-30.708 2.1937 80.907z" fill="#0073b7"/>
     <path d="m292.26 2095.4 110.13 41.938-125.17 42.656z" fill="#007abb"/>
     <path d="m364.29 1968.1 3.2687 85.872-78.58-44.484z" fill="#0083b0"/>
     <path d="m301.59 2257.9-90.952-14.349 66.584-63.598z" fill="#0078c2"/>
     <path d="m288.98 2009.5 78.58 44.484-75.303 41.374z" fill="#007cb5"/>
     <path d="m342.89 1878.5 21.401 89.626-103.91-32.927z" fill="#0084ab"/>
     <path d="m456.74 2068.2-92.447-100.05 64.635-56.631z" fill="#0089b6"/>
     <path d="m108.14 1998.5-43.066 70.7-70.077-44.072z" fill="#0074b8"/>
     <path d="m209.44 2055.5-73.056 55.75-28.242-112.75z" fill="#0076ba"/>
     <path d="m292.26 2095.4-82.818-39.831 79.542-46.027z" fill="#007abb"/>
     <path d="m315.8 1797.8-85.239-29.041 89.434-55.941z" fill="#0083a9"/>
     <path d="m120 2227.3-40 110.15-55.766-29.386z" fill="#0070c1"/>
     <path d="m120 2227.3 77.999-63.646 12.636 79.883z" fill="#0070c1"/>
     <path d="m136.38 2111.3-71.308-42.051 43.066-70.7z" fill="#0072bd"/>
     <path d="m209.44 2055.5-101.3-57 72.986-71.061z" fill="#0076ba"/>
     <path d="m253.57 1855.8 62.234-58.021 27.088 80.658z" fill="#007dae"/>
     <path d="m400 1759.4-57.107 119.1-27.088-80.658z" fill="#008aa2"/>
     <path d="m240 2337.5 61.586-79.564 18.414 79.564z" fill="#0074c3"/>
     <path d="m160 2337.5-40-110.15 90.634 16.236z" fill="#0070c3"/>
     <path d="m-5.0015 2025.2 41.624-76.827 71.519 50.2z" fill="#0072ba"/>
     <path d="m105.95 1917.6-69.325 30.708-41.624-76.827z" fill="#0075b5"/>
     <path d="m230.56 1768.8 85.239 29.041-62.234 58.021z" fill="#007dac"/>
     <path d="m666.72 1870.7-77.528-69.677 100.56-15.391z" fill="#00a298"/>
     <path d="m123.08 1843.8 107.49-74.971 23.004 87.062z" fill="#0077b2"/>
     <path d="m320 1712.8-89.434 55.941-70.566-55.941z" fill="#0083a8"/>
     <path d="m65.076 2069.2-70.077 109.58v-153.65z" fill="#0071bc"/>
     <path d="m560 1712.8-70.519 108.32-9.4814-108.32z" fill="#009a95"/>
     <path d="m123.08 1843.8 130.49 12.091-72.441 71.617z" fill="#0077b2"/>
     <path d="m-5.0015 1871.5v-76.827l75.849-6.2715z" fill="#0075b4"/>
     <path d="m209.44 2055.5-11.443 108.14-61.614-52.39z" fill="#0076ba"/>
     <path d="m277.22 2179.9-66.584 63.598-12.636-79.883z" fill="#0077c0"/>
     <path d="m489.48 1821.2 70.519-108.32 29.191 88.136z" fill="#00929e"/>
     <path d="m301.59 2257.9-61.586 79.564-29.366-93.913z" fill="#0078c2"/>
     <path d="m136.38 2111.3-16.385 116.04-46.406-65.728z" fill="#0072bd"/>
     <path d="m136.38 2111.3-62.791 50.309-8.5171-92.36z" fill="#0072bd"/>
     <path d="m-5.0015 2178.8 70.077-109.58 8.5171 92.36z" fill="#006fc0"/>
     <path d="m-5.0015 2025.2v-153.65l41.624 76.827z" fill="#0072ba"/>
     <path d="m105.95 1917.6-110.95-46.119 128.08-27.742z" fill="#0075b5"/>
     <path d="m160 1712.8-89.151 75.556 9.1509-75.556z" fill="#007aaf"/>
     <path d="m-5.0015 1871.5 75.849-83.099 52.231 55.357z" fill="#0075b4"/>
     <path d="m1760 2258.1 15.654-138.29 38.158 79.973z" fill="#009f95"/>
     <path d="m1732.8 2023.9 42.87 95.876-88.011-10.285z" fill="#00a69e"/>
     <path d="m253.57 1855.8 6.8121 79.336-79.253-7.7196z" fill="#007dae"/>
     <path d="m181.13 1927.5 79.253 7.7196-50.941 120.34z" fill="#0078b3"/>
     <path d="m123.08 1843.8 58.05 83.708-75.18-9.846z" fill="#0077b2"/>
     <path d="m108.14 1998.5-2.1937-80.907 75.18 9.846z" fill="#0074b8"/>
     <path d="m342.89 1878.5-82.51 56.699-6.8121-79.336z" fill="#0084ab"/>
     <path d="m209.44 2055.5 50.941-120.34 28.6 74.315z" fill="#0076ba"/>
     <path d="m301.59 2257.9 98.414 38.747-80 40.817z" fill="#0078c2"/>
     <path d="m277.22 2179.9 97.473 36.622-73.105 41.325z" fill="#0077c0"/>
     <path d="m374.69 2216.6 27.696-79.278 71.68 23.66z" fill="#007ec1"/>
     <path d="m640 2337.5h-160l80-23.537z" fill="#0095cb"/>
     <path d="m476.28 2249.2 83.723 64.691-80 23.537z" fill="#0087c4"/>
    </g>
   </g>
  </g>
 </g>
</svg>
